<svg width="24" height="24" viewBox="0 0 24 24" fill="none" xmlns="http://www.w3.org/2000/svg">
<path fill-rule="evenodd" clip-rule="evenodd" d="M12.0002 13.5137L18.6723 20.1857C19.0913 20.6048 19.7667 20.6048 20.1857 20.1857C20.6048 19.7667 20.6048 19.0913 20.1857 18.6723L13.5137 12.0002L20.1857 5.32821C20.6048 4.90919 20.6048 4.23378 20.1857 3.81476C19.7667 3.39574 19.0913 3.39574 18.6723 3.81476L12.0002 10.4868L5.32772 3.81427C4.9087 3.39525 4.23328 3.39525 3.81426 3.81426C3.39524 4.23328 3.39525 4.9087 3.81427 5.32772L10.4868 12.0002L3.81427 18.6728C3.39525 19.0918 3.39525 19.7672 3.81426 20.1862C4.23328 20.6052 4.9087 20.6052 5.32772 20.1862L12.0002 13.5137Z" fill="#878787"/>
</svg>
