<svg width="28" height="28" viewBox="0 0 28 28" fill="none" xmlns="http://www.w3.org/2000/svg">
<path d="M23.9556 18.6677V9.33242C23.9554 8.92984 23.8511 8.53417 23.6528 8.18384C23.4545 7.83351 23.169 7.54045 22.824 7.33312L15.0462 2.6655C14.6837 2.44817 14.2691 2.33337 13.8465 2.33337C13.4239 2.33337 13.0092 2.44817 12.6467 2.6655L4.86895 7.33312C4.52322 7.53997 4.23692 7.83282 4.03792 8.18318C3.83892 8.53354 3.73401 8.92947 3.7334 9.33242V18.6677C3.73361 19.0702 3.83793 19.4659 4.03623 19.8162C4.23452 20.1666 4.52005 20.4596 4.86507 20.667L12.6428 25.3346C13.0053 25.5519 13.42 25.6667 13.8426 25.6667C14.2652 25.6667 14.6798 25.5519 15.0423 25.3346L22.8201 20.667C23.1658 20.4601 23.4521 20.1673 23.6511 19.8169C23.8501 19.4665 23.955 19.0706 23.9556 18.6677Z" stroke="url(#paint0_linear_234_1489)" stroke-width="1.25" stroke-linejoin="round"/>
<path d="M6.06665 18.6677V10.6938L12.6778 14.6613V22.6352L6.06665 18.6677Z" stroke="url(#paint1_linear_234_1489)" stroke-width="1.25" stroke-linejoin="round"/>
<defs>
<linearGradient id="paint0_linear_234_1489" x1="35.418" y1="-12.5357" x2="-18.2686" y2="27.5568" gradientUnits="userSpaceOnUse">
<stop offset="0.211426" stop-color="#A3A3A3"/>
<stop offset="0.703566" stop-color="#454545"/>
</linearGradient>
<linearGradient id="paint1_linear_234_1489" x1="16.4251" y1="3.08427" x2="-5.84611" y2="13.7088" gradientUnits="userSpaceOnUse">
<stop offset="0.211426" stop-color="#A3A3A3"/>
<stop offset="0.703566" stop-color="#454545"/>
</linearGradient>
</defs>
</svg>
