<svg width="28" height="28" viewBox="0 0 28 28" fill="none" xmlns="http://www.w3.org/2000/svg">
<path fill-rule="evenodd" clip-rule="evenodd" d="M3.62988 5.35714C3.62988 4.40051 4.40539 3.625 5.36203 3.625C6.31866 3.625 7.09417 4.40051 7.09417 5.35714C7.09417 6.31378 6.31866 7.08929 5.36203 7.08929C4.40539 7.08929 3.62988 6.31378 3.62988 5.35714ZM5.36203 2.375C3.71503 2.375 2.37988 3.71015 2.37988 5.35714C2.37988 7.00413 3.71503 8.33929 5.36203 8.33929C5.43442 8.33929 5.50621 8.33671 5.57731 8.33163L7.5305 14.2683L5.63753 19.6733C5.54681 19.665 5.45491 19.6607 5.36203 19.6607C3.71503 19.6607 2.37988 20.9959 2.37988 22.6429C2.37988 24.2899 3.71503 25.625 5.36202 25.625C7.00902 25.625 8.34417 24.2899 8.34417 22.6429C8.34417 22.5604 8.34082 22.4786 8.33425 22.3978L14.0048 20.4739L19.6755 22.3979C19.6689 22.4787 19.6656 22.5604 19.6656 22.6429C19.6656 24.2899 21.0007 25.625 22.6477 25.625C24.2947 25.625 25.6299 24.2899 25.6299 22.6429C25.6299 20.9959 24.2947 19.6607 22.6477 19.6607C22.5548 19.6607 22.4629 19.665 22.3721 19.6733L20.4791 14.2683L22.4323 8.33163C22.5035 8.3367 22.5753 8.33929 22.6477 8.33929C24.2947 8.33929 25.6299 7.00414 25.6299 5.35714C25.6299 3.71015 24.2947 2.375 22.6477 2.375C21.0007 2.375 19.6656 3.71015 19.6656 5.35714C19.6656 5.43937 19.6689 5.52082 19.6755 5.60136L14.0048 7.52533L8.33431 5.6014C8.34084 5.52085 8.34417 5.43938 8.34417 5.35714C8.34417 3.71015 7.00902 2.375 5.36203 2.375ZM7.97314 6.79885C7.69665 7.29854 7.2809 7.71044 6.77825 7.9822L8.78422 14.0793C8.82724 14.21 8.82589 14.3513 8.7804 14.4812L6.83107 20.0471C7.30981 20.3186 7.70604 20.7187 7.97278 21.2005L13.804 19.222C13.9342 19.1779 14.0754 19.1779 14.2056 19.222L20.037 21.2005C20.3037 20.7188 20.6999 20.3186 21.1786 20.0471L19.2292 14.4812C19.1838 14.3513 19.1824 14.21 19.2254 14.0793L21.2314 7.98214C20.7288 7.71038 20.3131 7.29848 20.0366 6.79882L14.2056 8.77718C14.0754 8.82137 13.9342 8.82137 13.804 8.77718L7.97314 6.79885ZM20.9156 5.35714C20.9156 4.40051 21.6911 3.625 22.6477 3.625C23.6044 3.625 24.3799 4.40051 24.3799 5.35714C24.3799 6.31378 23.6044 7.08929 22.6477 7.08929C21.6911 7.08929 20.9156 6.31378 20.9156 5.35714ZM3.62988 22.6429C3.62988 21.6862 4.40539 20.9107 5.36203 20.9107C6.31866 20.9107 7.09417 21.6862 7.09417 22.6429C7.09417 23.5995 6.31866 24.375 5.36202 24.375C4.40539 24.375 3.62988 23.5995 3.62988 22.6429ZM20.9156 22.6429C20.9156 21.6862 21.6911 20.9107 22.6477 20.9107C23.6044 20.9107 24.3799 21.6862 24.3799 22.6429C24.3799 23.5995 23.6044 24.375 22.6477 24.375C21.6911 24.375 20.9156 23.5995 20.9156 22.6429Z" fill="url(#paint0_linear_234_1547)"/>
<defs>
<linearGradient id="paint0_linear_234_1547" x1="38.8085" y1="-12.441" x2="-16.3702" y2="35.1053" gradientUnits="userSpaceOnUse">
<stop offset="0.211426" stop-color="#A3A3A3"/>
<stop offset="0.703566" stop-color="#454545"/>
</linearGradient>
</defs>
</svg>
