<svg width="20" height="20" viewBox="0 0 20 20" fill="none" xmlns="http://www.w3.org/2000/svg">
<path d="M16.3633 4.21787C15.1588 3.66642 13.8872 3.27519 12.581 3.0542C12.4023 3.37372 12.2406 3.70247 12.0965 4.03907C10.7052 3.82941 9.29027 3.82941 7.89893 4.03907C7.75481 3.70251 7.59309 3.37376 7.41442 3.0542C6.10739 3.27706 4.83496 3.66921 3.62923 4.22076C1.23555 7.76225 0.58666 11.2158 0.911105 14.6203C2.31291 15.656 3.88192 16.4437 5.54994 16.9491C5.92553 16.4439 6.25788 15.908 6.54347 15.3471C6.00104 15.1445 5.47751 14.8945 4.97892 14.6001C5.11014 14.5049 5.23848 14.4069 5.36249 14.3117C6.81326 14.994 8.3967 15.3477 9.99989 15.3477C11.6031 15.3477 13.1865 14.994 14.6373 14.3117C14.7627 14.4141 14.8911 14.5121 15.0208 14.6001C14.5213 14.895 13.9968 15.1454 13.4534 15.3485C13.7387 15.9092 14.071 16.4447 14.4469 16.9491C16.1164 16.4457 17.6866 15.6584 19.0887 14.6217C19.4693 10.6736 18.4383 7.25179 16.3633 4.21787ZM6.95443 12.5265C6.05031 12.5265 5.30337 11.7061 5.30337 10.6967C5.30337 9.68729 6.02436 8.8596 6.95155 8.8596C7.87874 8.8596 8.61991 9.68729 8.60405 10.6967C8.58819 11.7061 7.87585 12.5265 6.95443 12.5265ZM13.0453 12.5265C12.1398 12.5265 11.3957 11.7061 11.3957 10.6967C11.3957 9.68729 12.1167 8.8596 13.0453 8.8596C13.974 8.8596 14.7094 9.68729 14.6935 10.6967C14.6777 11.7061 13.9668 12.5265 13.0453 12.5265Z" fill="url(#paint0_linear_263_4853)"/>
<defs>
<linearGradient id="paint0_linear_263_4853" x1="20.4866" y1="-2.73997" x2="-5.0041" y2="29.6449" gradientUnits="userSpaceOnUse">
<stop stop-color="#C3C3C3"/>
<stop offset="0.568534" stop-color="#878787"/>
</linearGradient>
</defs>
</svg>
