<svg width="20" height="20" viewBox="0 0 20 20" fill="none" xmlns="http://www.w3.org/2000/svg">
<g clip-path="url(#clip0_324_1183)">
<path d="M8.98141 1.40789C9.69532 0.478596 10.8053 -0.00012207 12.3611 -0.00012207C12.867 -0.00012207 13.5729 0.0946706 13.8751 0.13865C14.1949 0.185203 14.4292 0.524251 14.4292 0.918077V3.30865C14.4292 3.74303 14.1475 4.09517 13.8 4.09517H12.9412C12.4342 4.09517 12.2018 4.19804 12.0923 4.30935C12.0084 4.39473 11.9192 4.56746 11.9192 5.04814V6.54206H13.7433C14.1133 6.54206 14.4034 6.93912 14.37 7.39968L14.1826 9.97969C14.1532 10.3849 13.8815 10.6951 13.556 10.6951H11.9191L11.9191 19.2134C11.9191 19.6477 11.6373 19.9999 11.2898 19.9999H8.66336C8.31585 19.9999 8.03414 19.6477 8.03414 19.2134V10.6951H6.62921C6.28171 10.6951 6 10.343 6 9.90859V7.32858C6 6.8942 6.28171 6.54206 6.62921 6.54206H8.03407V4.9482C8.03407 3.60043 8.27036 2.33346 8.98141 1.40789Z" fill="url(#paint0_linear_324_1183)"/>
</g>
<defs>
<linearGradient id="paint0_linear_324_1183" x1="14.4292" y1="-0.00012207" x2="5.51009" y2="0.220797" gradientUnits="userSpaceOnUse">
<stop offset="0.116871" stop-color="#D81D3C"/>
<stop offset="0.501727" stop-color="#981329"/>
<stop offset="0.897367" stop-color="#D81D3C"/>
</linearGradient>
<clipPath id="clip0_324_1183">
<rect width="20" height="20" fill="white"/>
</clipPath>
</defs>
</svg>
