<svg width="20" height="20" viewBox="0 0 20 20" fill="none" xmlns="http://www.w3.org/2000/svg">
<g clip-path="url(#clip0_263_4865)">
<path d="M8.98141 1.40801C9.69532 0.478718 10.8053 0 12.3611 0C12.867 0 13.5729 0.0947926 13.8751 0.138772C14.1949 0.185325 14.4292 0.524373 14.4292 0.918199V3.30877C14.4292 3.74316 14.1475 4.09529 13.8 4.09529H12.9412C12.4342 4.09529 12.2018 4.19816 12.0923 4.30947C12.0084 4.39485 11.9192 4.56759 11.9192 5.04826V6.54219H13.7433C14.1133 6.54219 14.4034 6.93924 14.37 7.3998L14.1826 9.97981C14.1532 10.385 13.8815 10.6952 13.556 10.6952H11.9191L11.9191 19.2135C11.9191 19.6479 11.6373 20 11.2898 20H8.66336C8.31585 20 8.03414 19.6479 8.03414 19.2135V10.6952H6.62921C6.28171 10.6952 6 10.3431 6 9.90871V7.3287C6 6.89432 6.28171 6.54219 6.62921 6.54219H8.03407V4.94832C8.03407 3.60055 8.27036 2.33358 8.98141 1.40801Z" fill="url(#paint0_linear_263_4865)"/>
</g>
<defs>
<linearGradient id="paint0_linear_263_4865" x1="15.0361" y1="-8.34" x2="-11.2686" y2="2.33497" gradientUnits="userSpaceOnUse">
<stop stop-color="#C3C3C3"/>
<stop offset="0.568534" stop-color="#878787"/>
</linearGradient>
<clipPath id="clip0_263_4865">
<rect width="20" height="20" fill="white"/>
</clipPath>
</defs>
</svg>
