<svg width="28" height="28" viewBox="0 0 28 28" fill="none" xmlns="http://www.w3.org/2000/svg">
<path d="M23.1666 14H20.6666V9.00004C20.6666 8.08004 19.9199 7.33337 18.9999 7.33337H13.9999V4.83337C13.9999 3.45337 12.8799 2.33337 11.4999 2.33337C10.1199 2.33337 8.99992 3.45337 8.99992 4.83337V7.33337H3.99992C3.07992 7.33337 2.33325 8.08004 2.33325 9.00004V14H4.83325C6.21325 14 7.33325 15.12 7.33325 16.5C7.33325 17.88 6.21325 19 4.83325 19H2.33325V24C2.33325 24.92 3.07992 25.6667 3.99992 25.6667H8.99992V23.1667C8.99992 21.7867 10.1199 20.6667 11.4999 20.6667C12.8799 20.6667 13.9999 21.7867 13.9999 23.1667V25.6667H18.9999C19.9199 25.6667 20.6666 24.92 20.6666 24V19H23.1666C24.5466 19 25.6666 17.88 25.6666 16.5C25.6666 15.12 24.5466 14 23.1666 14Z" stroke="url(#paint0_linear_234_1497)" stroke-width="1.25" stroke-linejoin="round"/>
<defs>
<linearGradient id="paint0_linear_234_1497" x1="38.8924" y1="-12.5357" x2="-16.4841" y2="35.181" gradientUnits="userSpaceOnUse">
<stop offset="0.211426" stop-color="#A3A3A3"/>
<stop offset="0.703566" stop-color="#454545"/>
</linearGradient>
</defs>
</svg>
