<svg width="24" height="24" viewBox="0 0 24 24" fill="none" xmlns="http://www.w3.org/2000/svg">
<path fill-rule="evenodd" clip-rule="evenodd" d="M1.56312 5.73609H10.4369C11.3017 5.73609 12 5.0378 12 4.17298C12 3.30816 11.3017 2.60986 10.4369 2.60986H1.56312C0.698299 2.60986 0 3.30816 0 4.17298C0 5.0378 0.698299 5.73609 1.56312 5.73609ZM1.56312 13.5625H22.4369C23.3017 13.5625 24 12.8642 24 11.9993C24 11.1345 23.3017 10.4362 22.4369 10.4362H1.56312C0.698299 10.4362 0 11.1345 0 11.9993C0 12.8642 0.698299 13.5625 1.56312 13.5625ZM22.4369 21.3944H13.5631C12.6983 21.3944 12 20.6961 12 19.8313C12 18.9665 12.6983 18.2682 13.5631 18.2682H22.4369C23.3017 18.2682 24 18.9665 24 19.8313C24 20.6961 23.3017 21.3944 22.4369 21.3944Z" fill="white"/>
</svg>
