<svg width="28" height="28" viewBox="0 0 28 28" fill="none" xmlns="http://www.w3.org/2000/svg">
<path fill-rule="evenodd" clip-rule="evenodd" d="M7.33316 4.02236C9.30655 2.70379 11.6266 2 14 2C17.1826 2 20.2348 3.26428 22.4853 5.51472C24.7357 7.76515 26 10.8174 26 14C26 16.3734 25.2962 18.6934 23.9776 20.6668C22.6591 22.6402 20.7849 24.1783 18.5922 25.0865C16.3995 25.9948 13.9867 26.2324 11.6589 25.7694C9.33115 25.3064 7.19295 24.1635 5.51472 22.4853C3.83649 20.807 2.6936 18.6689 2.23058 16.3411C1.76756 14.0133 2.0052 11.6005 2.91345 9.4078C3.8217 7.21508 5.35977 5.34094 7.33316 4.02236ZM7.9417 4.9331C9.73496 3.73488 11.8433 3.09533 14 3.09533C16.8921 3.09533 19.6657 4.24422 21.7108 6.28924C23.7558 8.33426 24.9047 11.1079 24.9047 14C24.9047 16.1567 24.2651 18.265 23.0669 20.0583C21.8687 21.8516 20.1656 23.2492 18.173 24.0746C16.1805 24.8999 13.9879 25.1159 11.8726 24.6951C9.75731 24.2744 7.81429 23.2358 6.28924 21.7108C4.7642 20.1857 3.72563 18.2427 3.30487 16.1274C2.88411 14.0121 3.10006 11.8195 3.92541 9.82696C4.75076 7.8344 6.14843 6.13132 7.9417 4.9331Z" fill="#ED0D32"/>
<path fill-rule="evenodd" clip-rule="evenodd" d="M21.3678 14.2286C21.3376 14.3009 21.2934 14.3666 21.2377 14.4218L16.5287 19.1309L15.6849 18.2871L19.3849 14.5941H6.59082V13.4062H19.3849L15.6849 9.71319L16.5287 8.86938L21.2377 13.5785C21.2934 13.6337 21.3376 13.6994 21.3678 13.7717C21.3979 13.8441 21.4134 13.9217 21.4134 14.0001C21.4134 14.0786 21.3979 14.1562 21.3678 14.2286Z" fill="#ED0D32"/>
</svg>
