<svg width="20" height="20" viewBox="0 0 20 20" fill="none" xmlns="http://www.w3.org/2000/svg">
<path d="M10.0001 1.66663C12.2642 1.66663 12.5467 1.67496 13.4351 1.71663C14.3226 1.75829 14.9267 1.89746 15.4584 2.10413C16.0084 2.31579 16.4717 2.60246 16.9351 3.06496C17.3588 3.48154 17.6867 3.98545 17.8959 4.54163C18.1017 5.07246 18.2417 5.67746 18.2834 6.56496C18.3226 7.45329 18.3334 7.73579 18.3334 9.99996C18.3334 12.2641 18.3251 12.5466 18.2834 13.435C18.2417 14.3225 18.1017 14.9266 17.8959 15.4583C17.6873 16.0148 17.3593 16.5188 16.9351 16.935C16.5184 17.3586 16.0145 17.6864 15.4584 17.8958C14.9276 18.1016 14.3226 18.2416 13.4351 18.2833C12.5467 18.3225 12.2642 18.3333 10.0001 18.3333C7.73591 18.3333 7.45341 18.325 6.56508 18.2833C5.67758 18.2416 5.07341 18.1016 4.54175 17.8958C3.98535 17.687 3.48135 17.3591 3.06508 16.935C2.64125 16.5184 2.31336 16.0145 2.10425 15.4583C1.89758 14.9275 1.75841 14.3225 1.71675 13.435C1.67758 12.5466 1.66675 12.2641 1.66675 9.99996C1.66675 7.73579 1.67508 7.45329 1.71675 6.56496C1.75841 5.67663 1.89758 5.07329 2.10425 4.54163C2.31278 3.98511 2.64075 3.48106 3.06508 3.06496C3.48147 2.64099 3.98544 2.31307 4.54175 2.10413C5.07341 1.89746 5.67675 1.75829 6.56508 1.71663C7.45341 1.67746 7.73591 1.66663 10.0001 1.66663ZM10.0001 5.83329C8.89501 5.83329 7.8352 6.27228 7.0538 7.05368C6.2724 7.83508 5.83341 8.89489 5.83341 9.99996C5.83341 11.105 6.2724 12.1648 7.0538 12.9462C7.8352 13.7276 8.89501 14.1666 10.0001 14.1666C11.1052 14.1666 12.165 13.7276 12.9464 12.9462C13.7278 12.1648 14.1667 11.105 14.1667 9.99996C14.1667 8.89489 13.7278 7.83508 12.9464 7.05368C12.165 6.27228 11.1052 5.83329 10.0001 5.83329ZM15.4167 5.62496C15.4167 5.34869 15.307 5.08374 15.1117 4.88839C14.9163 4.69304 14.6513 4.58329 14.3751 4.58329C14.0988 4.58329 13.8339 4.69304 13.6385 4.88839C13.4432 5.08374 13.3334 5.34869 13.3334 5.62496C13.3334 5.90123 13.4432 6.16618 13.6385 6.36153C13.8339 6.55688 14.0988 6.66663 14.3751 6.66663C14.6513 6.66663 14.9163 6.55688 15.1117 6.36153C15.307 6.16618 15.4167 5.90123 15.4167 5.62496ZM10.0001 7.49996C10.6631 7.49996 11.299 7.76335 11.7678 8.23219C12.2367 8.70103 12.5001 9.33692 12.5001 9.99996C12.5001 10.663 12.2367 11.2989 11.7678 11.7677C11.299 12.2366 10.6631 12.5 10.0001 12.5C9.33704 12.5 8.70115 12.2366 8.23231 11.7677C7.76347 11.2989 7.50008 10.663 7.50008 9.99996C7.50008 9.33692 7.76347 8.70103 8.23231 8.23219C8.70115 7.76335 9.33704 7.49996 10.0001 7.49996Z" fill="url(#paint0_linear_324_1175)"/>
<defs>
<linearGradient id="paint0_linear_324_1175" x1="18.3334" y1="1.66663" x2="0.747994" y2="2.70011" gradientUnits="userSpaceOnUse">
<stop offset="0.116871" stop-color="#D81D3C"/>
<stop offset="0.501727" stop-color="#981329"/>
<stop offset="0.897367" stop-color="#D81D3C"/>
</linearGradient>
</defs>
</svg>
