<svg width="20" height="20" viewBox="0 0 20 20" fill="none" xmlns="http://www.w3.org/2000/svg">
<path d="M10.0001 1.66675C12.2642 1.66675 12.5467 1.67508 13.4351 1.71675C14.3226 1.75841 14.9267 1.89758 15.4584 2.10425C16.0084 2.31591 16.4717 2.60258 16.9351 3.06508C17.3588 3.48166 17.6867 3.98557 17.8959 4.54175C18.1017 5.07258 18.2417 5.67758 18.2834 6.56508C18.3226 7.45341 18.3334 7.73591 18.3334 10.0001C18.3334 12.2642 18.3251 12.5467 18.2834 13.4351C18.2417 14.3226 18.1017 14.9267 17.8959 15.4584C17.6873 16.0149 17.3593 16.5189 16.9351 16.9351C16.5184 17.3587 16.0145 17.6865 15.4584 17.8959C14.9276 18.1017 14.3226 18.2417 13.4351 18.2834C12.5467 18.3226 12.2642 18.3334 10.0001 18.3334C7.73591 18.3334 7.45341 18.3251 6.56508 18.2834C5.67758 18.2417 5.07341 18.1017 4.54175 17.8959C3.98535 17.6871 3.48135 17.3592 3.06508 16.9351C2.64125 16.5186 2.31336 16.0146 2.10425 15.4584C1.89758 14.9276 1.75841 14.3226 1.71675 13.4351C1.67758 12.5467 1.66675 12.2642 1.66675 10.0001C1.66675 7.73591 1.67508 7.45341 1.71675 6.56508C1.75841 5.67675 1.89758 5.07341 2.10425 4.54175C2.31278 3.98523 2.64075 3.48118 3.06508 3.06508C3.48147 2.64111 3.98544 2.31319 4.54175 2.10425C5.07341 1.89758 5.67675 1.75841 6.56508 1.71675C7.45341 1.67758 7.73591 1.66675 10.0001 1.66675ZM10.0001 5.83341C8.89501 5.83341 7.8352 6.2724 7.0538 7.0538C6.2724 7.8352 5.83341 8.89501 5.83341 10.0001C5.83341 11.1052 6.2724 12.165 7.0538 12.9464C7.8352 13.7278 8.89501 14.1667 10.0001 14.1667C11.1052 14.1667 12.165 13.7278 12.9464 12.9464C13.7278 12.165 14.1667 11.1052 14.1667 10.0001C14.1667 8.89501 13.7278 7.8352 12.9464 7.0538C12.165 6.2724 11.1052 5.83341 10.0001 5.83341ZM15.4167 5.62508C15.4167 5.34881 15.307 5.08386 15.1117 4.88851C14.9163 4.69316 14.6513 4.58341 14.3751 4.58341C14.0988 4.58341 13.8339 4.69316 13.6385 4.88851C13.4432 5.08386 13.3334 5.34881 13.3334 5.62508C13.3334 5.90135 13.4432 6.1663 13.6385 6.36165C13.8339 6.557 14.0988 6.66675 14.3751 6.66675C14.6513 6.66675 14.9163 6.557 15.1117 6.36165C15.307 6.1663 15.4167 5.90135 15.4167 5.62508ZM10.0001 7.50008C10.6631 7.50008 11.299 7.76347 11.7678 8.23231C12.2367 8.70115 12.5001 9.33704 12.5001 10.0001C12.5001 10.6631 12.2367 11.299 11.7678 11.7678C11.299 12.2367 10.6631 12.5001 10.0001 12.5001C9.33704 12.5001 8.70115 12.2367 8.23231 11.7678C7.76347 11.299 7.50008 10.6631 7.50008 10.0001C7.50008 9.33704 7.76347 8.70115 8.23231 8.23231C8.70115 7.76347 9.33704 7.50008 10.0001 7.50008Z" fill="url(#paint0_linear_263_4857)"/>
<defs>
<linearGradient id="paint0_linear_263_4857" x1="19.5334" y1="-5.28325" x2="-11.8999" y2="24.9834" gradientUnits="userSpaceOnUse">
<stop stop-color="#C3C3C3"/>
<stop offset="0.568534" stop-color="#878787"/>
</linearGradient>
</defs>
</svg>
