<svg width="28" height="28" viewBox="0 0 28 28" fill="none" xmlns="http://www.w3.org/2000/svg">
<path fill-rule="evenodd" clip-rule="evenodd" d="M8.22867 2.87254H3.59158L10.8937 10.1848C11.0939 10.3853 11.0939 10.6723 10.8937 10.8728C10.694 11.0728 10.4091 11.0728 10.2093 10.8728L2.90497 3.55821V8.20272C2.90497 8.47325 2.67165 8.70564 2.4037 8.70564C2.13576 8.70564 1.90244 8.47325 1.90244 8.20272V2.36962C1.90244 2.09908 2.13576 1.8667 2.4037 1.8667H8.22867C8.49662 1.8667 8.72994 2.09909 8.72994 2.36962C8.72994 2.64014 8.49662 2.87254 8.22867 2.87254ZM25.1308 8.20272V3.55821L17.8265 10.8728C17.6267 11.0728 17.3418 11.0728 17.1421 10.8728C16.9419 10.6723 16.9419 10.3853 17.1421 10.1848L24.4442 2.87254H19.8071C19.5454 2.87254 19.3164 2.65069 19.3062 2.38784C19.3336 2.07893 19.5973 1.8667 19.8071 1.8667H25.6321C25.9 1.8667 26.1334 2.09908 26.1334 2.36962V8.20272C26.1334 8.47325 25.9 8.70564 25.6321 8.70564C25.3642 8.70564 25.1308 8.47325 25.1308 8.20272ZM10.8579 17.8152L3.55584 25.1275H8.19294C8.46088 25.1275 8.69421 25.3599 8.69421 25.6304C8.69421 25.901 8.46088 26.1334 8.19294 26.1334H2.36797C2.10002 26.1334 1.8667 25.901 1.8667 25.6304V19.7973C1.8667 19.5268 2.10002 19.2944 2.36797 19.2944C2.63592 19.2944 2.86924 19.5268 2.86924 19.7973V24.4419L10.1621 17.1389C10.3772 16.9481 10.7052 16.9743 10.8579 17.1273C11.0582 17.3278 11.0582 17.6147 10.8579 17.8152ZM17.1421 17.8152C16.9893 17.6622 16.9628 17.3337 17.152 17.1176C17.3509 16.9276 17.6298 16.9303 17.8265 17.1273L25.1308 24.4419V19.7973C25.1308 19.5268 25.3642 19.2944 25.6321 19.2944C25.9 19.2944 26.1334 19.5268 26.1334 19.7973V25.6304C26.1334 25.901 25.9 26.1334 25.6321 26.1334H19.8071C19.5392 26.1334 19.3059 25.901 19.3059 25.6304C19.3059 25.3599 19.5392 25.1275 19.8071 25.1275H24.4442L17.1421 17.8152Z" fill="url(#paint0_linear_234_1549)"/>
<mask id="path-2-outside-1_234_1549" maskUnits="userSpaceOnUse" x="0.820068" y="0.820068" width="26" height="26" fill="black">
<rect fill="white" x="0.820068" y="0.820068" width="26" height="26"/>
<path fill-rule="evenodd" clip-rule="evenodd" d="M19.2598 2.38375C19.2745 2.21685 19.3532 2.07639 19.456 1.97778C19.5581 1.87986 19.6875 1.82007 19.8072 1.82007H25.6321C25.9259 1.82007 26.1801 2.07339 26.1801 2.36965V8.20275C26.1801 8.49902 25.9259 8.75234 25.6321 8.75234C25.3384 8.75234 25.0842 8.49902 25.0842 8.20275V3.67102L17.8595 10.9058C17.6416 11.124 17.3271 11.124 17.1091 10.9058C16.8907 10.6871 16.8907 10.3706 17.1091 10.1519L24.3317 2.91924H19.8072C19.5202 2.91924 19.2707 2.67732 19.2596 2.38967L19.2598 2.38375ZM24.4443 2.87257L17.1422 10.1849C16.9419 10.3854 16.9419 10.6723 17.1422 10.8728C17.3419 11.0728 17.6268 11.0728 17.8265 10.8728L25.1309 3.55825V8.20275C25.1309 8.47329 25.3642 8.70567 25.6321 8.70567C25.9001 8.70567 26.1334 8.47329 26.1334 8.20275V2.36965C26.1334 2.09912 25.9001 1.86674 25.6321 1.86674H19.8072C19.5973 1.86674 19.3336 2.07897 19.3062 2.38787C19.3164 2.65072 19.5455 2.87257 19.8072 2.87257H24.4443ZM10.1311 17.104C10.2485 16.9999 10.396 16.9556 10.5341 16.9575C10.6715 16.9595 10.8043 17.0075 10.891 17.0943C11.1094 17.3131 11.1094 17.6295 10.891 17.8483L3.66843 25.0809H8.19298C8.48674 25.0809 8.74091 25.3342 8.74091 25.6305C8.74091 25.9267 8.48674 26.1801 8.19298 26.1801H2.368C2.07424 26.1801 1.82007 25.9267 1.82007 25.6305V19.7974C1.82007 19.5011 2.07424 19.2478 2.368 19.2478C2.66177 19.2478 2.91595 19.5011 2.91595 19.7974V24.3291L10.1311 17.104ZM2.86928 24.4419V19.7974C2.86928 19.5269 2.63595 19.2945 2.368 19.2945C2.10006 19.2945 1.86674 19.5268 1.86674 19.7974V25.6305C1.86674 25.901 2.10006 26.1334 2.368 26.1334H8.19298C8.46092 26.1334 8.69424 25.901 8.69424 25.6305C8.69424 25.3599 8.46092 25.1276 8.19298 25.1276H3.55588L10.858 17.8153C11.0582 17.6148 11.0582 17.3278 10.858 17.1273C10.7052 16.9744 10.3772 16.9481 10.1621 17.1389L2.86928 24.4419ZM17.1198 17.0839C17.3371 16.8763 17.645 16.8795 17.8595 17.0943L25.0842 24.3291V19.7974C25.0842 19.5011 25.3384 19.2478 25.6321 19.2478C25.9259 19.2478 26.1801 19.5011 26.1801 19.7974V25.6305C26.1801 25.9267 25.9259 26.1801 25.6321 26.1801H19.8072C19.5134 26.1801 19.2592 25.9267 19.2592 25.6305C19.2592 25.3342 19.5134 25.0809 19.8072 25.0809H24.3317L17.1091 17.8483C17.0224 17.7614 16.9744 17.6285 16.9722 17.4909C16.9699 17.3526 17.0137 17.2048 17.1169 17.0869L17.1198 17.0839ZM24.4443 25.1276H19.8072C19.5392 25.1276 19.3059 25.36 19.3059 25.6305C19.3059 25.901 19.5392 26.1334 19.8072 26.1334H25.6321C25.9001 26.1334 26.1334 25.901 26.1334 25.6305V19.7974C26.1334 19.5268 25.9001 19.2945 25.6321 19.2945C25.3642 19.2945 25.1309 19.5268 25.1309 19.7974V24.4419L17.8265 17.1273C17.6298 16.9304 17.3509 16.9276 17.152 17.1177C16.9628 17.3338 16.9894 17.6623 17.1422 17.8153L24.4443 25.1276ZM3.59162 2.87257L10.8937 10.1849C11.0939 10.3854 11.0939 10.6723 10.8937 10.8728C10.694 11.0728 10.4091 11.0728 10.2094 10.8728L2.90501 3.55825V8.20275C2.90501 8.47329 2.67169 8.70567 2.40374 8.70567C2.1358 8.70567 1.90247 8.47329 1.90247 8.20275V2.36965C1.90247 2.09912 2.1358 1.86674 2.40374 1.86674H8.2287C8.49665 1.86674 8.72998 2.09913 8.72998 2.36965C8.72998 2.64018 8.49665 2.87257 8.2287 2.87257H3.59162ZM3.70417 2.91924H8.2287C8.52247 2.91924 8.77665 2.66591 8.77665 2.36965C8.77665 2.0734 8.52247 1.82007 8.2287 1.82007H2.40374C2.10998 1.82007 1.85581 2.07339 1.85581 2.36965V8.20275C1.85581 8.49902 2.10998 8.75234 2.40374 8.75234C2.6975 8.75234 2.95167 8.49902 2.95167 8.20275V3.67102L10.1764 10.9058C10.3943 11.124 10.7088 11.124 10.9267 10.9058C11.1452 10.6871 11.1452 10.3706 10.9267 10.1519L3.70417 2.91924Z"/>
</mask>
<path fill-rule="evenodd" clip-rule="evenodd" d="M19.2598 2.38375C19.2745 2.21685 19.3532 2.07639 19.456 1.97778C19.5581 1.87986 19.6875 1.82007 19.8072 1.82007H25.6321C25.9259 1.82007 26.1801 2.07339 26.1801 2.36965V8.20275C26.1801 8.49902 25.9259 8.75234 25.6321 8.75234C25.3384 8.75234 25.0842 8.49902 25.0842 8.20275V3.67102L17.8595 10.9058C17.6416 11.124 17.3271 11.124 17.1091 10.9058C16.8907 10.6871 16.8907 10.3706 17.1091 10.1519L24.3317 2.91924H19.8072C19.5202 2.91924 19.2707 2.67732 19.2596 2.38967L19.2598 2.38375ZM24.4443 2.87257L17.1422 10.1849C16.9419 10.3854 16.9419 10.6723 17.1422 10.8728C17.3419 11.0728 17.6268 11.0728 17.8265 10.8728L25.1309 3.55825V8.20275C25.1309 8.47329 25.3642 8.70567 25.6321 8.70567C25.9001 8.70567 26.1334 8.47329 26.1334 8.20275V2.36965C26.1334 2.09912 25.9001 1.86674 25.6321 1.86674H19.8072C19.5973 1.86674 19.3336 2.07897 19.3062 2.38787C19.3164 2.65072 19.5455 2.87257 19.8072 2.87257H24.4443ZM10.1311 17.104C10.2485 16.9999 10.396 16.9556 10.5341 16.9575C10.6715 16.9595 10.8043 17.0075 10.891 17.0943C11.1094 17.3131 11.1094 17.6295 10.891 17.8483L3.66843 25.0809H8.19298C8.48674 25.0809 8.74091 25.3342 8.74091 25.6305C8.74091 25.9267 8.48674 26.1801 8.19298 26.1801H2.368C2.07424 26.1801 1.82007 25.9267 1.82007 25.6305V19.7974C1.82007 19.5011 2.07424 19.2478 2.368 19.2478C2.66177 19.2478 2.91595 19.5011 2.91595 19.7974V24.3291L10.1311 17.104ZM2.86928 24.4419V19.7974C2.86928 19.5269 2.63595 19.2945 2.368 19.2945C2.10006 19.2945 1.86674 19.5268 1.86674 19.7974V25.6305C1.86674 25.901 2.10006 26.1334 2.368 26.1334H8.19298C8.46092 26.1334 8.69424 25.901 8.69424 25.6305C8.69424 25.3599 8.46092 25.1276 8.19298 25.1276H3.55588L10.858 17.8153C11.0582 17.6148 11.0582 17.3278 10.858 17.1273C10.7052 16.9744 10.3772 16.9481 10.1621 17.1389L2.86928 24.4419ZM17.1198 17.0839C17.3371 16.8763 17.645 16.8795 17.8595 17.0943L25.0842 24.3291V19.7974C25.0842 19.5011 25.3384 19.2478 25.6321 19.2478C25.9259 19.2478 26.1801 19.5011 26.1801 19.7974V25.6305C26.1801 25.9267 25.9259 26.1801 25.6321 26.1801H19.8072C19.5134 26.1801 19.2592 25.9267 19.2592 25.6305C19.2592 25.3342 19.5134 25.0809 19.8072 25.0809H24.3317L17.1091 17.8483C17.0224 17.7614 16.9744 17.6285 16.9722 17.4909C16.9699 17.3526 17.0137 17.2048 17.1169 17.0869L17.1198 17.0839ZM24.4443 25.1276H19.8072C19.5392 25.1276 19.3059 25.36 19.3059 25.6305C19.3059 25.901 19.5392 26.1334 19.8072 26.1334H25.6321C25.9001 26.1334 26.1334 25.901 26.1334 25.6305V19.7974C26.1334 19.5268 25.9001 19.2945 25.6321 19.2945C25.3642 19.2945 25.1309 19.5268 25.1309 19.7974V24.4419L17.8265 17.1273C17.6298 16.9304 17.3509 16.9276 17.152 17.1177C16.9628 17.3338 16.9894 17.6623 17.1422 17.8153L24.4443 25.1276ZM3.59162 2.87257L10.8937 10.1849C11.0939 10.3854 11.0939 10.6723 10.8937 10.8728C10.694 11.0728 10.4091 11.0728 10.2094 10.8728L2.90501 3.55825V8.20275C2.90501 8.47329 2.67169 8.70567 2.40374 8.70567C2.1358 8.70567 1.90247 8.47329 1.90247 8.20275V2.36965C1.90247 2.09912 2.1358 1.86674 2.40374 1.86674H8.2287C8.49665 1.86674 8.72998 2.09913 8.72998 2.36965C8.72998 2.64018 8.49665 2.87257 8.2287 2.87257H3.59162ZM3.70417 2.91924H8.2287C8.52247 2.91924 8.77665 2.66591 8.77665 2.36965C8.77665 2.0734 8.52247 1.82007 8.2287 1.82007H2.40374C2.10998 1.82007 1.85581 2.07339 1.85581 2.36965V8.20275C1.85581 8.49902 2.10998 8.75234 2.40374 8.75234C2.6975 8.75234 2.95167 8.49902 2.95167 8.20275V3.67102L10.1764 10.9058C10.3943 11.124 10.7088 11.124 10.9267 10.9058C11.1452 10.6871 11.1452 10.3706 10.9267 10.1519L3.70417 2.91924Z" fill="url(#paint1_linear_234_1549)"/>
<path fill-rule="evenodd" clip-rule="evenodd" d="M19.2598 2.38375C19.2745 2.21685 19.3532 2.07639 19.456 1.97778C19.5581 1.87986 19.6875 1.82007 19.8072 1.82007H25.6321C25.9259 1.82007 26.1801 2.07339 26.1801 2.36965V8.20275C26.1801 8.49902 25.9259 8.75234 25.6321 8.75234C25.3384 8.75234 25.0842 8.49902 25.0842 8.20275V3.67102L17.8595 10.9058C17.6416 11.124 17.3271 11.124 17.1091 10.9058C16.8907 10.6871 16.8907 10.3706 17.1091 10.1519L24.3317 2.91924H19.8072C19.5202 2.91924 19.2707 2.67732 19.2596 2.38967L19.2598 2.38375ZM24.4443 2.87257L17.1422 10.1849C16.9419 10.3854 16.9419 10.6723 17.1422 10.8728C17.3419 11.0728 17.6268 11.0728 17.8265 10.8728L25.1309 3.55825V8.20275C25.1309 8.47329 25.3642 8.70567 25.6321 8.70567C25.9001 8.70567 26.1334 8.47329 26.1334 8.20275V2.36965C26.1334 2.09912 25.9001 1.86674 25.6321 1.86674H19.8072C19.5973 1.86674 19.3336 2.07897 19.3062 2.38787C19.3164 2.65072 19.5455 2.87257 19.8072 2.87257H24.4443ZM10.1311 17.104C10.2485 16.9999 10.396 16.9556 10.5341 16.9575C10.6715 16.9595 10.8043 17.0075 10.891 17.0943C11.1094 17.3131 11.1094 17.6295 10.891 17.8483L3.66843 25.0809H8.19298C8.48674 25.0809 8.74091 25.3342 8.74091 25.6305C8.74091 25.9267 8.48674 26.1801 8.19298 26.1801H2.368C2.07424 26.1801 1.82007 25.9267 1.82007 25.6305V19.7974C1.82007 19.5011 2.07424 19.2478 2.368 19.2478C2.66177 19.2478 2.91595 19.5011 2.91595 19.7974V24.3291L10.1311 17.104ZM2.86928 24.4419V19.7974C2.86928 19.5269 2.63595 19.2945 2.368 19.2945C2.10006 19.2945 1.86674 19.5268 1.86674 19.7974V25.6305C1.86674 25.901 2.10006 26.1334 2.368 26.1334H8.19298C8.46092 26.1334 8.69424 25.901 8.69424 25.6305C8.69424 25.3599 8.46092 25.1276 8.19298 25.1276H3.55588L10.858 17.8153C11.0582 17.6148 11.0582 17.3278 10.858 17.1273C10.7052 16.9744 10.3772 16.9481 10.1621 17.1389L2.86928 24.4419ZM17.1198 17.0839C17.3371 16.8763 17.645 16.8795 17.8595 17.0943L25.0842 24.3291V19.7974C25.0842 19.5011 25.3384 19.2478 25.6321 19.2478C25.9259 19.2478 26.1801 19.5011 26.1801 19.7974V25.6305C26.1801 25.9267 25.9259 26.1801 25.6321 26.1801H19.8072C19.5134 26.1801 19.2592 25.9267 19.2592 25.6305C19.2592 25.3342 19.5134 25.0809 19.8072 25.0809H24.3317L17.1091 17.8483C17.0224 17.7614 16.9744 17.6285 16.9722 17.4909C16.9699 17.3526 17.0137 17.2048 17.1169 17.0869L17.1198 17.0839ZM24.4443 25.1276H19.8072C19.5392 25.1276 19.3059 25.36 19.3059 25.6305C19.3059 25.901 19.5392 26.1334 19.8072 26.1334H25.6321C25.9001 26.1334 26.1334 25.901 26.1334 25.6305V19.7974C26.1334 19.5268 25.9001 19.2945 25.6321 19.2945C25.3642 19.2945 25.1309 19.5268 25.1309 19.7974V24.4419L17.8265 17.1273C17.6298 16.9304 17.3509 16.9276 17.152 17.1177C16.9628 17.3338 16.9894 17.6623 17.1422 17.8153L24.4443 25.1276ZM3.59162 2.87257L10.8937 10.1849C11.0939 10.3854 11.0939 10.6723 10.8937 10.8728C10.694 11.0728 10.4091 11.0728 10.2094 10.8728L2.90501 3.55825V8.20275C2.90501 8.47329 2.67169 8.70567 2.40374 8.70567C2.1358 8.70567 1.90247 8.47329 1.90247 8.20275V2.36965C1.90247 2.09912 2.1358 1.86674 2.40374 1.86674H8.2287C8.49665 1.86674 8.72998 2.09913 8.72998 2.36965C8.72998 2.64018 8.49665 2.87257 8.2287 2.87257H3.59162ZM3.70417 2.91924H8.2287C8.52247 2.91924 8.77665 2.66591 8.77665 2.36965C8.77665 2.0734 8.52247 1.82007 8.2287 1.82007H2.40374C2.10998 1.82007 1.85581 2.07339 1.85581 2.36965V8.20275C1.85581 8.49902 2.10998 8.75234 2.40374 8.75234C2.6975 8.75234 2.95167 8.49902 2.95167 8.20275V3.67102L10.1764 10.9058C10.3943 11.124 10.7088 11.124 10.9267 10.9058C11.1452 10.6871 11.1452 10.3706 10.9267 10.1519L3.70417 2.91924Z" stroke="url(#paint2_linear_234_1549)" stroke-width="0.3" mask="url(#path-2-outside-1_234_1549)"/>
<defs>
<linearGradient id="paint0_linear_234_1549" x1="39.8882" y1="-13.5972" x2="-17.7033" y2="36.0282" gradientUnits="userSpaceOnUse">
<stop offset="0.211426" stop-color="#A3A3A3"/>
<stop offset="0.703566" stop-color="#454545"/>
</linearGradient>
<linearGradient id="paint1_linear_234_1549" x1="39.9878" y1="-13.7033" x2="-17.8252" y2="36.113" gradientUnits="userSpaceOnUse">
<stop offset="0.211426" stop-color="#A3A3A3"/>
<stop offset="0.703566" stop-color="#454545"/>
</linearGradient>
<linearGradient id="paint2_linear_234_1549" x1="39.9878" y1="-13.7033" x2="-17.8252" y2="36.113" gradientUnits="userSpaceOnUse">
<stop offset="0.211426" stop-color="#A3A3A3"/>
<stop offset="0.703566" stop-color="#454545"/>
</linearGradient>
</defs>
</svg>
