<svg width="28" height="28" viewBox="0 0 28 28" fill="none" xmlns="http://www.w3.org/2000/svg">
<path fill-rule="evenodd" clip-rule="evenodd" d="M7.2719 11.0798C7.70135 11.0798 8.05922 11.0798 8.48867 11.2229C9.13284 8.78937 11.3517 7 13.9999 7C16.6482 7 18.867 8.78937 19.5827 11.2229C19.9406 11.0798 20.2985 11.0798 20.7279 11.0798C23.4478 11.0798 25.6666 13.2986 25.6666 16.0184C25.6666 18.7382 23.4478 20.9571 20.7279 20.9571C16.2187 20.9571 11.7811 20.9571 7.2719 20.9571C4.55207 20.9571 2.33325 18.7382 2.33325 16.0184C2.33325 13.2986 4.55207 11.0798 7.2719 11.0798Z" stroke="url(#paint0_linear_234_1493)" stroke-width="1.25" stroke-linejoin="round"/>
<path d="M11.0655 15.6605C10.4929 15.0879 11.3518 14.3006 11.8528 14.8016L13.1411 16.09L16.1473 13.0838C16.7199 12.5828 17.5072 13.3701 17.0062 13.9427L13.5706 17.3783C13.3559 17.593 12.998 17.593 12.7117 17.3783L11.0655 15.6605Z" fill="url(#paint1_linear_234_1493)"/>
<defs>
<linearGradient id="paint0_linear_234_1493" x1="38.8924" y1="-1.89409" x2="7.51445" y2="43.3074" gradientUnits="userSpaceOnUse">
<stop offset="0.211426" stop-color="#A3A3A3"/>
<stop offset="0.703566" stop-color="#454545"/>
</linearGradient>
<linearGradient id="paint1_linear_234_1493" x1="20.7312" y1="9.98319" x2="9.79806" y2="22.823" gradientUnits="userSpaceOnUse">
<stop offset="0.211426" stop-color="#A3A3A3"/>
<stop offset="0.703566" stop-color="#454545"/>
</linearGradient>
</defs>
</svg>
