<svg width="20" height="20" viewBox="0 0 20 20" fill="none" xmlns="http://www.w3.org/2000/svg">
<path d="M17.5 3.66343C17.3778 4.24775 17.2323 4.94518 17.0838 5.64937C16.3243 9.23265 15.5643 12.8157 14.8038 16.3984C14.7948 16.4399 14.7902 16.4822 14.7804 16.5229C14.7718 16.6932 14.7134 16.8572 14.6124 16.9946C14.5114 17.1321 14.3723 17.2369 14.2123 17.2961C14.0523 17.3552 13.8786 17.3661 13.7125 17.3274C13.5464 17.2888 13.3952 17.2023 13.2778 17.0786C12.4658 16.4928 11.6644 15.891 10.8592 15.2954C10.4347 14.9825 10.0034 14.6787 9.59104 14.3507C9.36485 14.1736 9.22462 14.2052 9.03312 14.4013C8.49555 14.9524 7.93836 15.4847 7.38873 16.023C7.27974 16.1595 7.13992 16.2682 6.98083 16.3403C6.82174 16.4123 6.64791 16.4457 6.47344 16.4376C6.37828 16.4355 6.28643 16.4022 6.21206 16.3428C6.13768 16.2835 6.08488 16.2013 6.06176 16.109C5.58225 14.6011 5.08687 13.1022 4.61792 11.5936C4.58698 11.4636 4.51991 11.345 4.42437 11.2515C4.32883 11.1581 4.20878 11.0937 4.07813 11.0657C2.91629 10.7227 1.76116 10.3571 0.609878 9.98763C0.343732 9.90243 0.0264055 9.82177 0.00152512 9.47269C-0.0233553 9.12361 0.260833 8.98107 0.514161 8.85818C1.24549 8.50382 2.02206 8.24978 2.77602 7.95724C7.28767 6.21411 11.8006 4.47346 16.3148 2.73535C16.9986 2.4677 17.503 2.81675 17.5 3.66343ZM6.57366 15.2788C6.64303 14.5249 6.6936 13.8011 6.78332 13.0811C6.82403 12.7539 6.75466 12.4025 7.07056 12.1243C8.90568 10.4943 10.7234 8.84462 12.5465 7.20025C13.1175 6.68556 13.6869 6.16882 14.2549 5.65011C14.3394 5.57471 14.4969 5.49251 14.3959 5.34851C14.3115 5.22561 14.1637 5.27315 14.0461 5.31537C13.9184 5.36333 13.7957 5.42369 13.6797 5.49558C10.9072 7.24223 8.13432 8.98815 5.36128 10.7333C5.31168 10.7546 5.26715 10.7861 5.23041 10.8256C5.19367 10.8652 5.16555 10.9119 5.14795 10.9629C5.13034 11.014 5.12361 11.0682 5.12816 11.122C5.1327 11.1758 5.14844 11.228 5.17436 11.2754C5.58979 12.5134 5.98785 13.7566 6.3965 14.9968C6.42741 15.085 6.42514 15.2034 6.57366 15.2788Z" fill="url(#paint0_linear_263_4859)"/>
<defs>
<linearGradient id="paint0_linear_263_4859" x1="18.76" y1="-3.48425" x2="-8.73415" y2="28.0253" gradientUnits="userSpaceOnUse">
<stop stop-color="#C3C3C3"/>
<stop offset="0.568534" stop-color="#878787"/>
</linearGradient>
</defs>
</svg>
