<svg width="20" height="20" viewBox="0 0 20 20" fill="none" xmlns="http://www.w3.org/2000/svg">
<path d="M17.5 3.66331C17.3778 4.24763 17.2323 4.94506 17.0838 5.64925C16.3243 9.23253 15.5643 12.8155 14.8038 16.3983C14.7948 16.4398 14.7902 16.482 14.7804 16.5227C14.7718 16.6931 14.7134 16.8571 14.6124 16.9945C14.5114 17.1319 14.3723 17.2368 14.2123 17.2959C14.0523 17.3551 13.8786 17.366 13.7125 17.3273C13.5464 17.2887 13.3952 17.2022 13.2778 17.0785C12.4658 16.4926 11.6644 15.8909 10.8592 15.2953C10.4347 14.9824 10.0034 14.6786 9.59104 14.3506C9.36485 14.1734 9.22462 14.2051 9.03312 14.4011C8.49555 14.9523 7.93836 15.4846 7.38873 16.0229C7.27974 16.1594 7.13992 16.2681 6.98083 16.3401C6.82174 16.4122 6.64791 16.4456 6.47344 16.4375C6.37828 16.4354 6.28643 16.4021 6.21206 16.3427C6.13768 16.2833 6.08488 16.2012 6.06176 16.1089C5.58225 14.601 5.08687 13.1021 4.61792 11.5934C4.58698 11.4634 4.51991 11.3448 4.42437 11.2514C4.32883 11.158 4.20878 11.0936 4.07813 11.0656C2.91629 10.7226 1.76116 10.3569 0.609878 9.98751C0.343732 9.90231 0.0264055 9.82165 0.00152512 9.47257C-0.0233553 9.12349 0.260833 8.98095 0.514161 8.85805C1.24549 8.5037 2.02206 8.24965 2.77602 7.95712C7.28767 6.21398 11.8006 4.47334 16.3148 2.73523C16.9986 2.46758 17.503 2.81662 17.5 3.66331ZM6.57366 15.2787C6.64303 14.5248 6.6936 13.801 6.78332 13.081C6.82403 12.7538 6.75466 12.4024 7.07056 12.1242C8.90568 10.4942 10.7234 8.8445 12.5465 7.20013C13.1175 6.68543 13.6869 6.1687 14.2549 5.64998C14.3394 5.57459 14.4969 5.49239 14.3959 5.34838C14.3115 5.22549 14.1637 5.27303 14.0461 5.31525C13.9184 5.36321 13.7957 5.42357 13.6797 5.49546C10.9072 7.24211 8.13432 8.98803 5.36128 10.7332C5.31168 10.7545 5.26715 10.7859 5.23041 10.8255C5.19367 10.865 5.16555 10.9118 5.14795 10.9628C5.13034 11.0138 5.12361 11.068 5.12816 11.1218C5.1327 11.1756 5.14844 11.2279 5.17436 11.2753C5.58979 12.5133 5.98785 13.7565 6.3965 14.9967C6.42741 15.0849 6.42514 15.2033 6.57366 15.2787Z" fill="url(#paint0_linear_324_1179)"/>
<defs>
<linearGradient id="paint0_linear_324_1179" x1="17.5" y1="2.64685" x2="-0.938251" y2="3.93658" gradientUnits="userSpaceOnUse">
<stop offset="0.116871" stop-color="#D81D3C"/>
<stop offset="0.501727" stop-color="#981329"/>
<stop offset="0.897367" stop-color="#D81D3C"/>
</linearGradient>
</defs>
</svg>
