<svg width="20" height="20" viewBox="0 0 20 20" fill="none" xmlns="http://www.w3.org/2000/svg">
<path d="M18.2721 5.22135C17.7336 5.45761 17.1677 5.62253 16.5881 5.71201C16.859 5.66517 17.2594 5.16452 17.4159 4.96181C17.6656 4.65382 17.8559 4.30031 17.9764 3.91994C17.9915 3.89 18.002 3.85233 17.9764 3.83006C17.9622 3.82382 17.9466 3.82132 17.9311 3.82266C17.9156 3.82399 17.9007 3.82914 17.8876 3.83775C17.2554 4.18197 16.5835 4.44427 15.8876 4.61859C15.8636 4.62627 15.8379 4.62689 15.8136 4.62037C15.7892 4.61385 15.7672 4.60048 15.7499 4.58175C15.6963 4.51642 15.6379 4.4553 15.5753 4.39898C15.2863 4.14518 14.959 3.94067 14.6062 3.79323C14.1352 3.59843 13.627 3.51496 13.12 3.54907C12.6273 3.58277 12.1471 3.72107 11.7099 3.95519C11.2714 4.18902 10.8842 4.51177 10.5721 4.90352C10.2493 5.30966 10.0182 5.78336 9.89498 6.29096C9.78872 6.77238 9.77637 7.2704 9.85879 7.75666C9.86933 7.83805 9.85885 7.84953 9.78963 7.83802C7.14302 7.56272 4.69222 6.28994 2.91658 4.26852C2.83607 4.17561 2.79246 4.17564 2.727 4.27545C2.37022 4.94804 2.23533 5.71997 2.34241 6.47691C2.44948 7.23386 2.79276 7.93544 3.32138 8.47761C3.45607 8.60737 3.59454 8.73793 3.74428 8.85618C3.2819 8.82076 2.83104 8.69207 2.41773 8.47761C2.33721 8.4254 2.29655 8.45538 2.28977 8.54828C2.28465 8.68254 2.292 8.81695 2.31163 8.94981C2.39266 9.58103 2.63641 10.1791 3.01808 10.6826C3.39975 11.1862 3.90563 11.5773 4.48397 11.8161C4.62518 11.8786 4.77281 11.9248 4.92414 11.9536C4.49573 12.041 4.05604 12.055 3.62312 11.995C3.52831 11.9766 3.49221 12.0242 3.52833 12.1179C3.75109 12.7125 4.1191 13.239 4.59741 13.6477C5.07573 14.0563 5.64846 14.3335 6.26125 14.4528C6.38541 14.4751 6.50883 14.475 6.63298 14.5042C6.62546 14.5157 6.61799 14.5157 6.61121 14.5272C6.08029 15.0155 5.43921 15.3621 4.74511 15.5361C3.83751 15.8667 2.87046 15.993 1.91051 15.9062C1.76002 15.8832 1.72621 15.8847 1.68483 15.9062C1.64344 15.9277 1.67955 15.97 1.72846 16.0099C1.92184 16.1404 2.11818 16.2556 2.31834 16.3669C2.92037 16.6944 3.55578 16.9537 4.2131 17.1402C5.90389 17.6592 7.69851 17.7165 9.4178 17.3063C11.1371 16.8962 12.7209 16.033 14.0109 14.8029C16.0185 12.7674 16.7198 9.9595 16.7198 7.14931C16.7198 7.03951 16.847 6.97815 16.923 6.91902C17.4306 6.5158 17.8778 6.03906 18.2504 5.50393C18.3084 5.42639 18.3374 5.33029 18.3323 5.23287V5.21825C18.3345 5.17679 18.3398 5.18986 18.2721 5.22135Z" fill="url(#paint0_linear_324_1171)"/>
<defs>
<linearGradient id="paint0_linear_324_1171" x1="18.3334" y1="3.54163" x2="0.772785" y2="4.76716" gradientUnits="userSpaceOnUse">
<stop offset="0.116871" stop-color="#D81D3C"/>
<stop offset="0.501727" stop-color="#981329"/>
<stop offset="0.897367" stop-color="#D81D3C"/>
</linearGradient>
</defs>
</svg>
