<svg width="20" height="20" viewBox="0 0 20 20" fill="none" xmlns="http://www.w3.org/2000/svg">
<path d="M18.2721 5.22147C17.7336 5.45774 17.1677 5.62265 16.5881 5.71213C16.859 5.66529 17.2594 5.16464 17.4159 4.96194C17.6656 4.65395 17.8559 4.30043 17.9764 3.92007C17.9915 3.89012 18.002 3.85245 17.9764 3.83018C17.9622 3.82394 17.9466 3.82144 17.9311 3.82278C17.9156 3.82412 17.9007 3.82926 17.8876 3.83787C17.2554 4.1821 16.5835 4.44439 15.8876 4.61871C15.8636 4.62639 15.8379 4.62701 15.8136 4.62049C15.7892 4.61397 15.7672 4.6006 15.7499 4.58187C15.6963 4.51654 15.6379 4.45542 15.5753 4.39911C15.2863 4.14531 14.959 3.94079 14.6062 3.79335C14.1352 3.59855 13.627 3.51508 13.12 3.54919C12.6273 3.5829 12.1471 3.72119 11.7099 3.95531C11.2714 4.18914 10.8842 4.51189 10.5721 4.90364C10.2493 5.30978 10.0182 5.78348 9.89498 6.29108C9.78872 6.7725 9.77637 7.27052 9.85879 7.75678C9.86933 7.83817 9.85885 7.84966 9.78963 7.83814C7.14302 7.56284 4.69222 6.29006 2.91658 4.26864C2.83607 4.17573 2.79246 4.17576 2.727 4.27557C2.37022 4.94816 2.23533 5.72009 2.34241 6.47704C2.44948 7.23398 2.79276 7.93556 3.32138 8.47773C3.45607 8.60749 3.59454 8.73805 3.74428 8.8563C3.2819 8.82088 2.83104 8.69219 2.41773 8.47773C2.33721 8.42552 2.29655 8.4555 2.28977 8.5484C2.28465 8.68266 2.292 8.81707 2.31163 8.94993C2.39266 9.58115 2.63641 10.1792 3.01808 10.6828C3.39975 11.1863 3.90563 11.5774 4.48397 11.8162C4.62518 11.8787 4.77281 11.9249 4.92414 11.9537C4.49573 12.0412 4.05604 12.0551 3.62312 11.9951C3.52831 11.9767 3.49221 12.0243 3.52833 12.118C3.75109 12.7126 4.1191 13.2392 4.59741 13.6478C5.07573 14.0565 5.64846 14.3337 6.26125 14.4529C6.38541 14.4752 6.50883 14.4751 6.63298 14.5043C6.62546 14.5158 6.61799 14.5158 6.61121 14.5273C6.08029 15.0156 5.43921 15.3622 4.74511 15.5362C3.83751 15.8668 2.87046 15.9931 1.91051 15.9064C1.76002 15.8833 1.72621 15.8849 1.68483 15.9064C1.64344 15.9279 1.67955 15.9701 1.72846 16.01C1.92184 16.1405 2.11818 16.2557 2.31834 16.367C2.92037 16.6945 3.55578 16.9538 4.2131 17.1403C5.90389 17.6593 7.69851 17.7166 9.4178 17.3065C11.1371 16.8963 12.7209 16.0331 14.0109 14.803C16.0185 12.7675 16.7198 9.95963 16.7198 7.14943C16.7198 7.03964 16.847 6.97827 16.923 6.91915C17.4306 6.51593 17.8778 6.03919 18.2504 5.50405C18.3084 5.42651 18.3374 5.33041 18.3323 5.233V5.21837C18.3345 5.17691 18.3398 5.18999 18.2721 5.22147Z" fill="url(#paint0_linear_263_4855)"/>
<defs>
<linearGradient id="paint0_linear_263_4855" x1="19.5334" y1="-2.31088" x2="-6.71954" y2="27.7074" gradientUnits="userSpaceOnUse">
<stop stop-color="#C3C3C3"/>
<stop offset="0.568534" stop-color="#878787"/>
</linearGradient>
</defs>
</svg>
