<svg width="200" height="200" viewBox="0 0 200 200" fill="none" xmlns="http://www.w3.org/2000/svg">
<rect width="200" height="200" rx="100" fill="white"/>
<path d="M170.201 59.1089C170.323 59.1807 170.425 59.2829 170.496 59.4055C170.567 59.528 170.604 59.6666 170.605 59.8075V139.813C170.604 140.028 170.547 140.24 170.438 140.427C170.328 140.615 170.171 140.771 169.982 140.881L101.675 180.303C101.314 180.511 100.906 180.62 100.491 180.62C100.076 180.62 99.6685 180.511 99.3104 180.303L30.743 140.747C30.5976 140.665 30.4766 140.545 30.3923 140.4C30.308 140.255 30.2635 140.09 30.2633 139.922V59.7738C30.2631 59.6433 30.298 59.5147 30.3645 59.4009C30.431 59.2871 30.5267 59.1922 30.642 59.1258L99.8575 19.1737C100.057 19.0585 100.283 18.9985 100.514 19C100.745 19.0015 100.971 19.0644 101.17 19.1821L170.201 59.1089ZM168.517 60.1694L100.691 21.0674C100.581 21.0038 100.456 20.9704 100.329 20.9704C100.202 20.9704 100.077 21.0038 99.9669 21.0674L32.3253 60.1441C32.2103 60.2076 32.1144 60.3013 32.0478 60.4153C31.9811 60.5293 31.9462 60.6595 31.9466 60.7922V138.946C31.9462 139.115 31.9903 139.28 32.0745 139.427C32.1588 139.573 32.2801 139.695 32.4263 139.779L100.017 178.822C100.127 178.886 100.252 178.919 100.379 178.919C100.506 178.919 100.631 178.886 100.741 178.822L168.425 139.754C168.576 139.667 168.701 139.541 168.788 139.389C168.875 139.236 168.921 139.063 168.921 138.887V60.8679C168.921 60.7248 168.884 60.5847 168.813 60.462C168.742 60.3392 168.64 60.2382 168.517 60.1694Z" fill="#192646"/>
<path d="M122.201 63.1182L121.272 63.6552C120.971 63.8326 120.744 64.043 120.626 64.2559L100.777 99.7861L57.8476 100.15L78.9164 62.9908C79.0518 62.7531 79.2494 62.5555 79.4892 62.418C79.729 62.2805 80.0024 62.2081 80.2815 62.2081C94.2485 62.2081 107.906 62.2081 121.254 62.2081C121.752 62.2081 122.067 62.5115 122.201 63.1182Z" fill="#26408B"/>
<path d="M122.201 63.1183L142.878 99.3585C142.945 99.4782 142.98 99.6136 142.98 99.7521C142.98 99.8906 142.945 100.028 142.878 100.15C136.04 112.509 129.069 124.793 121.964 137C121.806 137.279 121.615 137.446 121.391 137.501C121.13 137.574 120.857 137.567 120.572 137.483C121.039 136.761 120.981 135.92 120.399 134.962C115.211 126.328 108.671 114.603 100.777 99.7862L120.626 64.256C120.744 64.0431 120.971 63.8327 121.272 63.6553L122.201 63.1183Z" fill="#1C3166"/>
<path d="M100.777 99.7862C108.671 114.603 115.211 126.328 120.399 134.962C120.981 135.92 121.039 136.76 120.572 137.482L80.1086 137.519C79.8732 137.519 79.6418 137.456 79.4374 137.338C79.233 137.22 79.0628 137.05 78.9437 136.845L57.8476 100.15L100.777 99.7862Z" fill="#142142"/>
</svg>
