<svg width="32" height="32" viewBox="0 0 32 32" fill="none" xmlns="http://www.w3.org/2000/svg">
<rect width="32" height="32" rx="16" fill="black"/>
<path fill-rule="evenodd" clip-rule="evenodd" d="M18.0741 6.03077L25.6919 17.3421L25.6929 17.343C25.8931 17.6398 26.0001 17.9877 26.0001 18.3423V20.6802H21.3377L19.9685 18.6469C19.6043 18.1053 18.9869 17.7796 18.3254 17.7796H16.0835L10.3523 9.27152L10.951 8.38207C11.2681 7.90988 11.8717 7.62753 12.3792 7.62753C13.1184 7.62753 13.6518 7.69135 14.1813 7.7547C14.7029 7.8171 15.2207 7.87905 15.9275 7.87905C17.6825 7.87905 17.9288 6.3507 17.9465 6.0645C17.9504 5.99897 18.0368 5.97584 18.0741 6.03077ZM17.8022 10.5281C17.8022 10.5281 18.5197 12.1307 19.4404 12.4969C20.3611 12.863 20.9157 12.7031 20.9157 12.7031C20.9157 12.7031 19.6613 10.5281 17.8022 10.5281Z" fill="url(#paint0_linear_814_228)"/>
<path d="M10.3971 25H18.7894L18.7884 24.9991L9.30229 10.8324L9.30032 10.8343L5.32583 16.7493C4.89139 17.3961 4.89139 18.2367 5.32583 18.8836L8.89916 24.2076C9.23182 24.7031 9.79443 25.001 10.3971 25Z" fill="url(#paint1_linear_814_228)"/>
<defs>
<linearGradient id="paint0_linear_814_228" x1="11.8947" y1="10.8324" x2="11.8947" y2="25" gradientUnits="userSpaceOnUse">
<stop stop-color="#F63E58"/>
<stop offset="1" stop-color="#FCB124"/>
</linearGradient>
<linearGradient id="paint1_linear_814_228" x1="11.8947" y1="10.8324" x2="11.8947" y2="25" gradientUnits="userSpaceOnUse">
<stop stop-color="#F63E58"/>
<stop offset="1" stop-color="#FCB124"/>
</linearGradient>
</defs>
</svg>
