<?xml version="1.0" encoding="UTF-8"?>
<svg version="1.1" xmlns="http://www.w3.org/2000/svg" width="100" height="100">
<path d="M0 0 C33 0 66 0 100 0 C100 33 100 66 100 100 C67 100 34 100 0 100 C0 67 0 34 0 0 Z " fill="#FBFCFC" transform="translate(0,0)"/>
<path d="M0 0 C5.15129282 3.87035637 10.28393768 10.37033853 11.84765625 16.66015625 C11.99654297 17.74296875 11.99654297 17.74296875 12.1484375 18.84765625 C9.8384375 19.50765625 7.5284375 20.16765625 5.1484375 20.84765625 C4.808125 20.27917969 4.4678125 19.71070312 4.1171875 19.125 C-2.06916466 9.26961451 -9.39985335 2.86407381 -20.8515625 -0.15234375 C-29.6472957 -1.18606909 -37.21193386 -0.80395696 -44.8515625 3.84765625 C-45.8828125 4.42515625 -46.9140625 5.00265625 -47.9765625 5.59765625 C-56.30212125 12.11331092 -61.40259568 19.53339999 -62.7265625 30.03515625 C-63.2858245 34.05675848 -63.70194391 36.42732745 -66.8515625 39.09765625 C-69.8515625 40.84765625 -69.8515625 40.84765625 -71.8515625 40.84765625 C-72.63205402 25.99663713 -69.35686976 15.34050394 -59.4765625 4.16015625 C-41.02714809 -12.0928993 -20.88746063 -12.99957993 0 0 Z " fill="#091337" transform="translate(77.8515625,15.15234375)"/>
<path d="M0 0 C0.78932587 13.21389973 -2.59302166 24.15653643 -10.96875 34.41015625 C-19.8893309 44.09027936 -31.25757865 48.77506135 -44.25 49.375 C-57.05037411 49.08815688 -67.34565274 43.63910326 -76.375 34.9375 C-82.94123677 28.05671296 -82.94123677 28.05671296 -83.0625 23.8125 C-82 22 -82 22 -78.9375 20.75 C-77.968125 20.5025 -76.99875 20.255 -76 20 C-75.731875 20.49628906 -75.46375 20.99257812 -75.1875 21.50390625 C-70.13044599 30.27057554 -62.8696562 36.50433736 -53.15234375 39.5859375 C-42.21279987 41.69045955 -32.09798466 39.61823083 -22.9140625 33.5078125 C-14.94767622 27.23225106 -10.37375907 19.74007256 -9.125 9.75 C-8.3915192 4.46893825 -8.3915192 4.46893825 -6.6171875 2.34375 C-4.45084584 0.87859139 -2.64066026 0 0 0 Z " fill="#081236" transform="translate(94,45)"/>
<path d="M0 0 C-0.33 4.29 -0.66 8.58 -1 13 C1.47306641 11.59234375 1.47306641 11.59234375 3.99609375 10.15625 C6.1431657 8.93738819 8.29030456 7.71864425 10.4375 6.5 C11.52611328 5.87996094 12.61472656 5.25992188 13.73632812 4.62109375 C14.77080078 4.03457031 15.80527344 3.44804688 16.87109375 2.84375 C18.30859985 2.02680664 18.30859985 2.02680664 19.77514648 1.19335938 C22 0 22 0 23 0 C22.67 4.29 22.34 8.58 22 13 C23.98644531 12.33871094 25.97289063 11.67742188 28.01953125 10.99609375 C29.94550869 10.36337192 31.87150731 9.7307126 33.7980957 9.09985352 C35.13671995 8.65970231 36.47429965 8.21636108 37.81079102 7.76977539 C39.73176045 7.12850115 41.65685378 6.49962213 43.58203125 5.87109375 C44.73936768 5.48880615 45.8967041 5.10651855 47.08911133 4.71264648 C50 4 50 4 53 5 C51.87207031 5.58265625 50.74414062 6.1653125 49.58203125 6.765625 C39.47202508 12.02200317 29.51476061 17.48056221 19.6809082 23.23925781 C18.83616943 23.73006836 17.99143066 24.22087891 17.12109375 24.7265625 C16.3727124 25.16564941 15.62433105 25.60473633 14.85327148 26.05712891 C13 27 13 27 11 27 C11.47805979 22.90234467 11.97203526 18.99479534 13 15 C10.14542982 16.58260663 7.29141904 18.16621952 4.4375 19.75 C3.63763672 20.1934375 2.83777344 20.636875 2.01367188 21.09375 C-2.67641157 23.69722489 -7.34869505 26.32784091 -12 29 C-11.67 25.7 -11.34 22.4 -11 19 C-12.14214966 19.57500244 -12.14214966 19.57500244 -13.30737305 20.16162109 C-16.14867876 21.59082493 -18.99089898 23.01818922 -21.83374023 24.44433594 C-23.06099475 25.06046845 -24.28788837 25.67732038 -25.5144043 26.29492188 C-27.28337737 27.18551327 -29.05378442 28.07325455 -30.82421875 28.9609375 C-31.88729248 29.49509277 -32.95036621 30.02924805 -34.0456543 30.57958984 C-36.66487017 31.83887403 -39.28736432 32.96055836 -42 34 C-38.77269234 30.69172047 -35.47265517 27.64960267 -31.875 24.75 C-30.43253906 23.58210938 -30.43253906 23.58210938 -28.9609375 22.390625 C-27.98382813 21.60171875 -27.00671875 20.8128125 -26 20 C-24.16551602 18.50140745 -22.33216328 17.00142893 -20.5 15.5 C-19.6028125 14.76652344 -18.705625 14.03304687 -17.78125 13.27734375 C-15.84145315 11.68899886 -13.90414382 10.09761327 -11.96875 8.50390625 C-10.49921875 7.29541016 -10.49921875 7.29541016 -9 6.0625 C-8.113125 5.33160156 -7.22625 4.60070313 -6.3125 3.84765625 C-1.49682875 0 -1.49682875 0 0 0 Z " fill="#091237" transform="translate(44,33)"/>
<path d="M0 0 C-9.405 4.95 -9.405 4.95 -19 10 C-19.33 8.68 -19.66 7.36 -20 6 C-20.66 5.67 -21.32 5.34 -22 5 C-18.90045712 3.96473751 -15.79476539 2.94932433 -12.6875 1.9375 C-11.80642578 1.64294922 -10.92535156 1.34839844 -10.01757812 1.04492188 C-9.17001953 0.77099609 -8.32246094 0.49707031 -7.44921875 0.21484375 C-6.66893311 -0.04176025 -5.88864746 -0.29836426 -5.0847168 -0.56274414 C-3 -1 -3 -1 0 0 Z " fill="#121739" transform="translate(97,38)"/>
<path d="M0 0 C0.99 0.33 1.98 0.66 3 1 C2.70678711 2.86401367 2.70678711 2.86401367 2 5 C-0.47601032 6.6282618 -2.81007099 7.98544213 -5.4375 9.3125 C-6.13166016 9.68439453 -6.82582031 10.05628906 -7.54101562 10.43945312 C-9.32433661 11.36650382 -11.15982527 12.19165991 -13 13 C-13.66 12.67 -14.32 12.34 -15 12 C-12.57604379 9.96245224 -10.13386824 7.94805975 -7.6875 5.9375 C-6.99720703 5.35677734 -6.30691406 4.77605469 -5.59570312 4.17773438 C-4.92861328 3.63310547 -4.26152344 3.08847656 -3.57421875 2.52734375 C-2.96151123 2.01937256 -2.34880371 1.51140137 -1.7175293 0.98803711 C-1.15074463 0.66198486 -0.58395996 0.33593262 0 0 Z " fill="#1A1E3A" transform="translate(17,54)"/>
<path d="M0 0 C0.66 0 1.32 0 2 0 C2.144375 0.9075 2.28875 1.815 2.4375 2.75 C2.88744201 5.85976531 2.88744201 5.85976531 3.75 8.1875 C4 10 4 10 2.6875 11.75 C1 13 1 13 -1 13 C-0.67 8.71 -0.34 4.42 0 0 Z " fill="#1A203F" transform="translate(56,47)"/>
<path d="M0 0 C0.66 0 1.32 0 2 0 C2 3.63 2 7.26 2 11 C2.66 11.33 3.32 11.66 4 12 C2.02 12.99 2.02 12.99 0 14 C0 9.38 0 4.76 0 0 Z " fill="#272948" transform="translate(6,42)"/>
<path d="M0 0 C-3.96 1.98 -7.92 3.96 -12 6 C-12 5.34 -12 4.68 -12 4 C-12.99 3.67 -13.98 3.34 -15 3 C-13.06643218 2.30151736 -11.12797702 1.61655186 -9.1875 0.9375 C-8.10855469 0.55464844 -7.02960938 0.17179687 -5.91796875 -0.22265625 C-3 -1 -3 -1 0 0 Z " fill="#2F3148" transform="translate(97,38)"/>
<path d="M0 0 C0.66 0 1.32 0 2 0 C2.33 2.97 2.66 5.94 3 9 C2.01 9.66 1.02 10.32 0 11 C0 7.37 0 3.74 0 0 Z " fill="#383C54" transform="translate(32,51)"/>
</svg>
