<svg width="32" height="32" viewBox="0 0 32 32" fill="none" xmlns="http://www.w3.org/2000/svg">
<rect width="32" height="32" rx="16" fill="black"/>
<path d="M6.33565 24.4519C6.11188 24.9003 6 25.1993 6 25.3488C6 25.7829 6.32167 26 6.965 26C7.60833 26 8.08733 25.6975 8.402 25.0926C8.73765 24.4306 9.08029 23.6227 9.42993 22.6691C9.78656 21.7153 10.2481 20.1887 10.8145 18.0889L11.6746 14.9929C12.2899 14.9288 12.9612 14.8968 13.6885 14.8968L15.0205 14.9501C15.4122 14.9501 15.608 14.7473 15.608 14.3417C15.608 13.9359 15.4017 13.5944 14.9891 13.3167C14.8073 13.1957 14.6045 13.1032 14.3807 13.0392C14.157 12.968 13.8983 12.9324 13.6046 12.9324C13.3179 12.9324 12.8564 12.9822 12.22 13.0819L13.206 9.67616C13.3598 9.15658 13.5137 8.67971 13.6675 8.24555C14.185 6.82918 14.7514 6.121 15.3667 6.121C15.8143 6.121 16.0381 6.41281 16.0381 6.99644C16.0381 7.1459 16.0136 7.29893 15.9646 7.45551C15.8108 7.95373 15.5416 8.35231 15.157 8.65124C14.9472 8.77936 14.8423 8.9217 14.8423 9.07828C14.8423 9.17082 14.8703 9.2847 14.9261 9.41993C15.129 9.94662 15.5136 10.21 16.08 10.21C16.5345 10.21 16.9471 9.97153 17.3177 9.49466C17.7582 8.91815 17.9785 8.23843 17.9785 7.45551C17.9785 6.70107 17.7408 6.1032 17.2653 5.66192C16.7898 5.22064 16.1464 5 15.3352 5C14.2375 5 13.3249 5.44839 12.5976 6.34519C12.269 6.758 11.9823 7.242 11.7375 7.79715C11.4928 8.34519 11.2725 8.92527 11.0767 9.53736C10.8879 10.1495 10.7061 10.7794 10.5313 11.427C10.3635 12.0676 10.1851 12.6868 9.99633 13.2847L9.90193 13.5836C9.38447 13.7188 8.881 13.9146 8.39151 14.1708C8.14677 14.2989 7.94048 14.4378 7.77265 14.5871C7.60483 14.7296 7.52091 14.854 7.52091 14.9609C7.52091 15.0677 7.5419 15.1602 7.58385 15.2385C7.75867 15.5302 7.98244 15.6761 8.25515 15.6761L9.34601 15.3772L8.52787 18.1957C8.28312 19.0499 8.04188 19.8506 7.80412 20.5979C7.56637 21.3452 7.31463 22.0641 7.04891 22.7544C6.79018 23.4449 6.55242 24.0106 6.33565 24.4519Z" fill="url(#paint0_linear_980_199)"/>
<path d="M16.4617 23.0959C16.6296 23.0959 16.8638 22.9856 17.1646 22.765C17.9827 22.1529 18.8323 21.1884 19.7133 19.8718C20.5455 22.0283 21.4755 23.1066 22.5035 23.1066C23.0349 23.1066 23.5104 22.9643 23.9299 22.6795C24.5593 22.2525 24.874 21.7258 24.874 21.0995C24.874 20.95 24.8006 20.8753 24.6537 20.8753C24.5838 20.8753 24.5104 20.893 24.4334 20.9287L24.0558 21.0995C23.8811 21.1849 23.6573 21.2277 23.3845 21.2277C22.7622 21.2277 22.2237 20.4802 21.7693 18.9856L21.4021 17.7365C21.6678 17.3735 21.979 16.9928 22.3357 16.5941C24.0488 14.6796 25.4579 13.4767 26.5628 12.9856L26.8249 12.8575C26.8879 12.8362 26.9298 12.8077 26.9508 12.7721C27.0837 12.5515 26.9473 12.3344 26.5417 12.1209C26.325 12.007 26.0207 11.95 25.6292 11.95C25.1956 11.95 24.6782 12.1636 24.0768 12.5906C23.0139 13.3451 22.0839 14.3664 21.2867 15.6546L20.9405 16.2419C20.8776 15.8362 20.8112 15.2703 20.7413 14.5443C20.7203 14.2738 20.7028 14.0248 20.6888 13.797C20.6818 13.5621 20.6853 13.3415 20.6994 13.1351C20.7133 12.9215 20.7203 12.7223 20.7203 12.5372C20.7203 12.3451 20.6994 12.1991 20.6573 12.0995C20.6154 11.9999 20.5245 11.95 20.3847 11.95C19.9092 11.95 19.4617 12.1351 19.042 12.5052C18.5876 12.9181 18.3463 13.4091 18.3183 13.9785C18.2694 15.1315 18.5491 16.5764 19.1575 18.313C18.4092 19.4376 17.4617 20.4802 16.3149 21.4412L15.675 21.9643C15.5213 22.0853 15.4443 22.2204 15.4443 22.3699C15.4443 22.5123 15.5492 22.6725 15.759 22.8503C15.8499 22.9215 15.9478 22.9785 16.0526 23.0212C16.1646 23.071 16.3009 23.0959 16.4617 23.0959Z" fill="url(#paint1_linear_980_199)"/>
<defs>
<linearGradient id="paint0_linear_980_199" x1="21" y1="9" x2="16.4999" y2="25.9999" gradientUnits="userSpaceOnUse">
<stop stop-color="#ECC8C4"/>
<stop offset="1" stop-color="#4971FF"/>
</linearGradient>
<linearGradient id="paint1_linear_980_199" x1="21" y1="9" x2="16.4999" y2="25.9999" gradientUnits="userSpaceOnUse">
<stop stop-color="#ECC8C4"/>
<stop offset="1" stop-color="#4971FF"/>
</linearGradient>
</defs>
</svg>
