<svg width="32" height="32" viewBox="0 0 32 32" fill="none" xmlns="http://www.w3.org/2000/svg">
<rect width="32" height="32" rx="16" fill="url(#paint0_linear_576_860)"/>
<path d="M17.3924 27.609C17.122 27.8 16.8614 27.9625 16.5947 28.1139C16.4857 28.1759 16.3635 28.2138 16.2191 28.2566C15.3803 27.7809 14.5696 27.3112 13.734 26.8353C12.9411 26.3794 12.1731 25.9297 11.3806 25.4752C10.9492 25.2286 10.5346 24.9987 10.1404 24.7369C10.0356 24.6672 9.93482 24.501 9.93195 24.3767C9.91582 23.6785 9.93019 22.9797 9.96105 22.262C10.9158 22.77 11.8437 23.2972 12.7858 23.8438C13.6218 24.3365 14.4437 24.8098 15.3211 25.315C15.3211 24.8281 15.3211 24.4247 15.3262 23.9876C15.3278 23.5644 15.3243 23.1749 15.3254 22.7518C15.3265 21.8461 15.3231 20.9741 15.3247 20.0683C15.3309 19.0579 15.3271 18.0811 15.3375 17.1045C15.3397 16.8993 15.2802 16.7793 15.0992 16.6755C14.2494 16.188 13.4085 15.6843 12.5467 15.1682C11.7119 14.6695 10.8949 14.189 10.0641 13.6884C9.38192 13.2697 8.7136 12.8709 7.98273 12.4347C7.98273 12.9086 7.98273 13.3117 7.97515 13.7481C7.97257 14.3893 7.97757 14.9972 7.97564 15.6382C7.9742 16.8585 7.97969 18.0456 7.98518 19.2327C7.97939 20.274 7.9736 21.3154 7.97347 22.3903C7.96094 22.7521 7.94276 23.0804 7.89782 23.4248C7.39379 23.1329 6.92585 22.8081 6.43506 22.5244C6.2134 22.3963 6.15745 22.2461 6.16013 22.0063C6.17022 21.1038 6.16264 20.2011 6.1572 19.2647C6.15571 18.2376 6.1587 17.2442 6.1572 16.217C6.1557 15.5527 6.15869 14.9221 6.15718 14.2578C6.15567 13.6419 6.15866 13.0597 6.15715 12.4437C6.16907 11.7003 6.18551 10.9906 6.21881 10.2554C6.79545 9.88404 7.35522 9.53815 7.93002 9.17348C8.50522 8.80926 9.06541 8.46383 9.64187 8.1016C10.1648 7.76894 10.6714 7.45308 11.1957 7.11959C11.6868 6.8089 12.1602 6.51586 12.6501 6.20368C13.1215 5.90489 13.5764 5.62521 14.0457 5.3261C14.6205 4.96216 15.181 4.61765 15.7576 4.25628C16.0985 3.92684 16.3994 3.92303 16.7814 4.19876C17.3458 4.60602 17.96 4.94126 18.5776 5.31329C19.5381 5.906 20.4738 6.49259 21.4321 7.08662C22.1958 7.55863 22.9371 8.02321 23.7025 8.4942C24.3008 8.86414 24.875 9.22766 25.4738 9.59822C25.7829 9.79264 26.0796 9.9642 26.3465 10.175C26.4569 10.2622 26.5558 10.4285 26.5688 10.5677C26.6012 10.9147 26.5813 11.2669 26.5875 11.6506C26.5892 12.339 26.5858 12.9938 26.5875 13.6822C26.5892 14.5158 26.5858 15.3158 26.5876 16.1494C26.5894 17.104 26.5861 18.0248 26.5878 18.9794C26.5895 19.9097 26.5861 20.8064 26.5877 21.7367C26.7024 22.3112 26.356 22.5343 25.9398 22.7369C25.5521 22.9663 25.1814 23.1796 24.7961 23.4132C24.4597 23.6136 24.1378 23.7938 23.8009 23.9939C23.4191 24.2159 23.0525 24.4177 22.6725 24.6403C22.2655 24.8885 21.8719 25.1161 21.4635 25.3625C21.002 25.6363 20.5553 25.8913 20.0922 26.1656C19.7685 26.3512 19.4613 26.5175 19.1457 26.6884C19.1457 25.8756 19.1457 25.0864 19.1889 24.2683C19.881 23.8533 20.53 23.4672 21.2012 23.0703C21.9416 22.6349 22.6599 22.2102 23.4028 21.7793C23.5283 21.7121 23.6221 21.6243 23.7312 21.5946C24.6786 21.3373 24.7619 20.6311 24.6404 19.7775C24.6421 18.6779 24.6388 17.612 24.6404 16.5124C24.6454 15.1516 24.6454 13.8245 24.6454 12.4132C23.9777 12.8314 23.3892 13.2 22.7767 13.5742C22.2487 13.8916 21.7447 14.2034 21.2163 14.5194C20.6605 14.8531 20.1292 15.1826 19.5737 15.5195C19.0443 15.8377 18.5392 16.1484 18.0103 16.4677C17.7961 16.6609 17.4105 16.6364 17.413 17.0277C17.4158 17.472 17.4226 17.9163 17.4218 18.3941C17.42 19.3947 17.4239 20.3619 17.4279 21.329C17.424 22.3972 17.42 23.4654 17.4218 24.5672C17.4183 25.5926 17.4091 26.5844 17.3924 27.609ZM18.95 13.502C19.4139 13.215 19.8777 12.928 20.388 12.6276C20.7687 12.3904 21.1494 12.1531 21.5748 11.8919C22.2098 11.5142 22.8448 11.1364 23.5301 10.7287C23.0708 10.4468 22.6885 10.2066 22.3011 9.97557C21.4749 9.48292 20.6459 8.99502 19.7733 8.48017C18.9844 7.99292 18.1954 7.50567 17.3754 6.9831C17.0174 6.77399 16.6564 6.39549 16.3024 6.40227C15.9305 6.40939 15.5653 6.78533 15.1975 7.00072C15.1879 7.00631 15.1824 7.019 15.1273 7.04007C14.367 7.49917 13.6067 7.95826 12.7979 8.4279C12.2463 8.7643 11.6948 9.1007 11.0939 9.44508C10.3965 9.85971 9.69901 10.2743 8.93613 10.7279C10.338 11.5562 11.6648 12.3402 13.0291 13.1567C13.87 13.6544 14.7109 14.1521 15.5896 14.6819C16.0359 15.0926 16.4879 15.1653 16.9629 14.7227C17.073 14.6201 17.214 14.5519 17.3893 14.4523C17.8932 14.1397 18.3972 13.8272 18.95 13.502Z" fill="#FEFEFF"/>
<path d="M13.6672 20.3586C13.6573 20.7558 13.6464 21.1208 13.6389 21.5197C13.6346 21.6845 13.6268 21.8155 13.6144 22.0251C12.8806 21.6372 12.1811 21.2673 11.4566 20.8911C11.0524 20.6746 10.6639 20.4794 10.2993 20.2456C10.1875 20.1739 10.0889 20.0014 10.0753 19.8656C10.042 19.5344 10.062 19.1977 10.0552 18.8297C10.0537 18.165 10.0576 17.5339 10.0557 16.8693C10.0498 16.5301 10.0498 16.2244 10.0498 15.8347C10.5705 16.1283 11.0075 16.3747 11.4687 16.6288C12.1065 16.9953 12.7146 17.3644 13.3365 17.7076C13.5702 17.8367 13.6811 17.979 13.6721 18.2657C13.6506 18.952 13.6658 19.6395 13.6672 20.3586Z" fill="#FEFEFF"/>
<path d="M19.2183 18.2486C19.1802 17.9041 19.3131 17.7119 19.5941 17.5844C19.8371 17.4741 20.0597 17.3167 20.3058 17.1609C20.8799 16.8191 21.4396 16.4963 22.0155 16.1568C22.2742 16.0067 22.5167 15.8734 22.8305 15.7008C22.8305 16.2027 22.8305 16.631 22.8361 17.0929C22.8363 18.0052 22.8354 18.8841 22.8205 19.7628C22.8183 19.8937 22.7496 20.0234 22.6875 20.1717C21.8931 20.6099 21.1229 21.03 20.3348 21.467C19.9818 21.6556 19.6467 21.8273 19.2221 22.0449C19.2221 21.6871 19.2221 21.3944 19.2145 21.0734C19.2125 20.1241 19.2182 19.2031 19.2183 18.2486Z" fill="#FEFEFF"/>
<path d="M19.4744 10.9356C18.9955 11.2529 18.5298 11.5509 18.0498 11.8681C17.5511 12.1989 17.0664 12.5105 16.5646 12.8401C16.4799 12.8533 16.3994 12.8715 16.3468 12.8405C15.5964 12.398 14.8497 11.9489 14.0798 11.4934C13.6707 11.2409 13.284 10.9963 12.8523 10.7233C13.1719 10.5165 13.4612 10.3292 13.7643 10.1224C14.5289 9.63852 15.2798 9.17424 16.0468 8.69348C16.3353 8.45411 16.5669 8.51624 16.8428 8.71755C17.4951 9.19346 18.1747 9.63043 18.867 10.0903C19.1689 10.3006 19.447 10.5037 19.7482 10.7238C19.6506 10.7959 19.569 10.8561 19.4744 10.9356Z" fill="#FEFEFF"/>
<defs>
<linearGradient id="paint0_linear_576_860" x1="4.5" y1="27" x2="32" y2="9.5" gradientUnits="userSpaceOnUse">
<stop stop-color="#3DCAD7"/>
<stop offset="1" stop-color="#8141F6"/>
</linearGradient>
</defs>
</svg>
