<svg width="200" height="200" viewBox="0 0 200 200" fill="none" xmlns="http://www.w3.org/2000/svg">
<rect width="200" height="200" rx="100" fill="white"/>
<path fill-rule="evenodd" clip-rule="evenodd" d="M171 107.621C171 108.297 170.845 108.939 170.551 109.497L140.313 162.376C139.031 164.619 136.661 166 134.096 166H66.9038C64.3391 166 61.9691 164.619 60.6867 162.376L30.446 109.492C30.153 108.935 30 108.296 30 107.621C30 105.432 31.7573 103.658 33.9251 103.658H67.1017L75.5096 118.077L75.5612 118.163C76.6832 119.982 79.044 120.575 80.8833 119.482L80.9785 119.423C81.8265 118.886 82.4405 118.041 82.6919 117.059L93.4053 75.2436L102.604 142.564L102.618 142.658C102.958 144.776 104.913 146.243 107.029 145.948L107.125 145.934C108.657 145.681 109.902 144.539 110.293 143.015L123.206 92.6125L128.508 101.706L128.561 101.793C129.277 102.951 130.534 103.658 131.891 103.658H167.075C169.243 103.658 171 105.432 171 107.621ZM134.096 34C136.661 34 139.031 35.3815 140.313 37.6241L170.553 90.5055C170.846 91.0625 171 91.7046 171 92.379C171 94.5676 169.243 96.3419 167.075 96.3419H133.79L125.382 81.9228L125.324 81.8267C124.792 80.9705 123.954 80.3506 122.982 80.0967L122.891 80.074C120.822 79.5857 118.734 80.8527 118.199 82.9409L107.486 124.756L98.2869 57.4358L98.2724 57.3387C98.0225 55.7917 96.8906 54.5349 95.3817 54.1408C93.283 53.5926 91.1416 54.866 90.5987 56.9849L77.6849 107.387L72.383 98.2943L72.3303 98.2066C71.6148 97.0488 70.357 96.3419 69.0006 96.3419H33.9251C31.7573 96.3419 30 94.5676 30 92.379C30 91.7098 30.1489 91.0768 30.4365 90.5236L60.6867 37.6241C61.9691 35.3815 64.3391 34 66.9038 34H134.096Z" fill="url(#paint0_linear_2175_19)"/>
<defs>
<linearGradient id="paint0_linear_2175_19" x1="137.031" y1="36.3083" x2="59.5707" y2="168.601" gradientUnits="userSpaceOnUse">
<stop stop-color="#00DAFF"/>
<stop offset="0.326385" stop-color="#354AFF"/>
<stop offset="0.680558" stop-color="#DE18E7"/>
<stop offset="1" stop-color="#F9073A"/>
</linearGradient>
</defs>
</svg>
