<svg width="32" height="32" viewBox="0 0 32 32" fill="none" xmlns="http://www.w3.org/2000/svg">
<rect width="32" height="32" rx="16" fill="white"/>
<path d="M12.421 5.88884C12.1209 5.88864 11.8239 5.95044 11.5488 6.07036C11.2736 6.19028 11.0262 6.36575 10.822 6.58575C10.2952 7.15333 9.65687 7.60599 8.94696 7.91537C8.23706 8.22476 7.47091 8.3842 6.69652 8.38371H5.39878C6.61524 6.71303 8.21007 5.3542 10.0527 4.41844C11.8953 3.48269 13.9334 2.99662 16 3.00002C18.0666 2.99662 20.1047 3.48269 21.9473 4.41844C23.7899 5.3542 25.3848 6.71303 26.6012 8.38371H25.4804C24.6975 8.38413 23.9224 8.22838 23.2004 7.92558C22.4784 7.62277 21.8241 7.179 21.2757 6.62023C21.0484 6.38851 20.7772 6.20446 20.4779 6.07887C20.1786 5.95329 19.8572 5.88868 19.5326 5.88884H12.421ZM28.1358 11.1414H24.1595C23.8348 11.1415 23.5134 11.0769 23.214 10.9513C22.9146 10.8258 22.6432 10.6417 22.4158 10.41C21.8675 9.85119 21.2131 9.40738 20.4912 9.10457C19.7692 8.80177 18.994 8.64605 18.2111 8.64653H13.7425C12.9681 8.6461 12.2018 8.80556 11.4919 9.11494C10.7819 9.42432 10.1434 9.87695 9.61643 10.4445C9.41226 10.6645 9.16485 10.84 8.88969 10.9599C8.61454 11.0798 8.31758 11.1416 8.01743 11.1414H3.86422C3.42096 12.2344 3.13016 13.3831 3 14.5553H8.01743C8.79192 14.5559 9.55818 14.3965 10.2682 14.0871C10.9782 13.7777 11.6166 13.325 12.1435 12.7574C12.3477 12.5373 12.5951 12.3619 12.8703 12.242C13.1454 12.122 13.4424 12.0602 13.7425 12.0604H18.2111C18.5358 12.0603 18.8572 12.1249 19.1566 12.2505C19.4561 12.3761 19.7274 12.5601 19.9548 12.7918C20.5032 13.3507 21.1575 13.7945 21.8794 14.0973C22.6014 14.4001 23.3766 14.5558 24.1595 14.5553H29C28.8698 13.3831 28.579 12.2344 28.1358 11.1414ZM29 17.4447H24.1595C23.3766 17.4442 22.6014 17.5999 21.8794 17.9027C21.1575 18.2055 20.5032 18.6493 19.9548 19.2082C19.7274 19.4399 19.4561 19.6239 19.1566 19.7495C18.8572 19.8751 18.5358 19.9397 18.2111 19.9396H13.7425C13.4424 19.9398 13.1454 19.878 12.8703 19.758C12.5951 19.6381 12.3477 19.4627 12.1435 19.2426C11.6166 18.675 10.9782 18.2223 10.2682 17.9129C9.55818 17.6035 8.79192 17.4441 8.01743 17.4447H3C3.13009 18.6169 3.42089 19.7657 3.86422 20.8586H8.01743C8.62504 20.8586 9.20496 21.1113 9.61643 21.5555C10.1433 22.1232 10.7818 22.5759 11.4918 22.8852C12.2018 23.1946 12.968 23.354 13.7425 23.3535H18.2111C19.7949 23.3535 21.3113 22.7176 22.4158 21.59C22.6432 21.3583 22.9146 21.1742 23.214 21.0487C23.5134 20.9231 23.8348 20.8585 24.1595 20.8586H28.1358C28.5791 19.7657 28.8699 18.6169 29 17.4447ZM26.6012 23.6163H25.4804C24.6975 23.6159 23.9224 23.7716 23.2004 24.0744C22.4784 24.3772 21.8241 24.821 21.2757 25.3798C21.0484 25.6115 20.7772 25.7955 20.4779 25.9211C20.1786 26.0467 19.8572 26.1113 19.5326 26.1112H12.421C12.1209 26.1114 11.8239 26.0496 11.5488 25.9296C11.2736 25.8097 11.0262 25.6343 10.822 25.4142C10.2952 24.8467 9.65687 24.394 8.94696 24.0846C8.23706 23.7752 7.47091 23.6158 6.69652 23.6163H5.39878C6.61524 25.287 8.21007 26.6458 10.0527 27.5816C11.8953 28.5173 13.9334 29.0034 16 29C18.0666 29.0034 20.1047 28.5173 21.9473 27.5816C23.7899 26.6458 25.3848 25.287 26.6012 23.6163ZM15.9994 18.4949C17.3859 18.4949 18.5101 17.378 18.5101 16C18.5101 14.622 17.3859 13.5051 15.9994 13.5051C14.613 13.5051 13.4893 14.622 13.4893 16C13.4893 17.378 14.613 18.4949 15.9994 18.4949Z" fill="black"/>
</svg>
