<svg width="28" height="28" viewBox="0 0 28 28" fill="none" xmlns="http://www.w3.org/2000/svg">
<path d="M0 14C0 6.26801 6.26801 0 14 0C21.732 0 28 6.26801 28 14C28 21.732 21.732 28 14 28C6.26801 28 0 21.732 0 14Z" fill="#061735"/>
<path fill-rule="evenodd" clip-rule="evenodd" d="M19.6216 12.5654C19.7023 12.659 19.7882 12.7478 19.8742 12.8367C20.0011 12.9679 20.128 13.099 20.2381 13.2457C21.5192 14.9573 21.1069 16.9014 19.5824 18.1855C18.8046 18.8408 17.8845 19.16 16.8597 19.187C16.7861 19.189 16.7201 19.2053 16.6572 19.2294C16.6037 19.2499 16.5524 19.2761 16.5008 19.3037C16.1108 19.5133 15.7203 19.7222 15.3298 19.931C14.456 20.3982 13.5823 20.8654 12.714 21.3421C11.9581 21.7573 11.1613 22.0188 10.2937 21.9989C8.8004 21.9651 7.58517 21.3748 6.72169 20.1583C5.77081 18.8188 5.84155 17.2223 6.89105 15.95C6.99575 15.8231 7.10826 15.7026 7.2207 15.5822L7.22875 15.5736C7.27692 15.522 7.32508 15.4703 7.37253 15.4182C7.39954 15.3221 7.47747 15.2698 7.55279 15.2191C7.56369 15.2118 7.57451 15.2046 7.58517 15.1972C7.59227 15.1922 7.5993 15.1873 7.60617 15.1822C8.3411 14.64 9.16218 14.3256 10.0863 14.293C10.2492 14.285 10.4051 14.2257 10.531 14.1238C10.9199 13.9324 11.3022 13.7278 11.684 13.5234L11.6883 13.5211C11.8475 13.4358 12.0067 13.3506 12.1663 13.2663C12.3262 13.1821 12.4853 13.0965 12.6445 13.0108C12.9157 12.8649 13.1869 12.7188 13.4623 12.5801C13.6005 12.5069 13.7375 12.4312 13.8746 12.3555L13.8803 12.3524C14.4445 12.0406 15.0089 11.7288 15.6534 11.5901C17.0477 11.29 18.3215 11.5412 19.4668 12.3922C19.4771 12.4001 19.4877 12.4077 19.4984 12.4153C19.5518 12.4536 19.6065 12.4928 19.6216 12.5654ZM12.8312 18.5418C12.6231 18.6528 12.4182 18.7621 12.2132 18.871C11.7988 19.0907 11.3892 19.3196 10.9672 19.5246C9.99699 19.9955 8.78421 19.5298 8.46601 18.5728C8.22993 17.8663 8.67225 17.0451 9.4589 16.7418C9.97354 16.5428 10.493 16.5484 10.9846 16.7964C11.6148 17.1123 12.2384 17.4424 12.8787 17.7813L12.8822 17.7832L12.9142 17.8002C13.131 17.9147 13.3496 18.0305 13.5711 18.147L12.8312 18.5418ZM15.4852 14.3053L13.5068 15.3554C13.5269 15.3679 13.5427 15.3788 13.5567 15.3885C13.5744 15.4006 13.5891 15.4106 13.605 15.4191C14.4208 15.8534 15.2293 16.3012 16.0548 16.7164C16.6511 17.0161 17.2644 16.9974 17.8494 16.663C18.778 16.1316 18.9239 14.9896 18.1583 14.2978C17.8754 14.0443 17.521 13.8816 17.142 13.8314C16.763 13.7812 16.3774 13.8458 16.0367 14.0167C15.8491 14.1095 15.6684 14.2082 15.4852 14.3053Z" fill="#74DC54"/>
<path fill-rule="evenodd" clip-rule="evenodd" d="M19.6215 12.5655C19.1607 12.2199 18.6784 11.9142 18.1177 11.7431C16.8403 11.3529 15.6182 11.4731 14.4487 12.1148C14.2884 12.2024 14.1275 12.288 13.9665 12.373C13.8026 12.4596 13.6386 12.5456 13.4748 12.6323C13.4544 12.6076 13.4307 12.5852 13.4045 12.5662C12.5814 12.1327 11.7607 11.6953 10.9328 11.2717C10.531 11.0664 10.0984 11.0305 9.65817 11.1328C8.94905 11.2972 8.37622 11.9134 8.34029 12.5431C8.30271 13.2011 8.7534 13.8181 9.45722 14.0768C9.82145 14.2104 10.1922 14.2062 10.5672 14.142C10.5092 14.2039 10.4391 14.2537 10.361 14.2882C10.2822 14.323 10.197 14.3416 10.1105 14.3427C9.15726 14.377 8.31234 14.697 7.5673 15.2782C7.55072 15.2911 7.53382 15.3037 7.51677 15.3161C7.50224 15.3265 7.48763 15.3368 7.47295 15.347L7.43908 15.3704C7.41689 15.3858 7.3947 15.4011 7.37283 15.4167C6.5122 14.6584 5.98342 13.7365 6.0004 12.5742C6.01335 11.7068 6.36423 10.9549 6.93462 10.3052C7.75325 9.36864 8.80354 8.88615 10.0543 8.82007C10.1063 8.81634 10.1577 8.80732 10.2075 8.79325C10.2668 8.77645 10.3239 8.75251 10.3777 8.7218C11.0744 8.3501 11.7707 7.97777 12.4677 7.60677C13.1186 7.26018 13.7701 6.91484 14.4228 6.57229C16.1534 5.6615 18.0914 5.83985 19.5783 7.09295C20.4649 7.83729 20.9775 8.80576 20.9354 9.98003C20.8978 11.0245 20.4091 11.8748 19.6215 12.5655ZM15.5551 8.70982C14.8581 9.0816 14.1572 9.44623 13.4222 9.83278C13.701 9.97995 13.9761 10.127 14.2491 10.2731C14.8528 10.5959 15.4468 10.9134 16.0491 11.2149C16.6058 11.4935 17.1814 11.462 17.7345 11.1714C18.3012 10.8733 18.6707 10.2555 18.5947 9.7122C18.4743 8.85 17.6415 8.23775 16.7181 8.28992C16.2974 8.31363 15.9403 8.50419 15.5814 8.69583L15.5551 8.70982Z" fill="#C6E251"/>
</svg>
