<svg width="32" height="32" viewBox="0 0 32 32" fill="none" xmlns="http://www.w3.org/2000/svg">
<g clip-path="url(#clip0_961_239)">
<rect width="32" height="32" rx="16" fill="url(#paint0_linear_961_239)"/>
<g filter="url(#filter0_f_961_239)">
<circle cx="24" cy="25" r="12" fill="url(#paint1_linear_961_239)"/>
</g>
<path d="M13.4614 8.5578C17.1814 12.0921 21.863 14.4294 26.9978 15.3156C26.3789 10.0761 21.7017 6 16.0188 6C14.5179 6 13.0878 6.2856 11.7815 6.8001C12.312 7.4091 12.8778 8.0013 13.4614 8.5578Z" fill="#F5F5F5"/>
<path d="M5 17.2833C5.16578 19.4064 5.99246 21.3531 7.28996 22.9365L7.34964 22.8798C8.68249 21.6261 10.4177 20.4858 12.5109 19.4925C14.3455 18.621 16.452 17.8734 18.7221 17.2833H5Z" fill="#F5F5F5"/>
<path d="M18.241 19.0484L18.2447 19.0473L18.2469 19.0452L18.241 19.0484Z" fill="#F5F5F5"/>
<path d="M18.241 19.0484C16.0726 20.2112 14.0588 21.6591 12.2987 23.3313C11.6422 23.955 11.0123 24.6165 10.4243 25.3011L10.2784 25.4712C9.59982 25.0785 8.97206 24.6165 8.39958 24.0999L8.49463 24.0096C10.6469 21.9753 14.0849 20.2391 18.241 19.0484Z" fill="#F5F5F5"/>
<path d="M8.49463 8.9904C10.6475 11.0274 14.0869 12.762 18.2447 13.9548C16.074 12.7893 14.0582 11.3424 12.2965 9.66872C11.6422 9.0471 11.0123 8.3856 10.4221 7.6989L10.2762 7.5288C9.59761 7.9215 8.96985 8.3835 8.39958 8.9001L8.49463 8.9904Z" fill="#F5F5F5"/>
<path d="M13.4614 24.4422C12.8756 24.9987 12.3098 25.5909 11.7815 26.1999C13.0856 26.7144 14.5179 27 16.0188 27C21.7017 27 26.3789 22.9239 27 17.6823C21.8652 18.5685 17.1837 20.9058 13.4636 24.4401L13.4614 24.4422Z" fill="#F5F5F5"/>
<path d="M12.5109 13.5075C10.4177 12.5142 8.68249 11.3739 7.34964 10.1202L7.28996 10.0635C5.99246 11.6469 5.16578 13.5936 5 15.7167H18.7199C16.4498 15.1266 14.3455 14.379 12.5087 13.5054L12.5109 13.5075Z" fill="#F5F5F5"/>
</g>
<defs>
<filter id="filter0_f_961_239" x="8" y="9" width="32" height="32" filterUnits="userSpaceOnUse" color-interpolation-filters="sRGB">
<feFlood flood-opacity="0" result="BackgroundImageFix"/>
<feBlend mode="normal" in="SourceGraphic" in2="BackgroundImageFix" result="shape"/>
<feGaussianBlur stdDeviation="2" result="effect1_foregroundBlur_961_239"/>
</filter>
<linearGradient id="paint0_linear_961_239" x1="5.5" y1="1.5" x2="29" y2="31.5" gradientUnits="userSpaceOnUse">
<stop stop-color="#0F2437"/>
<stop offset="1" stop-color="#2A4560"/>
</linearGradient>
<linearGradient id="paint1_linear_961_239" x1="18.8571" y1="19.8571" x2="29" y2="30.5" gradientUnits="userSpaceOnUse">
<stop stop-color="#9F8469"/>
<stop offset="0.35738" stop-color="#F6915A"/>
<stop offset="1" stop-color="#FBDBCE"/>
</linearGradient>
<clipPath id="clip0_961_239">
<rect width="32" height="32" rx="16" fill="white"/>
</clipPath>
</defs>
</svg>
