<svg width="32" height="32" viewBox="0 0 32 32" fill="none" xmlns="http://www.w3.org/2000/svg">
<rect width="32" height="32" rx="16" fill="url(#paint0_linear_983_199)"/>
<path d="M15.9989 22C15.6121 22 15.5944 21.6681 15.5676 21.1673L15.5675 21.1659C15.5512 20.8541 15.5361 20.4084 15.5233 19.8417C15.5004 18.8011 15.4868 17.4546 15.4842 16.0058C14.0094 16.0033 12.6383 15.9899 11.5801 15.9674C11.0034 15.9548 10.5499 15.94 10.2324 15.924H10.2319C9.72056 15.8977 9.3836 15.8804 9.3836 15.5C9.3836 15.1199 9.7215 15.1025 10.2315 15.0763L10.2324 15.0762C10.5499 15.0602 11.0034 15.0454 11.5801 15.0327C12.6383 15.0102 14.0094 14.9969 15.4842 14.9944C15.4868 13.5454 15.5004 12.199 15.5233 11.1583C15.5361 10.5916 15.5512 10.146 15.5675 9.83408L15.5676 9.83308C15.5944 9.33086 15.612 9 15.9989 9C16.386 9 16.4037 9.33213 16.4303 9.83328L16.4304 9.83408C16.4467 10.146 16.4618 10.5916 16.4746 11.1583C16.4974 12.1979 16.5111 13.5452 16.5136 14.9944C17.9882 14.9969 19.3585 15.0102 20.4177 15.0327C20.9944 15.0454 21.448 15.0602 21.7654 15.0762H21.766C22.2773 15.1025 22.6143 15.1198 22.6143 15.5C22.6143 15.8803 22.2763 15.8977 21.7664 15.9239L21.7654 15.924C21.448 15.94 20.9944 15.9548 20.4177 15.9674C19.3596 15.9899 17.9884 16.0033 16.5136 16.0058C16.5111 17.4548 16.4974 18.8021 16.4746 19.8417C16.4618 20.4084 16.4467 20.8541 16.4304 21.1659V21.1663C16.4037 21.6689 16.386 22 15.9989 22Z" fill="black"/>
<path d="M14.1854 19.9092C14.2249 19.9126 14.2795 19.916 14.34 19.916V19.9194C14.5621 19.9194 14.8749 19.8681 14.9203 19.531C14.9377 19.4053 14.8982 19.2807 14.8145 19.1871C14.6539 19.01 14.4063 19.0123 14.2074 19.0145H14.1063C9.65033 18.9974 3.74309 17.5989 3.09073 15.8873C3.02561 15.7172 2.8291 15.2006 3.78494 14.3712C5.17337 13.3818 8.1235 12.1683 14.3097 11.9753H14.3242C14.4718 11.9684 14.6948 11.9579 14.8377 11.7902C14.9144 11.6987 14.9493 11.5822 14.933 11.4634C14.9086 11.284 14.7831 11.0726 14.34 11.0829H14.283C11.6376 11.1355 8.76659 11.524 6.6048 12.1192C3.65589 12.9315 2.10814 14.0673 2.00234 15.4943L2 15.5218L2.00234 15.5491C2.10931 16.9602 3.63261 18.0811 6.52807 18.8809C8.64676 19.4659 11.4724 19.8486 14.0877 19.9034C14.1168 19.9046 14.1505 19.9069 14.1854 19.9092Z" fill="black"/>
<path d="M17.0669 19.5379C17.0902 19.7126 17.2076 19.9182 17.6285 19.9182V19.9172H17.717C20.3624 19.8646 23.2334 19.4761 25.3951 18.8809C28.344 18.0684 29.8918 16.9328 29.9976 15.5058L30 15.4783L29.9976 15.4508C29.8907 14.0398 28.3673 12.9178 25.4718 12.1181C23.3532 11.533 20.5264 11.1503 17.9123 11.0954C17.8949 11.0947 17.8758 11.0937 17.8558 11.0924L17.8146 11.0897L17.8121 11.0895C17.6253 11.0769 17.1364 11.0437 17.0797 11.4714C17.0623 11.597 17.1018 11.7216 17.1855 11.8152C17.346 11.9923 17.5936 11.9901 17.7925 11.9878H17.8937C22.3497 12.0049 28.2569 13.4034 28.9092 15.115C28.9743 15.2852 29.1709 15.8017 28.215 16.6311C26.8266 17.6206 23.8765 18.834 17.6902 19.0271H17.6755C17.5277 19.034 17.305 19.0446 17.1622 19.2122C17.0855 19.3036 17.0506 19.419 17.0669 19.5379Z" fill="black"/>
<defs>
<linearGradient id="paint0_linear_983_199" x1="6.5" y1="3.5" x2="25" y2="30" gradientUnits="userSpaceOnUse">
<stop stop-color="white"/>
<stop offset="1" stop-color="#EAEFF7"/>
</linearGradient>
</defs>
</svg>
