<svg width="32" height="32" viewBox="0 0 32 32" fill="none" xmlns="http://www.w3.org/2000/svg">
<rect width="32" height="32" rx="16" fill="#002474"/>
<path d="M16.4478 5.02246C16.7065 5.13847 16.9426 5.28559 17.1824 5.43548C17.253 5.47849 17.3236 5.52151 17.3963 5.56583C18.0223 5.94963 18.6396 6.3469 19.2555 6.74639C19.6825 7.02307 20.1127 7.29465 20.5436 7.56528C20.6173 7.61155 20.6909 7.65783 20.7668 7.7055C20.9163 7.79935 21.0658 7.89317 21.2152 7.98697C21.5853 8.21929 21.955 8.45212 22.3248 8.68491C22.4724 8.7778 22.62 8.87069 22.7676 8.96358C23.2104 9.24224 23.2104 9.24224 23.6532 9.52091C23.7263 9.56693 23.7994 9.61295 23.8748 9.66036C24.0217 9.75284 24.1687 9.84534 24.3156 9.93786C24.6944 10.1763 25.0734 10.4146 25.4526 10.6524C25.8866 10.9245 26.3198 11.1977 26.7527 11.4716C26.8078 11.5063 26.8629 11.541 26.9197 11.5768C27.0573 11.6639 27.1944 11.7518 27.3313 11.8398C27.4377 11.9078 27.4377 11.9078 27.5461 11.9773C27.7267 12.1145 27.8433 12.234 27.9603 12.427C27.982 12.7547 27.9822 12.946 27.7631 13.1983C27.2636 13.6021 26.6812 13.9131 26.1294 14.2417C25.6575 14.5242 25.1938 14.8189 24.73 15.1141C24.0602 15.5399 23.3881 15.9617 22.7122 16.3781C21.9421 16.8525 21.1756 17.3325 20.4106 17.8149C19.4131 18.4439 18.4116 19.0665 17.4089 19.6872C17.324 19.7398 17.2391 19.7924 17.1516 19.8466C17.0729 19.8953 16.9941 19.944 16.9129 19.9942C16.8426 20.0377 16.7722 20.0813 16.6997 20.1261C16.4053 20.3039 16.2329 20.3352 15.8843 20.3092C15.6763 20.2148 15.6763 20.2148 15.4682 20.0816C15.3904 20.0326 15.3127 19.9836 15.2326 19.9332C15.1504 19.8799 15.0682 19.8267 14.9836 19.7718C14.855 19.6903 14.855 19.6903 14.7238 19.6072C14.5488 19.4963 14.3741 19.385 14.1997 19.2732C13.8557 19.0533 13.5089 18.8379 13.1621 18.6223C13.0378 18.5446 12.9134 18.4669 12.7891 18.3891C12.6982 18.3321 12.6982 18.3321 12.6054 18.2741C12.4834 18.1977 12.3615 18.1214 12.2395 18.045C11.4751 17.5666 10.7094 17.0904 9.94184 16.6169C9.15701 16.1326 8.37536 15.6435 7.5955 15.1514C7.49621 15.0888 7.49621 15.0888 7.39492 15.0249C7.25147 14.9343 7.10809 14.8436 6.96475 14.7529C6.52841 14.4771 6.08985 14.2064 5.64478 13.9447C5.59118 13.9131 5.53758 13.8814 5.48235 13.8488C5.35374 13.7728 5.22505 13.697 5.09633 13.6213C5.08696 13.9712 5.08125 14.3212 5.0762 14.6712C5.0735 14.7704 5.0708 14.8696 5.06802 14.9718C5.06698 15.0675 5.06595 15.1632 5.06488 15.2618C5.06319 15.3498 5.06151 15.4378 5.05977 15.5284C5.11398 15.8881 5.29064 16.0732 5.57817 16.2891C5.6345 16.3222 5.69083 16.3554 5.74887 16.3896C5.84615 16.4478 5.84615 16.4478 5.9454 16.5073C6.01556 16.5484 6.08572 16.5895 6.15801 16.6318C6.31115 16.7236 6.46419 16.8154 6.61715 16.9074C6.69753 16.9556 6.77791 17.0038 6.86072 17.0535C7.28105 17.3085 7.69557 17.5723 8.1103 17.8361C8.28096 17.9444 8.45162 18.0528 8.62228 18.1611C8.74751 18.2406 8.74751 18.2406 8.87528 18.3218C9.25705 18.5638 9.63964 18.8046 10.0223 19.0453C10.0943 19.0905 10.1662 19.1358 10.2404 19.1824C10.385 19.2733 10.5296 19.3643 10.6743 19.4552C10.8973 19.5955 11.1202 19.7359 11.3432 19.8763C12.0985 20.3521 12.8545 20.8268 13.612 21.2993C14.3977 21.7897 15.1812 22.2836 15.9648 22.7774C16.5276 22.4825 17.0695 22.1703 17.6001 21.822C17.7408 21.7306 17.8816 21.6392 18.0224 21.548C18.0944 21.5013 18.1664 21.4546 18.2406 21.4064C18.6039 21.1722 18.9699 20.9422 19.336 20.7123C19.4098 20.666 19.4836 20.6196 19.5596 20.5718C19.7093 20.4778 19.859 20.3839 20.0087 20.2899C20.3733 20.0611 20.7377 19.8319 21.1021 19.6026C21.2107 19.5343 21.2107 19.5343 21.3216 19.4646C21.9696 19.0566 22.6166 18.6471 23.2634 18.2373C23.6743 17.9771 24.0853 17.7172 24.4969 17.4582C24.5737 17.4099 24.6505 17.3615 24.7296 17.3118C24.8788 17.218 25.0281 17.1245 25.1775 17.0311C25.4967 16.8314 25.8138 16.6303 26.1247 16.4182C26.1754 16.3841 26.2261 16.35 26.2784 16.3149C26.4085 16.227 26.5376 16.1374 26.6665 16.0478C26.995 15.8916 27.1958 15.8976 27.5578 15.9302C27.7535 16.0791 27.8509 16.1915 27.9603 16.4079C27.9813 16.7599 27.9821 17.1122 27.9841 17.4647C27.985 17.5818 27.9866 17.6988 27.989 17.8159C28.0198 19.3208 28.0198 19.3208 27.5152 19.891C27.3747 20.0172 27.2316 20.124 27.0747 20.2296C27.0232 20.2644 26.9716 20.2992 26.9185 20.335C26.7477 20.4458 26.5746 20.552 26.4005 20.6576C26.2647 20.7412 26.1289 20.8248 25.9932 20.9086C25.921 20.953 25.8488 20.9974 25.7744 21.0432C25.3623 21.2981 24.9531 21.5577 24.5438 21.817C24.4581 21.8712 24.3725 21.9254 24.2843 21.9813C23.6937 22.3556 23.1051 22.7331 22.5175 23.112C21.9459 23.4801 21.3705 23.8422 20.7946 24.2038C20.3557 24.4794 19.918 24.7567 19.4819 25.0366C18.9407 25.3835 18.3992 25.7299 17.8567 26.0748C17.7238 26.1593 17.591 26.2441 17.4583 26.329C17.3761 26.3812 17.2939 26.4334 17.2092 26.4871C17.0995 26.557 17.0995 26.557 16.9877 26.6282C16.3715 26.9963 16.3715 26.9963 16.0195 27C15.6278 26.891 15.3417 26.7014 15.0087 26.4747C14.8653 26.3797 14.7218 26.2849 14.5782 26.1901C14.5027 26.1399 14.4271 26.0897 14.3492 26.0379C13.9439 25.7712 13.5326 25.5139 13.1219 25.2555C12.4653 24.8411 11.8112 24.4233 11.1595 24.0015C10.4795 23.5615 9.79585 23.1276 9.1097 22.697C8.49978 22.3142 7.89254 21.9274 7.2868 21.5381C7.09145 21.4126 6.89597 21.2873 6.70049 21.162C5.97477 20.6966 5.25047 20.2294 4.53278 19.7519C4.66561 19.5154 4.79845 19.279 4.93531 19.0353C5.21993 19.0353 5.30393 19.0974 5.53974 19.2484C5.6118 19.2941 5.68385 19.3399 5.75809 19.3871C5.83527 19.4368 5.91245 19.4866 5.99197 19.5379C6.072 19.589 6.15203 19.64 6.23449 19.6925C6.47266 19.8445 6.71036 19.9972 6.94799 20.15C7.06484 20.2248 7.18172 20.2995 7.29863 20.3742C7.45876 20.4766 7.61885 20.579 7.77878 20.6817C8.28696 21.0077 8.79739 21.3303 9.30785 21.6528C9.98902 22.0833 10.6681 22.5167 11.3452 22.9534C11.8313 23.2664 12.3201 23.5749 12.8099 23.8821C13.6015 24.3787 14.3877 24.8832 15.1723 25.3905C15.2405 25.4342 15.3086 25.4778 15.3789 25.5228C15.4908 25.5966 15.601 25.6731 15.7078 25.754C15.841 25.8592 15.841 25.8592 16.0453 25.9622C16.2465 25.9384 16.2465 25.9384 16.4478 25.8029C16.4982 25.7733 16.5486 25.7436 16.6005 25.7131C16.7863 25.6015 16.9693 25.4862 17.1522 25.37C17.2202 25.3272 17.2882 25.2843 17.3582 25.2402C17.8391 24.9367 18.3183 24.6306 18.7969 24.3234C19.3007 24.0001 19.8062 23.6796 20.3121 23.3596C20.3973 23.3057 20.4825 23.2518 20.5703 23.1963C21.0063 22.9205 21.4424 22.6449 21.8786 22.3694C23.1313 21.5779 23.1313 21.5779 24.3781 20.7774C24.7458 20.5394 25.1154 20.3048 25.4872 20.0732C25.5722 20.0197 25.6572 19.9662 25.7447 19.9112C25.9102 19.8071 26.0761 19.7039 26.2426 19.6015C26.3174 19.5543 26.3921 19.507 26.469 19.4583C26.5355 19.4169 26.602 19.3756 26.6705 19.333C26.9204 19.1204 26.9803 18.9083 27.0199 18.5905C27.0237 18.4835 27.0237 18.4835 27.0275 18.3744C27.0307 18.2967 27.0338 18.219 27.037 18.1388C27.0395 18.0586 27.042 17.9784 27.0445 17.8958C27.0476 17.814 27.0508 17.7323 27.054 17.6481C27.0615 17.447 27.0684 17.246 27.0747 17.0449C26.1245 17.5989 25.1895 18.1708 24.267 18.7688C23.84 19.0455 23.4099 19.3171 22.9789 19.5877C22.8684 19.6571 22.8684 19.6571 22.7557 19.7279C22.6062 19.8218 22.4568 19.9156 22.3073 20.0094C21.9372 20.2417 21.5675 20.4745 21.1977 20.7073C21.0501 20.8002 20.9025 20.8931 20.7549 20.986C20.6819 21.032 20.6088 21.078 20.5335 21.1253C20.3121 21.2647 20.0907 21.404 19.8693 21.5433C19.7962 21.5894 19.723 21.6354 19.6477 21.6829C19.5011 21.7751 19.3544 21.8673 19.2078 21.9596C18.8235 22.2013 18.4395 22.4434 18.0557 22.686C17.9761 22.7363 17.8964 22.7866 17.8144 22.8384C17.6625 22.9343 17.5107 23.0303 17.359 23.1264C17.2236 23.2118 17.0878 23.2967 16.9516 23.3809C16.8379 23.4516 16.7252 23.5241 16.6141 23.599C16.376 23.752 16.219 23.8122 15.9333 23.819C15.5547 23.7068 15.2651 23.5259 14.9383 23.3099C14.8017 23.222 14.6651 23.1342 14.5285 23.0464C14.4593 23.0015 14.3901 22.9566 14.3188 22.9103C14.0028 22.7062 13.683 22.5081 13.3634 22.3097C12.5864 21.8248 11.8114 21.3367 11.0365 20.8485C10.8168 20.7101 10.5969 20.5719 10.3771 20.4336C9.50506 19.8853 8.63418 19.3353 7.76426 18.7838C7.30556 18.4932 6.84581 18.2045 6.3844 17.9181C4.28765 16.6158 4.28765 16.6158 4.04974 15.771C4.02508 15.5452 4.02147 15.3208 4.01986 15.0939C4.01877 14.9983 4.01877 14.9983 4.01766 14.9007C4.01649 14.7665 4.01578 14.6323 4.01548 14.4982C4.01452 14.2934 4.01055 14.0887 4.00649 13.8839C4.00573 13.7531 4.00515 13.6224 4.00477 13.4916C4.00241 13.4003 4.00241 13.4003 4 13.3071C4.0027 12.9908 4.03341 12.8451 4.2364 12.5959C4.55657 12.3454 4.55657 12.3454 4.7309 12.2419C4.80675 12.1962 4.80675 12.1962 4.88413 12.1495C4.93755 12.1179 4.99097 12.0863 5.04601 12.0538C5.16204 11.9836 5.27798 11.9133 5.39382 11.8429C5.45207 11.8075 5.51032 11.7721 5.57033 11.7357C5.8253 11.5784 6.07487 11.4137 6.32406 11.2476C6.78435 10.9417 7.24751 10.6405 7.7128 10.342C7.78048 10.2986 7.84815 10.2551 7.91788 10.2104C8.05894 10.1199 8.19999 10.0294 8.34105 9.93895C8.71229 9.70059 9.08304 9.46149 9.45376 9.22234C9.5304 9.1729 9.60704 9.12346 9.68601 9.07253C10.2764 8.69159 10.8664 8.31012 11.4564 7.92854C14.092 6.22385 14.092 6.22385 15.3097 5.44625C16.0542 4.97077 16.0542 4.97077 16.4478 5.02246ZM15.5723 6.36602C15.5055 6.40778 15.4387 6.44954 15.3698 6.49256C14.7173 6.90305 14.0749 7.32818 13.4326 7.75404C12.8428 8.145 12.2499 8.52917 11.6454 8.89766C11.2637 9.13075 10.89 9.37392 10.5177 9.62138C10.0047 9.96186 9.4879 10.2964 8.97072 10.6306C8.92529 10.66 8.87985 10.6893 8.83304 10.7196C7.77897 11.4005 6.72378 12.0796 5.65987 12.7455C5.88068 12.9774 6.09952 13.1506 6.37374 13.3171C6.4893 13.3878 6.4893 13.3878 6.60719 13.4599C6.68976 13.5099 6.77234 13.5598 6.85742 13.6113C7.03283 13.7186 7.2082 13.8259 7.38354 13.9332C7.51666 14.0146 7.51666 14.0146 7.65246 14.0975C8.04523 14.3388 8.43515 14.5844 8.8248 14.8305C8.97145 14.923 9.1181 15.0154 9.26476 15.1079C9.33532 15.1524 9.40587 15.1969 9.47857 15.2427C10.3764 15.8082 11.278 16.3679 12.1809 16.9254C12.7703 17.2894 13.3593 17.6538 13.9471 18.0202C14.0082 18.0581 14.0693 18.096 14.1323 18.135C14.4461 18.3303 14.7556 18.5299 15.0613 18.7374C15.1235 18.779 15.1857 18.8207 15.2498 18.8636C15.3678 18.9428 15.485 19.0233 15.6012 19.1051C15.7759 19.2265 15.7759 19.2265 16.0453 19.3538C16.32 19.273 16.5525 19.1412 16.7947 18.9918C16.8605 18.9514 16.9264 18.9109 16.9943 18.8692C17.0647 18.8255 17.1351 18.7818 17.2076 18.7368C17.2817 18.691 17.3559 18.6453 17.4322 18.5982C18.1171 18.175 18.7984 17.7461 19.4791 17.3164C19.8818 17.0622 20.2854 16.8094 20.6895 16.5572C20.7517 16.5184 20.8139 16.4796 20.8779 16.4396C21.0026 16.3618 21.1273 16.2841 21.2519 16.2063C21.5054 16.0482 21.7588 15.8899 22.0122 15.7316C22.1402 15.6516 22.2682 15.5717 22.3962 15.4917C22.7099 15.2958 23.0236 15.0998 23.3371 14.9036C24.0685 14.4459 24.8012 13.9905 25.535 13.5367C25.6179 13.4854 25.7007 13.4342 25.786 13.3814C25.8641 13.3332 25.9421 13.285 26.0225 13.2353C26.0916 13.1926 26.1607 13.1499 26.2319 13.1059C26.3717 13.0204 26.5139 12.9384 26.6574 12.8592C26.7154 12.8216 26.7734 12.7841 26.8332 12.7455C26.8332 12.6929 26.8332 12.6404 26.8332 12.5862C26.7022 12.4847 26.7022 12.4847 26.5285 12.3862C26.4617 12.3462 26.395 12.3062 26.3263 12.265C26.216 12.1998 26.216 12.1998 26.1036 12.1334C25.4671 11.751 24.8387 11.3591 24.2167 10.954C23.5523 10.5224 22.8817 10.1028 22.2043 9.69125C21.7058 9.38793 21.2131 9.07676 20.7227 8.76072C20.347 8.51885 19.9684 8.28193 19.5876 8.04796C19.1416 7.77396 18.6993 7.49499 18.2592 7.21197C17.7917 6.91163 17.3225 6.6143 16.8503 6.32123C16.7949 6.28665 16.7394 6.25206 16.6822 6.21642C16.1622 5.8949 16.069 6.05478 15.5723 6.36602Z" fill="white"/>
</svg>
