<svg width="200" height="200" viewBox="0 0 200 200" fill="none" xmlns="http://www.w3.org/2000/svg">
<rect width="200" height="200" rx="100" fill="black"/>
<path d="M163.11 62.7349C159.257 56.0668 152.357 52.0733 144.65 52.0733H102.151C101.601 52.0366 101.05 52 100.5 52C99.9499 52 99.3989 52.0366 98.8487 52.0733H56.3502C48.6432 52.0733 41.7436 56.0668 37.8901 62.7349C34.0366 69.4028 34.0366 77.3534 37.8901 84.0217L82.0399 160.339C85.8936 167.007 92.7934 171 100.5 171C108.207 171 115.107 167.007 118.96 160.339L163.11 84.0217C166.963 77.3898 166.963 69.4028 163.11 62.7349ZM108.758 154.477C107.032 157.444 103.95 159.24 100.5 159.24C97.0502 159.24 93.9678 157.444 92.2425 154.477L67.3971 111.537L92.2425 68.5601C93.7844 65.8857 96.3898 64.2002 99.3989 63.8707H101.601C104.61 64.2002 107.217 65.922 108.758 68.5601L133.603 111.5L108.758 154.477Z" fill="white"/>
</svg>
