<svg width="200" height="200" viewBox="0 0 200 200" fill="none" xmlns="http://www.w3.org/2000/svg">
<rect width="200" height="200" rx="100" fill="#0B0A0E"/>
<path d="M53.5765 100.478C53.5765 116.132 46.5017 128.813 37.7995 128.813C29.0974 128.813 22 116.132 22 100.478C22 84.8234 29.0747 72.1422 37.777 72.1422C46.4792 72.1422 53.5539 84.8234 53.5539 100.478M68.0649 100.478C68.0649 105.546 67.342 110.591 65.8726 115.163C64.4486 119.6 62.3917 123.835 59.7697 127.754C58.1875 130.119 54.7745 135.39 57.645 137.417C58.1423 137.755 58.7978 138.003 59.7019 138.138C65.2623 138.926 70.3707 135.458 74.1227 131.921C78.2138 128.069 81.514 123.475 83.7741 118.407C88.8148 107.122 88.8148 93.8556 83.7741 82.5934C81.514 77.548 78.2138 72.9305 74.1227 69.0789C70.3707 65.5426 65.2397 62.0739 59.7019 62.8623C58.7978 62.9974 58.1423 63.2452 57.645 63.583C54.7519 65.6102 58.1875 70.8808 59.7697 73.2459C62.3917 77.1425 64.4486 81.3996 65.8726 85.8367C67.342 90.4093 68.0649 95.4544 68.0649 100.522M102.128 100.522C102.128 107.01 101.179 113.496 99.3027 119.33C97.4718 125.006 94.8269 130.457 91.4818 135.458C89.4476 138.476 85.0628 145.233 88.7696 147.823C89.4024 148.251 90.2615 148.589 91.3913 148.746C98.5115 149.76 105.066 145.301 109.881 140.773C115.125 135.84 119.352 129.939 122.245 123.475C128.619 109.239 128.641 91.8732 122.245 77.5705C119.352 71.1061 115.125 65.2048 109.881 60.272C105.066 55.7447 98.5115 51.2849 91.3913 52.2985C90.2389 52.4561 89.3797 52.7715 88.7696 53.222C85.0628 55.8123 89.4476 62.5694 91.4818 65.5877C94.8269 70.588 97.4718 76.0389 99.3027 81.7149C101.179 87.5485 102.128 94.0356 102.128 100.522ZM141.751 100.522C141.751 108.631 140.576 116.74 138.225 124.038C135.942 131.133 132.642 137.958 128.461 144.197C125.929 147.981 120.459 156.427 125.07 159.671C125.861 160.212 126.923 160.617 128.348 160.819C137.253 162.081 145.436 156.517 151.47 150.841C158.026 144.67 163.314 137.304 166.931 129.196C175.023 111.109 175.023 89.8685 166.931 71.8043C163.314 63.7182 158.026 56.3303 151.47 50.1587C145.458 44.4827 137.253 38.9192 128.37 40.1805C126.946 40.3833 125.861 40.7887 125.092 41.3293C120.459 44.5727 125.952 53.0192 128.483 56.8033C132.665 63.065 135.965 69.8673 138.247 76.9623C140.598 84.2601 141.774 92.3687 141.774 100.478" fill="url(#paint0_linear_216_220)"/>
<defs>
<linearGradient id="paint0_linear_216_220" x1="22" y1="100.5" x2="173" y2="100.5" gradientUnits="userSpaceOnUse">
<stop stop-color="#1FFFA3"/>
<stop offset="1" stop-color="#8C47F5"/>
</linearGradient>
</defs>
</svg>
