<svg width="200" height="200" viewBox="0 0 200 200" fill="none" xmlns="http://www.w3.org/2000/svg">
<rect width="200" height="200" rx="100" fill="black"/>
<path d="M156.624 107.651C156.624 112.818 156.624 117.986 156.624 123.154C155.825 123.837 154.834 123.794 153.87 123.794C129.031 123.806 104.191 123.812 79.3518 123.79C76.0185 123.787 75.4009 123.172 75.3952 119.889C75.3704 106.444 75.3715 92.9999 75.3947 79.555C75.4003 76.197 76.0118 75.6127 79.5199 75.609C98.4091 75.5885 117.298 75.602 136.187 75.5993C140.161 75.5987 140.164 75.596 140.164 71.7683C140.164 69.2516 140.143 66.7343 140.168 64.2181C140.182 62.8002 139.574 62.1328 138.073 62.1938C137.314 62.2246 136.551 62.1895 135.79 62.1895C106.73 62.1889 77.6702 62.1906 48.6105 62.1878C44.2998 62.1873 44.2507 62.1808 44.3139 58.1198C44.3765 54.0929 44.0386 50.0594 44.5011 46.0383C81.3216 46.0383 118.142 46.0486 154.963 46C156.385 45.9984 156.67 46.2662 156.665 47.6285C156.599 62.3358 156.624 77.0436 156.624 91.751C155.554 92.6035 154.263 92.3831 153.041 92.3844C134.442 92.3984 115.844 92.393 97.2453 92.3947C92.9299 92.3951 92.9278 92.398 92.929 96.5245C92.9295 99.2381 92.8914 101.952 92.9439 104.664C92.9832 106.676 93.2527 106.911 95.3788 106.992C96.6914 107.041 98.0056 107.008 99.3194 107.008C117.227 107.009 135.133 107.003 153.041 107.018C154.263 107.019 155.554 106.798 156.624 107.651Z" fill="#FF0506"/>
<path d="M156.622 152.965C120.01 152.965 83.399 152.955 46.7878 153C45.0899 153.002 44.4768 152.782 44.483 150.916C44.5659 126.669 44.5546 102.423 44.4993 78.1761C44.4959 76.6232 44.8942 76.1956 46.5182 76.2452C50.4589 76.3656 54.4087 76.3575 58.3505 76.2517C60.1506 76.2037 60.7028 76.7317 60.6972 78.499C60.6329 97.8435 60.6695 117.188 60.6278 136.532C60.625 137.822 60.8032 138.334 62.3612 138.332C93.5744 138.282 124.788 138.294 156.001 138.293C156.209 138.293 156.415 138.271 156.622 138.259C156.622 143.16 156.622 148.063 156.622 152.965Z" fill="#FF0506"/>
</svg>
