<svg width="32" height="32" viewBox="0 0 32 32" fill="none" xmlns="http://www.w3.org/2000/svg">
<rect width="32" height="32" rx="16" fill="#D5F462"/>
<path fill-rule="evenodd" clip-rule="evenodd" d="M28 16.5C28 22.8513 22.8513 28 16.5 28C10.1487 28 5 22.8513 5 16.5C5 12.7378 6.80657 9.39763 9.59954 7.29952L7.3 5H16.5C22.8513 5 28 10.1487 28 16.5ZM14.0566 23.6875C10.484 23.6875 7.58778 20.7913 7.58778 17.2187C7.58778 16.988 7.59986 16.7601 7.62342 16.5356C7.84791 16.512 8.07581 16.4999 8.30653 16.4999C11.8791 16.4999 14.7753 19.3961 14.7753 22.9687C14.7753 23.1994 14.7632 23.4273 14.7397 23.6518C14.5151 23.6754 14.2873 23.6875 14.0566 23.6875ZM18.944 23.6875C22.5167 23.6875 25.4128 20.7913 25.4128 17.2187C25.4128 16.988 25.4007 16.7601 25.3771 16.5356C25.1527 16.512 24.9248 16.4999 24.694 16.4999C21.1214 16.4999 18.2253 19.3961 18.2253 22.9687C18.2253 23.1994 18.2374 23.4273 18.2609 23.6518C18.4854 23.6754 18.7133 23.6875 18.944 23.6875Z" fill="black"/>
</svg>
