<svg width="32" height="32" viewBox="0 0 32 32" fill="none" xmlns="http://www.w3.org/2000/svg">
<rect width="32" height="32" rx="16" fill="black"/>
<path d="M24.6231 17.9005C24.4826 17.8199 24.3435 17.7348 24.2074 17.6497C22.9978 16.8838 22.9978 15.1147 24.2074 14.3503C24.3435 14.2637 24.4826 14.1801 24.6231 14.0995C25.9389 13.341 26.3905 11.66 25.6309 10.3462C24.8713 9.03244 23.1877 8.58157 21.8718 9.33999C21.8045 9.3788 21.7358 9.41762 21.667 9.45494C20.3676 10.1701 18.7543 9.25489 18.7512 7.77538V7.74701C18.7512 6.23018 17.5192 5 16 5C14.4809 5 13.2488 6.23018 13.2488 7.74701C13.2488 7.75598 13.2488 7.76642 13.2488 7.77538C13.2458 9.25638 11.6324 10.1701 10.333 9.45494C10.2642 9.41762 10.1969 9.3788 10.1282 9.33999C8.81234 8.58157 7.12869 9.03095 6.3691 10.3462C5.60952 11.66 6.05959 13.341 7.3769 14.0995C7.51745 14.1801 7.65651 14.2652 7.79258 14.3503C9.00224 15.1162 9.00224 16.8853 7.79258 17.6497C7.65651 17.7363 7.51745 17.8199 7.3769 17.9005C6.06108 18.659 5.60952 20.3385 6.3691 21.6538C7.12869 22.9691 8.81234 23.4185 10.1282 22.66C10.1954 22.6212 10.2642 22.5824 10.333 22.5451C11.6324 21.8299 13.2458 22.7451 13.2488 24.2246C13.2488 24.2336 13.2488 24.2441 13.2488 24.253C13.2488 25.7698 14.4809 27 16 27C17.5192 27 18.7512 25.7698 18.7512 24.253V24.2246C18.7543 22.7436 20.3676 21.8299 21.667 22.5436C21.7358 22.5809 21.8031 22.6197 21.8718 22.6585C23.1877 23.417 24.8713 22.9676 25.6309 21.6523C26.3905 20.3385 25.9404 18.6575 24.6231 17.899V17.9005ZM24.4646 20.9819C24.2149 21.4149 23.7469 21.6837 23.2445 21.6837C23.0008 21.6837 22.7585 21.618 22.5447 21.4955C20.5576 20.3505 18.2952 19.7443 16 19.7443C13.7048 19.7443 11.4425 20.3505 9.4553 21.4955C9.23849 21.6209 9.00224 21.6837 8.75552 21.6837C8.25312 21.6837 7.7866 21.4149 7.5354 20.9819C7.14813 20.3116 7.3784 19.4517 8.04976 19.0651C12.0869 16.7375 14.5944 12.4005 14.5944 7.74701C14.5944 6.97367 15.2254 6.34365 16 6.34365C16.7745 6.34365 17.4056 6.97367 17.4056 7.74701C17.4056 12.4005 19.9131 16.7375 23.9503 19.0651C24.2747 19.2531 24.508 19.5547 24.6052 19.9175C24.7024 20.2803 24.653 20.658 24.4646 20.9819Z" fill="url(#paint0_linear_804_1143)"/>
<defs>
<linearGradient id="paint0_linear_804_1143" x1="19.9271" y1="22.389" x2="14.1662" y2="8.74714" gradientUnits="userSpaceOnUse">
<stop stop-color="#FFD569"/>
<stop offset="0.515056" stop-color="#FC8E4F"/>
<stop offset="1" stop-color="#FF697B"/>
</linearGradient>
</defs>
</svg>
