<svg width="32" height="32" viewBox="0 0 32 32" fill="none" xmlns="http://www.w3.org/2000/svg">
<path d="M16 32C24.8366 32 32 24.8366 32 16C32 7.16344 24.8366 0 16 0C7.16344 0 0 7.16344 0 16C0 24.8366 7.16344 32 16 32Z" fill="#13171F"/>
<path d="M16 8.07937C16.3303 8.07831 16.6543 8.16976 16.9353 8.34335C17.2163 8.51694 17.443 8.76575 17.5899 9.06159L22.5897 19.0616C22.7253 19.3326 22.7894 19.6339 22.7759 19.9367C22.7623 20.2395 22.6716 20.5338 22.5123 20.7916C22.3529 21.0495 22.1304 21.2623 21.8656 21.4099C21.6009 21.5575 21.3029 21.635 20.9998 21.6349H11.0002C10.6971 21.635 10.3991 21.5575 10.1344 21.4099C9.86964 21.2623 9.64705 21.0495 9.48774 20.7916C9.32843 20.5338 9.23769 20.2395 9.22413 19.9367C9.21057 19.6339 9.27465 19.3326 9.41028 19.0616L14.4101 9.06159C14.557 8.76575 14.7837 8.51694 15.0647 8.34335C15.3457 8.16976 15.6697 8.07831 16 8.07937ZM16 6.85715C15.4429 6.85708 14.8969 7.01214 14.423 7.30493C13.949 7.59773 13.566 8.01671 13.3168 8.51492L8.317 18.5149C8.08818 18.9723 7.98009 19.4807 8.00301 19.9916C8.02593 20.5025 8.17909 20.9991 8.44795 21.4342C8.7168 21.8693 9.09242 22.2284 9.53912 22.4775C9.98583 22.7265 10.4888 22.8572 11.0002 22.8571H20.9998C21.5112 22.8572 22.0142 22.7265 22.4609 22.4775C22.9076 22.2284 23.2832 21.8693 23.5521 21.4342C23.8209 20.9991 23.9741 20.5025 23.997 19.9916C24.0199 19.4807 23.9118 18.9723 23.683 18.5149L18.6832 8.51492C18.434 8.01671 18.051 7.59773 17.577 7.30493C17.1031 7.01214 16.5571 6.85708 16 6.85715Z" fill="#70D44B"/>
</svg>
