<svg width="32" height="32" viewBox="0 0 32 32" fill="none" xmlns="http://www.w3.org/2000/svg">
<rect width="32" height="32" rx="16" fill="#FDF6DC"/>
<path d="M14.4979 5.15759L16.7053 6.54994L14.9924 12.3766L12.7855 10.9843L14.4979 5.15759ZM11.8883 14.0353L14.0951 15.4276L11.9394 22.7643L9.73193 21.3726L11.8883 14.0353Z" fill="#B0915A"/>
<path d="M18.0807 8.24473C17.9119 8.13948 17.7166 8.08434 17.5177 8.08572H14.3516L16.5591 9.48001H19.7252C19.9249 9.47742 20.1214 9.53172 20.2908 9.63773L18.0807 8.24473ZM15.5817 14.0352L17.7879 15.4276H14.095L11.8882 14.0352H15.5817Z" fill="#997D4C"/>
<path d="M17.2691 10.9843L19.4766 12.3766L17.7882 15.4276L15.582 14.0353L17.2691 10.9843Z" fill="#AB8E56"/>
<path d="M24.2843 10.4516C24.2793 10.3341 24.2698 10.2168 24.2558 10.0999V10.0896C24.2369 9.94493 24.2111 9.80126 24.1783 9.6591C24.1692 9.62096 24.1569 9.58476 24.1472 9.54662C24.1214 9.44432 24.0918 9.34299 24.0587 9.24281C24.0541 9.23053 24.0516 9.21696 24.047 9.20468C24.0348 9.17042 24.0186 9.14133 24.0057 9.10513C23.9714 9.01241 23.9336 8.92099 23.8925 8.83106C23.8693 8.78064 23.8447 8.73151 23.8201 8.68238C23.7771 8.5995 23.7314 8.51801 23.6831 8.43804C23.667 8.41089 23.654 8.38116 23.6366 8.35401C23.6198 8.32751 23.5971 8.29583 23.5771 8.26675L23.5267 8.19176C23.4624 8.09798 23.3936 8.00738 23.3205 7.92027L23.3172 7.9164C23.2279 7.81013 23.133 7.70871 23.0328 7.61259L23.0212 7.60095C22.9779 7.55958 22.9307 7.52338 22.8855 7.4846C22.8402 7.44452 22.7885 7.39669 22.7368 7.35661L22.7239 7.34562C22.629 7.27249 22.5308 7.20369 22.4297 7.13942L20.2184 5.74707C20.3244 5.8143 20.4272 5.88734 20.5254 5.96426C20.5771 6.00498 20.6256 6.04959 20.6754 6.0916C20.7245 6.13297 20.7749 6.1737 20.8208 6.2183C21.0042 6.39428 21.1697 6.58807 21.3147 6.79683C21.3328 6.82139 21.349 6.84725 21.3664 6.87246C21.4026 6.92805 21.4375 6.98558 21.4711 7.04375C21.548 7.17053 21.6177 7.30153 21.6799 7.43612C21.7219 7.52597 21.7588 7.6184 21.7943 7.71084C21.8111 7.75738 21.8299 7.80263 21.846 7.84917C21.8803 7.94872 21.9094 8.0502 21.9346 8.15298C21.9443 8.19112 21.9572 8.22732 21.9656 8.26545C22.0268 8.52536 22.0632 8.7905 22.0742 9.0573C22.0742 9.07927 22.0742 9.1019 22.0774 9.12452C22.0813 9.24475 22.0807 9.36628 22.0774 9.4878C22.0774 9.50978 22.0774 9.53176 22.0736 9.55503C22.0671 9.67138 22.0555 9.79032 22.0387 9.90861C22.0387 9.92154 22.0387 9.93576 22.0335 9.94933C22.01 10.1007 21.98 10.251 21.9436 10.3999C21.9142 10.5202 21.8797 10.6393 21.8402 10.7567C21.8182 10.8207 21.7917 10.8886 21.7665 10.9545C21.742 11.0204 21.7109 11.1045 21.6786 11.1794C21.6528 11.2376 21.6237 11.2958 21.5959 11.3533C21.5493 11.4503 21.5041 11.544 21.4504 11.6423L19.8538 14.491L19.5112 15.0456C19.5145 15.0456 19.5222 15.0585 19.5306 15.0714L19.5423 15.0856L19.5713 15.1244L19.5907 15.1522L19.6295 15.2072L19.6554 15.2453L19.7006 15.3158L19.7297 15.361C19.762 15.4114 19.7931 15.4677 19.8312 15.5291L19.848 15.5588C19.879 15.6138 19.9114 15.6732 19.943 15.7359C19.993 15.833 20.0402 15.9315 20.0846 16.0313C20.0878 16.041 20.0917 16.052 20.0962 16.0611C20.1292 16.1373 20.1596 16.2181 20.1919 16.3022C20.2022 16.3306 20.2132 16.3591 20.2229 16.3888C20.2371 16.4276 20.2501 16.4677 20.263 16.5077C20.2988 16.6265 20.3318 16.7461 20.3619 16.8665C20.3716 16.9066 20.3813 16.9544 20.3903 16.9996C20.3994 17.0449 20.4071 17.0817 20.4149 17.1263L20.4362 17.2673C20.4582 17.4181 20.4716 17.57 20.4763 17.7223L22.6831 19.114C22.6795 19.0028 22.6713 18.8917 22.6586 18.7811V18.7462L22.6456 18.6583C22.6392 18.6119 22.6321 18.5656 22.6243 18.5193C22.6165 18.4741 22.6088 18.4353 22.6004 18.392C22.5917 18.3476 22.5823 18.3035 22.5719 18.2595L22.5422 18.1405C22.5204 18.06 22.4971 17.9798 22.4724 17.9001L22.4336 17.7818C22.4278 17.7669 22.4226 17.7501 22.4181 17.7352L22.4013 17.6945C22.3715 17.6135 22.3396 17.5334 22.3056 17.4541C22.3017 17.4444 22.2979 17.4334 22.2933 17.425C22.2583 17.344 22.221 17.264 22.1815 17.1852L22.1524 17.1283C22.1226 17.0686 22.0911 17.0098 22.0581 16.9518L22.0412 16.9227C22.0085 16.8653 21.9744 16.8086 21.9391 16.7527L21.9307 16.7398L21.9113 16.7088L21.8648 16.6377L21.8389 16.5989L21.8008 16.5459L21.7807 16.5174L21.7523 16.4786L21.7407 16.4638L21.7213 16.4379L22.0639 15.884L23.6553 13.0398C23.676 13.0016 23.6967 12.9642 23.7187 12.9273C23.7497 12.8685 23.7743 12.8097 23.8027 12.7502C23.8318 12.6914 23.8602 12.6345 23.8854 12.577C23.8919 12.5621 23.9003 12.5472 23.9068 12.5317C23.9326 12.4722 23.9514 12.4121 23.974 12.3514C23.9966 12.2912 24.0257 12.2201 24.0477 12.1549C24.0516 12.1413 24.058 12.129 24.0619 12.1154C24.0955 12.0094 24.1252 11.9028 24.1511 11.7974L24.166 11.734C24.1705 11.7121 24.1808 11.6778 24.1867 11.65C24.208 11.5492 24.2261 11.4477 24.241 11.3475C24.241 11.3333 24.2442 11.3204 24.2461 11.3061C24.2571 11.2279 24.2668 11.1503 24.2733 11.0728C24.2772 11.0327 24.2784 10.9926 24.281 10.9525L24.2849 10.8853C24.2907 10.7638 24.2914 10.6423 24.2849 10.522V10.4509L24.2843 10.4516Z" fill="#B29257"/>
<path d="M20.4738 17.7198L22.6812 19.1122H16.2495L14.0427 17.7198H20.4738Z" fill="#997D4C"/>
<path d="M25.9967 18.622C25.9967 18.529 25.9928 18.4359 25.987 18.3441C25.987 18.315 25.987 18.2872 25.9825 18.2594C25.9757 18.1517 25.966 18.0441 25.9534 17.9369C25.9534 17.9291 25.9534 17.922 25.9502 17.9142C25.9424 17.8502 25.9321 17.7869 25.9224 17.7235C25.9127 17.6596 25.903 17.591 25.8914 17.5258C25.8797 17.4634 25.8667 17.4014 25.8526 17.3396C25.8396 17.2801 25.8267 17.209 25.8106 17.1444C25.795 17.0797 25.7782 17.0222 25.7621 16.9614C25.7453 16.9 25.7285 16.8341 25.7091 16.7708C25.6897 16.7068 25.6703 16.6505 25.6509 16.5904C25.6309 16.5309 25.6166 16.4818 25.5979 16.4288C25.5947 16.421 25.5908 16.4133 25.5882 16.4049C25.5648 16.3423 25.5404 16.28 25.5152 16.2181C25.4912 16.1586 25.4712 16.1024 25.446 16.0461C25.4192 15.9851 25.3919 15.9243 25.3639 15.8638C25.3361 15.8037 25.3135 15.752 25.2863 15.6971C25.2592 15.6415 25.223 15.5801 25.1945 15.5213C25.1678 15.4665 25.1393 15.4126 25.1092 15.3597C25.0765 15.3026 25.0429 15.2462 25.0084 15.1903C24.9741 15.1347 24.9541 15.0972 24.9256 15.052C24.8484 14.9297 24.7671 14.8101 24.6819 14.6932C24.6625 14.6654 24.6412 14.6396 24.6192 14.6118C24.5566 14.5296 24.493 14.4482 24.4286 14.3674C24.4182 14.3539 24.4085 14.339 24.3969 14.3267C24.3691 14.2937 24.34 14.2627 24.3116 14.2297L24.1997 14.103C24.1616 14.0604 24.1131 14.0113 24.0692 13.9673C24.0258 13.9221 23.9916 13.8872 23.9528 13.8497L23.9192 13.8154C23.8561 13.7546 23.7912 13.6958 23.7246 13.6389L21.5172 12.2466C21.5947 12.3138 21.6704 12.3856 21.7453 12.4573L21.8617 12.5737C21.8992 12.6124 21.9502 12.6642 21.9929 12.7107C22.0362 12.7572 22.0672 12.7941 22.1041 12.838C22.1409 12.882 22.1836 12.9285 22.2224 12.9757C22.287 13.0552 22.3504 13.1373 22.4124 13.2201L22.4758 13.3022C22.5559 13.414 22.6335 13.5284 22.7085 13.646C22.7408 13.6965 22.7725 13.7495 22.8028 13.8012C22.8332 13.8535 22.8701 13.9111 22.9017 13.968C22.9334 14.0248 22.9599 14.0765 22.9884 14.1315C23.0168 14.1858 23.0517 14.2466 23.0789 14.306L23.1571 14.4734C23.1829 14.529 23.2127 14.593 23.2398 14.6544C23.2657 14.7152 23.2857 14.7695 23.3083 14.8283C23.3316 14.8865 23.3581 14.9511 23.3807 15.0132C23.404 15.0752 23.4227 15.1399 23.4441 15.2C23.4661 15.2595 23.4854 15.3189 23.5035 15.379C23.521 15.4398 23.5385 15.5064 23.5553 15.5697C23.5727 15.6337 23.5902 15.6919 23.6044 15.7533C23.6193 15.8154 23.6328 15.8807 23.6464 15.944C23.6744 16.0719 23.6975 16.2009 23.7156 16.3306C23.7253 16.3991 23.7363 16.4579 23.744 16.5212C23.7582 16.635 23.7686 16.7501 23.777 16.8651C23.785 16.9859 23.7897 17.1068 23.7912 17.2278V17.3292C23.7912 17.4482 23.7912 17.5671 23.7809 17.6867C23.7647 17.9477 23.7353 18.2076 23.6929 18.4656L23.6723 18.5762C23.6593 18.6492 23.6464 18.7235 23.6309 18.7959C23.6238 18.8302 23.6147 18.8638 23.6063 18.8987C23.5895 18.9756 23.5708 19.0532 23.5514 19.1301L23.5152 19.2575C23.4958 19.3247 23.477 19.3919 23.4557 19.4585C23.4396 19.5089 23.4227 19.5593 23.4053 19.6091C23.3885 19.6595 23.371 19.7125 23.3523 19.7629C23.3342 19.814 23.3142 19.8638 23.2941 19.9136C23.2747 19.964 23.2553 20.0144 23.2346 20.0642L23.1991 20.1456C23.126 20.3156 23.0472 20.4824 22.9619 20.6453L22.9328 20.697C22.8446 20.862 22.7504 21.0237 22.6503 21.1818L22.6264 21.2167C22.5197 21.3822 22.4073 21.5425 22.2883 21.6976L22.267 21.7248C22.1403 21.889 22.0065 22.0467 21.8662 22.1986L21.7938 22.2762C21.7402 22.3324 21.6865 22.388 21.6309 22.4423L21.5365 22.5341C21.4835 22.5838 21.4299 22.6343 21.3749 22.6827L21.2844 22.7648C21.1836 22.8531 21.0796 22.9378 20.9729 23.0189L20.9619 23.0273C20.8585 23.1068 20.7525 23.1824 20.6452 23.2561L20.5585 23.3143C20.4377 23.3944 20.3155 23.4727 20.1901 23.545L20.1739 23.5541C20.0524 23.6239 19.9283 23.6898 19.8022 23.7525L19.715 23.7959C19.5867 23.859 19.456 23.9173 19.3233 23.9704L19.2599 23.9937C19.1397 24.0408 19.0182 24.0841 18.896 24.1249L18.8133 24.152C18.6775 24.1947 18.5392 24.2328 18.3996 24.2664L18.3123 24.2871C18.1839 24.3167 18.0545 24.3421 17.9245 24.3634C17.9044 24.3634 17.885 24.3711 17.865 24.3731C17.6878 24.4012 17.5094 24.421 17.3304 24.4326C17.1809 24.4438 17.0311 24.4496 16.8812 24.45H5.58398L7.79145 25.8424H19.0867C19.2366 25.8418 19.3864 25.8357 19.5359 25.8243C19.5702 25.8243 19.6032 25.8204 19.6368 25.8172C19.7829 25.8049 19.9277 25.7881 20.0712 25.7661L20.13 25.7551C20.2605 25.7338 20.3892 25.7086 20.5178 25.6788L20.6057 25.6588C20.7447 25.6245 20.883 25.5864 21.0194 25.5444L21.1015 25.5172C21.2243 25.4771 21.3459 25.4332 21.4661 25.386L21.5294 25.3621C21.6619 25.3078 21.7925 25.2496 21.9212 25.1876L22.0084 25.1442C22.1351 25.0809 22.2579 25.0176 22.3801 24.9458L22.3956 24.9374C22.5223 24.865 22.6438 24.7868 22.7647 24.706L22.8087 24.6782L22.85 24.6485C22.958 24.5741 23.0633 24.4985 23.1668 24.4183L23.1771 24.4119C23.2838 24.3291 23.3872 24.2425 23.4893 24.154L23.5262 24.1236L23.5798 24.0732C23.6348 24.024 23.6891 23.9736 23.7421 23.9225C23.8303 23.8391 23.9159 23.7529 23.9987 23.664L24.062 23.6013L24.075 23.5864C24.2152 23.4339 24.3484 23.2761 24.4757 23.112L24.4906 23.0945L24.4971 23.0855C24.616 22.9303 24.7285 22.7681 24.8351 22.6052L24.8519 22.5806C24.9552 22.4197 25.0516 22.2545 25.1409 22.0855C25.1473 22.0738 25.1551 22.0628 25.1609 22.0512L25.17 22.0331C25.254 21.8696 25.3335 21.7028 25.4078 21.5328L25.4266 21.4934L25.4428 21.4526C25.4641 21.4016 25.4835 21.3512 25.5067 21.3001C25.5294 21.249 25.5455 21.2018 25.5636 21.1514C25.5817 21.101 25.5998 21.048 25.6173 20.9956L25.6554 20.8857L25.6671 20.847C25.6877 20.7804 25.7071 20.7119 25.7265 20.6446C25.7382 20.6026 25.7511 20.5606 25.7621 20.5179C25.7821 20.4404 25.8009 20.3628 25.8183 20.2846C25.8248 20.2542 25.8332 20.2251 25.8396 20.1954V20.1831C25.8558 20.1101 25.8687 20.0364 25.8817 19.9633C25.8881 19.9258 25.8965 19.8903 25.9017 19.8534C25.9204 19.7429 25.9353 19.6317 25.9489 19.5193C25.9586 19.4333 25.9683 19.348 25.9754 19.2613C25.9819 19.198 25.9864 19.1346 25.9903 19.0707C25.9967 18.9517 26 18.8328 26 18.7145C25.9967 18.6886 25.9967 18.6557 25.9967 18.622Z" fill="url(#paint0_linear_595_123)"/>
<path d="M18.1201 5.15759C21.3379 5.15759 23.1058 8.68566 21.4478 11.6442L19.8512 14.4929L19.5086 15.0475C19.5552 15.1057 20.4291 16.2091 20.4737 17.7172H14.042L18.4246 9.791C18.857 9.0108 18.3645 8.08256 17.5177 8.08256H14.3516L15.1021 5.15759H18.1208H18.1201Z" fill="#F4D78B"/>
<path d="M21.5178 12.2499C22.9412 13.4845 23.9082 15.5556 23.7809 17.6881C23.7718 17.8381 23.7569 17.9867 23.7395 18.1328C23.3361 21.6544 20.3362 24.4533 16.8818 24.4533H5.58398L11.284 5.15759H14.4985L12.7868 10.9843H17.2703L15.5832 14.0353H11.8883L9.73389 21.3726H17.0557C19.0175 21.3726 20.715 19.7197 20.8371 17.6862C20.894 16.736 20.5146 15.6422 19.9832 14.9894L21.5178 12.2499Z" fill="#F4D78B"/>
<defs>
<linearGradient id="paint0_linear_595_123" x1="5.58398" y1="692.443" x2="2047" y2="692.443" gradientUnits="userSpaceOnUse">
<stop offset="0.18" stop-color="#997D4C"/>
<stop offset="0.91" stop-color="#AA8C52"/>
<stop offset="0.98" stop-color="#AC8E53"/>
</linearGradient>
</defs>
</svg>
