<svg width="200" height="200" viewBox="0 0 200 200" fill="none" xmlns="http://www.w3.org/2000/svg">
<rect width="200" height="200" rx="100" fill="black"/>
<path fill-rule="evenodd" clip-rule="evenodd" d="M141.356 77.3507C141.877 74.8682 142.153 72.3039 142.153 69.6898C142.183 44.9146 118.775 26.791 94.9226 33.3546L31 50.9394L62.9965 103.743L124.375 86.8606C125.19 86.6356 126.012 86.4473 126.843 86.2966C123.195 91.2325 117.997 94.807 112.078 96.4523L44.4711 115.197L76.4615 168L141.558 149.945C157.797 145.438 169 130.587 169 113.686C169.024 105.439 166.33 97.4142 161.334 90.8483C156.338 84.2817 149.319 79.5394 141.356 77.3507ZM132.341 69.6714C132.372 51.2593 115.023 37.9813 97.5218 42.7956L46.1048 56.9452L67.5482 92.3337L121.77 77.4135C124.973 76.5273 128.28 76.072 131.603 76.059C132.084 73.9966 132.341 71.8654 132.341 69.6714ZM128.449 98.7374C124.418 102.052 119.738 104.488 114.708 105.887L59.5575 121.177L81.007 156.572L138.934 140.504C144.779 138.858 149.926 135.345 153.585 130.502C157.245 125.659 159.216 119.753 159.198 113.686C159.222 107.47 157.159 101.427 153.334 96.5235C149.512 91.6197 144.151 88.1393 138.11 86.641C135.771 91.3021 132.479 95.423 128.449 98.7374Z" fill="#FF474C"/>
</svg>
