<svg width="28" height="28" viewBox="0 0 28 28" fill="none" xmlns="http://www.w3.org/2000/svg">
<path d="M14 28C21.732 28 28 21.732 28 14C28 6.26801 21.732 0 14 0C6.26801 0 0 6.26801 0 14C0 21.732 6.26801 28 14 28Z" fill="black"/>
<path d="M23.7877 11.9594C23.6557 11.3184 23.4606 10.6921 23.2053 10.0896C22.9537 9.49613 22.6458 8.92811 22.2858 8.39334C21.9289 7.86501 21.5218 7.37239 21.0702 6.92236C20.6199 6.47067 20.127 6.06355 19.5984 5.70669C19.0628 5.34857 18.4952 5.04077 17.9029 4.78723C16.6781 4.26772 15.3612 4 14.0307 4C12.7002 4 11.3833 4.26772 10.1584 4.78723C8.97396 5.28681 7.89819 6.01231 6.99115 6.92319C6.53954 7.37296 6.13243 7.8653 5.77548 8.39334C5.41731 8.92918 5.10951 9.49702 4.85601 10.0896C4.33651 11.3145 4.06879 12.6314 4.06879 13.9619C4.06879 15.2924 4.33651 16.6093 4.85601 17.8341C5.10132 18.4265 5.41837 18.9881 5.77548 19.5296C6.13241 20.0581 6.53952 20.551 6.99115 21.0014C7.44144 21.4531 7.93434 21.8602 8.46296 22.2171C8.99362 22.5742 9.56599 22.8812 10.1584 23.1365C11.3833 23.656 12.7002 23.9237 14.0307 23.9237C15.3612 23.9237 16.6781 23.656 17.9029 23.1365C18.4953 22.8912 19.0569 22.5742 19.5984 22.2171C20.127 21.8602 20.6199 21.4531 21.0702 21.0014C21.5219 20.5511 21.929 20.0582 22.2858 19.5296C22.6429 18.9989 22.95 18.4265 23.2053 17.8341C23.9913 15.9804 24.1944 13.9314 23.7877 11.9594ZM14.0398 22.6768C9.22807 22.6768 5.33577 18.7736 5.33577 13.9719C5.33577 9.17013 9.23892 5.26699 14.0398 5.26699C18.8416 5.26699 22.7447 9.17013 22.7447 13.9719C22.7447 18.7736 18.8424 22.6768 14.0398 22.6768Z" fill="white"/>
<path d="M14.1942 21.9208H14.4295C14.4704 21.9208 14.5105 21.9208 14.5513 21.91H14.5622C14.6031 21.91 14.6331 21.91 14.674 21.9H14.7049C14.7357 21.9 14.7666 21.9 14.7966 21.89H14.8275C14.8584 21.89 14.8893 21.88 14.9301 21.88H14.9502C14.9911 21.88 15.0319 21.8691 15.0728 21.8691C15.1137 21.8691 15.1446 21.8591 15.1855 21.8491H15.2055C15.2364 21.8491 15.2672 21.8391 15.2973 21.8391H15.3181C15.359 21.8282 15.3899 21.8282 15.4308 21.8182C15.5117 21.8082 15.5935 21.7873 15.6652 21.7673H15.6861C15.7161 21.7573 15.757 21.7573 15.7879 21.7465H15.7979C15.8797 21.7264 15.9514 21.7056 16.0332 21.6856C15.2679 21.7098 14.5026 21.6378 13.7554 21.4711C12.6306 21.2258 11.5585 20.7869 10.649 20.0302C9.93206 19.4335 9.35666 18.6849 8.96445 17.8386C8.57224 16.9923 8.37304 16.0694 8.38124 15.1366C8.3886 13.7451 8.88374 12.4002 9.78046 11.3361C10.9452 9.95693 12.6006 9.23104 14.296 9.19015H14.5313V7.83181H14.266C13.7502 7.84126 13.2367 7.90276 12.7333 8.01537C12.2267 8.12992 11.7336 8.29773 11.2623 8.51599C10.7817 8.74126 10.332 9.0166 9.91313 9.33366C9.48031 9.66267 9.08619 10.0397 8.73835 10.4575C8.41083 10.8443 8.12657 11.2656 7.89063 11.7141C7.65722 12.1465 7.46878 12.6016 7.32827 13.0724C7.19045 13.536 7.09823 14.0119 7.05294 14.4934L7.02206 14.9422V15.2076C7.03208 15.729 7.09382 16.2397 7.20562 16.7403C7.31826 17.2518 7.49181 17.7415 7.70624 18.2121C7.96239 18.7736 8.42212 19.6013 9.1063 20.2246C10.5033 21.3259 12.231 21.9235 14.0098 21.9208H14.1942Z" fill="white"/>
<path d="M16.4211 20.6126C15.9172 20.5946 15.4152 20.5399 14.9192 20.449C12.815 20.0711 11.0061 18.7836 10.3428 16.8429C9.5351 14.4825 10.7716 11.9285 13.1212 11.1526C13.569 11.0025 14.0382 10.9264 14.5104 10.9273C15.1136 10.9273 15.7161 11.0499 16.2684 11.2744L16.8399 10.0587C16.6681 9.98981 16.4945 9.92527 16.3193 9.86515C15.7339 9.68143 15.1239 9.5883 14.5104 9.58898C13.8957 9.59013 13.2852 9.69014 12.7023 9.88518C11.9584 10.1306 11.2732 10.5271 10.6899 11.0499C10.4085 11.3006 10.152 11.5777 9.92392 11.8776C9.69843 12.1741 9.50332 12.4925 9.34153 12.828C9.01209 13.5025 8.81765 14.2349 8.76916 14.984C8.71826 15.7599 8.82006 16.5359 9.07537 17.2718C9.33551 18.0288 9.75359 18.7219 10.3019 19.3051C10.8025 19.8466 11.3849 20.2555 12.0891 20.6334C12.825 21.0214 13.7344 21.2258 14.684 21.3593C15.2972 21.4403 16.1149 21.4611 16.5946 21.4611C17.0135 21.3076 17.187 21.2358 17.4123 21.1441C17.6067 21.0523 17.8003 20.9605 17.9947 20.8479C18.1891 20.7352 18.22 20.7144 18.5462 20.5008C18.5753 20.4827 18.6026 20.462 18.628 20.439C17.5041 20.6334 17.2179 20.6226 16.4211 20.6126Z" fill="white"/>
<path d="M18.9351 19.0907C18.618 19.1107 18.1683 19.1408 17.6577 19.1408C16.7482 19.1408 15.6343 19.0598 14.6848 18.7428C13.213 18.253 11.8238 16.9964 11.8238 15.4429C11.8235 15.0752 11.8957 14.711 12.0362 14.3712C12.1768 14.0315 12.383 13.7227 12.643 13.4627C12.903 13.2027 13.2117 12.9966 13.5515 12.856C13.8912 12.7154 14.2554 12.6432 14.6231 12.6436C15.6752 12.6436 16.5847 13.226 17.0653 14.0737L18.2809 13.4713C18.0903 13.1124 17.8455 12.7851 17.555 12.5009C17.1702 12.1154 16.7131 11.8096 16.2099 11.6009C15.7068 11.3922 15.1674 11.2848 14.6227 11.2848C14.0779 11.2848 13.5386 11.3922 13.0354 11.6009C12.5322 11.8096 12.0752 12.1154 11.6903 12.5009C11.3049 12.8857 10.9992 13.3428 10.7906 13.8459C10.582 14.3489 10.4746 14.8882 10.4746 15.4329C10.4774 16.0036 10.5996 16.5675 10.8334 17.0882C11.047 17.558 11.344 17.9977 11.722 18.4065C12.3862 19.1207 13.2948 19.6931 14.266 20.0202C15.1955 20.3264 16.5646 20.439 17.893 20.3472C18.2601 20.3164 18.5362 20.2855 19.006 20.1837C19.4593 19.826 19.8708 19.4182 20.2325 18.968C19.9154 18.9989 19.3331 19.0598 18.9351 19.0907Z" fill="white"/>
</svg>
