<svg width="32" height="32" viewBox="0 0 32 32" fill="none" xmlns="http://www.w3.org/2000/svg">
<rect width="32" height="32" rx="16" fill="#A36EFE"/>
<path d="M8.63774 7.27253C10.4222 7.09084 11.6121 7 16.0007 7C19.7659 7 21.601 7.12091 23.3637 7.27253C24.1876 7.34332 24.8448 7.89903 24.7843 8.63391L24.127 16.5705C23.9212 16.6234 23.6966 16.6901 23.4448 16.765C22.1264 17.1573 20.0596 17.7721 16.0007 17.7721C11.9419 17.7721 9.87505 17.1573 8.55662 16.765C8.30507 16.6902 8.08076 16.6235 7.87507 16.5707L7.21778 8.63391C7.15654 7.89903 7.81588 7.35648 8.63844 7.27253H8.63774Z" fill="#4C2896"/>
<path d="M23.8121 20.3736C23.7965 20.3858 23.7806 20.3982 23.7644 20.4107C22.7278 21.2101 20.34 22.5097 16.0015 22.5097C10.634 22.5097 8.28103 20.5462 7.73008 19.9611C7.64705 19.8727 7.5992 19.7631 7.59147 19.6478L7.49545 18.0988C6.85644 17.7881 6.19678 17.4369 6.19678 17.4369C5.15961 16.9388 4.00211 17.6543 4.00001 18.7037C3.99647 20.4015 5.49313 22.1463 7.51191 23.2458C9.78821 24.4856 13.1861 25 16 25C18.8139 25 22.2118 24.4856 24.4881 23.2458C26.5069 22.1463 28.0035 20.4021 28 18.7037C27.9979 17.6543 26.8404 16.9388 25.8032 17.4369C25.8032 17.4369 25.1447 17.7872 24.5062 18.0978L24.4093 19.6616C24.403 19.7681 24.358 19.8683 24.282 19.9504C24.1868 20.0525 24.0324 20.2001 23.8121 20.3736Z" fill="#4C2896"/>
</svg>
