<svg width="200" height="200" viewBox="0 0 200 200" fill="none" xmlns="http://www.w3.org/2000/svg">
<rect width="200" height="200" rx="100" fill="#15121D"/>
<path d="M174.997 82.0314L140.877 103.758C167.792 82.5578 167.792 59.7157 167.792 59.7157L132.078 94.4316C156.115 55.1683 147.316 39 147.316 39L118.869 86.3051C112.628 84.6102 106.197 83.7539 99.738 83.7578H99.2826C92.8235 83.7539 86.3922 84.6102 80.1519 86.3051L51.7046 39C51.7046 39 41.7459 53.8421 65.7833 93.1051L31.2903 59.7157C31.2903 59.7157 27.7706 80.0105 56.5285 102.495C56.3835 102.726 24.0025 82.0314 24.0025 82.0314C24.0025 82.0314 23.1743 101.526 51.7046 117.168V117.674C51.7046 138.874 72.9676 160.768 99.3238 161H99.7795C126.094 160.768 147.399 138.874 147.399 117.674V117.168C175.826 101.526 174.997 82.0314 174.997 82.0314ZM83.4026 138.979C83.4026 138.979 74.9553 139.526 70.0898 134.579C65.2242 129.632 65.8248 121.063 65.8248 121.063C65.8248 121.063 74.2721 120.495 79.1374 125.463C84.003 130.431 83.4026 138.979 83.4026 138.979ZM128.951 134.579C124.086 139.526 115.66 138.979 115.66 138.979C115.66 138.979 115.121 130.41 119.987 125.463C124.852 120.516 133.279 121.063 133.279 121.063C133.279 121.063 133.755 129.632 128.869 134.579H128.951Z" fill="url(#paint0_linear_436_119)"/>
<defs>
<linearGradient id="paint0_linear_436_119" x1="56.6322" y1="132.705" x2="147.056" y2="33.6166" gradientUnits="userSpaceOnUse">
<stop stop-color="#EB1357"/>
<stop offset="1" stop-color="#DB23C8"/>
</linearGradient>
</defs>
</svg>
