<svg width="200" height="200" viewBox="0 0 200 200" fill="none" xmlns="http://www.w3.org/2000/svg">
<rect width="200" height="200" rx="100" fill="#24201F"/>
<path d="M40.754 116.762C37.768 113.775 35.7655 110.326 34.7465 106.415C33.7512 102.481 33.7512 98.546 34.7465 94.6113C35.7655 90.6529 37.7561 87.1922 40.7184 84.2295C43.7281 81.2193 47.1999 79.2163 51.1338 78.221C55.0677 77.2253 59.0016 77.2253 62.9355 78.221C66.8692 79.2163 70.3293 81.2073 73.3154 84.1939L80.709 91.5894L91.6578 80.6384L84.2638 73.2433C81.2777 70.2567 79.2753 66.8079 78.2562 62.8969C77.2609 58.9622 77.2493 55.0394 78.2207 51.1284C79.2163 47.1937 81.2187 43.7213 84.2284 40.711C87.2141 37.7244 90.6741 35.7334 94.6081 34.7379C98.542 33.7424 102.464 33.7542 106.374 34.7734C110.308 35.7689 113.768 37.76 116.754 40.7466C119.74 43.7331 121.731 47.1937 122.726 51.1284C123.745 55.0394 123.757 58.9622 122.761 62.8969C121.79 66.8553 119.811 70.3279 116.825 73.3142L109.467 80.674L120.38 91.5894L127.738 84.2295C130.724 81.2429 134.172 79.2399 138.082 78.221C142.016 77.2253 145.938 77.237 149.849 78.2562C153.783 79.2519 157.254 81.2549 160.264 84.2651C163.25 87.2518 165.24 90.7121 166.236 94.6469C167.255 98.558 167.255 102.469 166.236 106.38C165.24 110.315 163.25 113.775 160.264 116.762C157.254 119.772 153.783 121.775 149.849 122.771C145.938 123.742 142.016 123.73 138.082 122.735C134.196 121.739 130.76 119.748 127.774 116.762L120.415 109.402L109.467 120.353L116.825 127.713C119.811 130.699 121.79 134.148 122.761 138.059C123.757 141.993 123.757 145.928 122.761 149.863C121.766 153.798 119.764 157.27 116.754 160.28C113.792 163.243 110.332 165.234 106.374 166.253C102.44 167.249 98.5065 167.249 94.5726 166.253C90.6861 165.258 87.2496 163.267 84.2638 160.28C81.2542 157.27 79.2398 153.809 78.2207 149.899C77.2254 145.964 77.2254 142.029 78.2207 138.094C79.2637 134.16 81.2661 130.711 84.2284 127.748L91.6578 120.317L80.7448 109.402L73.3154 116.833C70.3531 119.796 66.8812 121.775 62.8999 122.771C58.966 123.766 55.0322 123.766 51.0983 122.771C47.1881 121.751 43.7399 119.748 40.754 116.762ZM49.6408 107.873C50.9916 109.224 52.5556 110.125 54.333 110.575C56.1341 111.049 57.9233 111.061 59.7007 110.611C61.478 110.161 63.0421 109.26 64.3929 107.909L71.8223 100.478L64.4284 93.0827C63.0776 91.7314 61.5017 90.8425 59.7007 90.4161C57.9233 89.9656 56.146 89.9656 54.3686 90.4161C52.5912 90.8665 51.0153 91.779 49.6408 93.1535C48.29 94.5048 47.3776 96.0574 46.9037 97.8112C46.4534 99.5889 46.4534 101.367 46.9037 103.144C47.3776 104.946 48.29 106.522 49.6408 107.873ZM93.1505 64.3546L100.544 71.75L107.903 64.3902C109.277 63.0154 110.178 61.451 110.604 59.697C111.054 57.9193 111.043 56.1297 110.569 54.3283C110.119 52.5506 109.218 50.9862 107.867 49.6351C106.516 48.284 104.952 47.3833 103.175 46.933C101.397 46.4826 99.6202 46.4826 97.8429 46.933C96.0892 47.3596 94.5252 48.2603 93.1505 49.6351C91.7997 50.9862 90.8758 52.5506 90.378 54.3283C89.9276 56.106 89.9276 57.8837 90.378 59.6614C90.8758 61.4392 91.7997 63.0035 93.1505 64.3546ZM127.22 100.513L134.579 107.873C135.929 109.224 137.482 110.137 139.236 110.611C141.013 111.061 144.86 111.049 146.614 110.575C148.391 110.125 149.967 109.213 151.342 107.838C152.716 106.463 153.617 104.899 154.043 103.144C154.517 101.39 154.529 99.6245 154.079 97.8468C153.628 96.069 152.728 94.5048 151.377 93.1535C150.002 91.779 148.426 90.8665 146.649 90.4161C144.872 89.9656 141.013 89.9656 139.236 90.4161C137.505 90.8665 135.953 91.779 134.579 93.1535L127.22 100.513ZM93.1505 151.392C94.5016 152.743 96.0656 153.643 97.8429 154.094C99.6202 154.544 101.386 154.532 103.14 154.058C104.917 153.608 106.481 152.707 107.832 151.356C109.206 149.981 110.119 148.405 110.569 146.627C111.043 144.873 111.054 143.108 110.604 141.33C110.178 139.528 109.289 137.952 107.938 136.601L100.58 129.241L93.1505 136.672C91.7997 138.023 90.8874 139.576 90.4135 141.33C89.9631 143.108 89.9631 144.885 90.4135 146.663C90.8638 148.44 91.7762 150.017 93.1505 151.392ZM89.6315 100.513L100.544 111.429L111.493 100.478L100.58 89.5628L89.6315 100.513Z" fill="#F1E1D4"/>
</svg>
