<svg width="32" height="32" viewBox="0 0 32 32" fill="none" xmlns="http://www.w3.org/2000/svg">
<rect width="32" height="32" rx="16" fill="white"/>
<path d="M4 10.2374L6.9834 8.49156L9.9889 6.76782V10.2374V13.707L6.9834 11.9611L4 10.2374Z" fill="#0C2531"/>
<path d="M27.9999 10.2374L25.0165 11.9611L22.011 13.707V10.2374V6.76782L25.0165 8.49156L27.9999 10.2374Z" fill="#293D58"/>
<path d="M16 10.2374L12.9945 11.9611L9.98901 13.707V10.2374V6.76782L12.9945 8.49156L16 10.2374Z" fill="#293D58"/>
<path d="M15.9998 10.2374L19.0053 8.49156L22.0108 6.76782V10.2374V13.707L19.0053 11.9611L15.9998 10.2374Z" fill="#0C2531"/>
<path d="M9.98901 13.7069L12.9945 11.961L16 10.2373V13.7069V17.1765L12.9945 15.4306L9.98901 13.7069Z" fill="#0C2531"/>
<path d="M22.0108 13.7069L19.0053 15.4306L15.9998 17.1765V13.7069V10.2373L19.0053 11.961L22.0108 13.7069Z" fill="#293D58"/>
<path d="M4 20.2926L6.9834 18.5467L9.9889 16.823V20.2926V23.7622L6.9834 22.0163L4 20.2926Z" fill="#0C2531"/>
<path d="M27.9999 20.2926L25.0165 22.0163L22.011 23.7622V20.2926V16.823L25.0165 18.5467L27.9999 20.2926Z" fill="#293D58"/>
<path d="M16 20.2926L12.9945 22.0163L9.98901 23.7622V20.2926V16.823L12.9945 18.5467L16 20.2926Z" fill="#293D58"/>
<path d="M15.9998 20.2926L19.0053 18.5467L22.0108 16.823V20.2926V23.7622L19.0053 22.0163L15.9998 20.2926Z" fill="#0C2531"/>
<path d="M9.98901 23.7623L12.9945 22.0165L16 20.2927V23.7623V27.2319L12.9945 25.4861L9.98901 23.7623Z" fill="#0C2531"/>
<path d="M22.0108 23.7623L19.0053 25.4861L15.9998 27.2319V23.7623V20.2927L19.0053 22.0165L22.0108 23.7623Z" fill="#293D58"/>
</svg>
