<svg width="32" height="32" viewBox="0 0 32 32" fill="none" xmlns="http://www.w3.org/2000/svg">
<rect width="32" height="32" rx="16" fill="black"/>
<path fill-rule="evenodd" clip-rule="evenodd" d="M15.95 14.4495C16.9549 14.4495 17.77 15.2668 17.77 16.2745C17.77 17.2821 16.9549 18.0995 15.95 18.0995C14.9451 18.0995 14.13 17.2821 14.13 16.2745C14.13 15.2668 14.9451 14.4495 15.95 14.4495ZM9.65262 5.85081C9.65262 5.85081 11.9639 4.23856 15.3024 4.02583C19.1322 3.76832 24.179 5.40297 26.4903 10.4189C28.8016 15.4348 25.8092 20.6074 22.3144 22.4324C20.0143 23.6304 17.2787 23.5632 17.2787 23.5632C17.2787 23.5632 21.7784 22.869 23.1741 18.7488C24.9271 13.5986 22.493 9.56795 19.9696 7.3735C15.4029 3.43243 9.65262 5.85081 9.65262 5.85081ZM10.4565 26.6534C10.4565 26.6534 7.91079 25.4554 6.04614 22.6563C3.91351 19.4654 2.80812 14.2704 5.97915 9.75829C9.16133 5.23502 15.1238 5.24622 18.4511 7.3735C20.6395 8.77302 21.9459 11.1802 21.9459 11.1802C21.9459 11.1802 19.0987 7.61981 14.8446 8.47072C9.51863 9.52317 7.25202 13.6546 6.62675 16.9462C5.48786 22.869 10.4565 26.6534 10.4565 26.6534ZM27.9865 15.6251C27.9865 15.6251 28.221 18.4353 26.7359 21.4471C25.0388 24.8955 21.1085 28.4559 15.6262 27.9521C10.1439 27.4483 7.17386 22.2644 7.35251 18.3122C7.46417 15.7147 8.89336 13.3747 8.89336 13.3747C8.89336 13.3747 7.24085 17.6292 10.0992 20.8985C13.6722 24.9963 18.3729 24.8955 21.5328 23.7983C27.2161 21.8278 27.9865 15.6251 27.9865 15.6251Z" fill="url(#paint0_linear_817_279)"/>
<defs>
<linearGradient id="paint0_linear_817_279" x1="4.0022" y1="15.999" x2="28.005" y2="15.999" gradientUnits="userSpaceOnUse">
<stop stop-color="#53462F"/>
<stop offset="1" stop-color="#D2BB79"/>
</linearGradient>
</defs>
</svg>
