<svg width="200" height="200" viewBox="0 0 200 200" fill="none" xmlns="http://www.w3.org/2000/svg">
<rect width="200" height="200" rx="100" fill="black"/>
<path d="M100 135.26C85.2122 127.348 66.5807 117.398 48.6921 107.873C61.5395 126.849 76.9088 149.47 91.7649 171.336C94.5343 175.412 97.2859 179.462 100 183.457V135.26Z" fill="#34B02E"/>
<path d="M100 135.26C114.788 127.348 133.419 117.398 151.308 107.873C138.461 126.849 123.091 149.47 108.235 171.336C105.466 175.412 102.714 179.462 100 183.457V135.26Z" fill="#13740F"/>
<path d="M100 16.5433L48.6921 91.8647L100 64.783V16.5433Z" fill="#34B02E"/>
<path d="M100 16.5433L151.308 91.8647L100 64.783V16.5433Z" fill="#13740F"/>
<path d="M100 99.9095H50.8944L50.7277 99.9988L100 126.182L100 99.9095Z" fill="#155812"/>
<path d="M100 99.9095H50.8944L50.7277 99.8203L100 73.6368L100 99.9095Z" fill="#34B02E"/>
<path d="M100 99.9095H149.106L149.272 99.9988L100 126.182L100 99.9095Z" fill="#0A3D04"/>
<path d="M100 99.9095H149.106L149.272 99.8203L100 73.6368L100 99.9095Z" fill="#13740F"/>
</svg>
