<svg width="200" height="200" viewBox="0 0 200 200" fill="none" xmlns="http://www.w3.org/2000/svg">
<rect width="200" height="200" rx="100" fill="black"/>
<path d="M48.2651 88.5672H33.1892V79.539H48.2651C48.2651 79.2918 48.2651 79.0868 48.2651 78.8818C48.3037 76.2469 48.2381 73.6097 48.4033 70.9795C48.7208 65.9288 50.0131 61.1698 53.0474 57.0178C56.2248 52.6701 60.6041 50.1828 65.7591 48.9409C69.9592 47.931 74.2167 47.8279 78.5011 48.1923C82.9371 48.5781 87.2973 49.5821 91.4553 51.1751C91.6896 51.2642 91.9239 51.3637 92.2086 51.4797L89.6592 59.6316C89.0547 59.3973 88.4877 59.1629 87.9101 58.9497C82.413 56.903 76.7391 56.3722 70.9749 57.2697C64.4141 58.2878 60.453 62.4246 59.3763 69.003C58.9873 71.3895 59.019 73.7854 59.0178 76.186C59.0178 77.2744 59.0178 78.3639 59.0178 79.5109H85.7227V88.5121H59.0623V144.279H48.2651V88.5672Z" fill="white"/>
<path d="M134.61 116.601C134.588 116.563 134.569 116.524 134.554 116.484C134.57 116.443 134.588 116.404 134.61 116.366C137.234 111.632 139.96 106.654 142.577 101.913C143.584 100.084 144.674 98.2186 145.74 96.2738H135.547C135.547 96.2738 131.039 106.349 128.987 110.844H128.752C126.485 106.32 121.606 96.2738 121.606 96.2738L110.88 96.2152C111.03 96.4988 118.665 110.165 122.191 116.366C122.216 116.41 122.237 116.448 122.256 116.484L122.191 116.601C118.665 122.713 110.913 136.65 110.763 136.929L121.606 136.871C121.606 136.871 126.485 126.968 128.752 122.516H128.987C131.039 126.945 135.547 136.877 135.547 136.877H145.857C144.786 134.953 137.234 121.267 134.61 116.601ZM107.045 140.1C105.269 141.537 103.405 143.037 101.689 144.427C86.6551 130.755 84.9833 104.488 101.629 88.5918C103.366 89.9871 105.219 91.5067 106.998 92.9442C106.53 93.482 106.086 93.9904 105.648 94.5047C102.016 98.7705 99.4991 103.474 98.4377 109.009C97.7687 112.498 97.6457 116.013 97.8917 119.553C98.1694 123.536 99.0867 127.358 100.796 130.978C102.285 134.092 104.219 136.973 106.537 139.531C106.688 139.691 106.827 139.855 107.045 140.1ZM149.527 140.1C151.302 141.537 153.166 143.037 154.882 144.427C169.916 130.755 171.589 104.488 154.943 88.5918C153.21 89.9871 151.352 91.5067 149.569 92.9442C150.037 93.482 150.48 93.9904 150.92 94.5047C154.552 98.7705 157.068 103.474 158.128 109.009C158.797 112.498 158.92 116.013 158.674 119.553C158.397 123.536 157.48 127.358 155.771 130.978C154.282 134.092 152.348 136.973 150.03 139.531C149.878 139.691 149.739 139.855 149.527 140.1Z" fill="#F7D509"/>
</svg>
