<svg width="200" height="200" viewBox="0 0 200 200" fill="none" xmlns="http://www.w3.org/2000/svg">
<rect width="200" height="200" rx="100" fill="white"/>
<path d="M97.0506 73.4125C74.2246 108.575 60.2041 157.407 54.7327 174C51.655 142.706 67.8983 100.064 79.7815 74.874C74.3101 75.1319 45.1577 77.1953 29 93.9598C29 93.9598 37.72 67.0506 88.0741 58.8832L88.245 58.5393C127.656 0.680002 157.236 35.2408 157.236 35.2408C139.283 32.2318 123.638 41.2589 110.302 55.9601C116.799 55.7022 158.86 55.1864 171 88.6296C171 88.6296 146.635 71.0912 97.0506 73.4125ZM125.519 113.733C115.431 113.733 107.224 121.987 107.224 132.132C107.224 142.276 115.431 150.53 125.519 150.53C135.607 150.53 143.814 142.276 143.814 132.132C143.814 121.901 135.607 113.733 125.519 113.733Z" fill="#1A335B"/>
</svg>
