<svg width="32" height="32" viewBox="0 0 32 32" fill="none" xmlns="http://www.w3.org/2000/svg">
<rect width="32" height="32" rx="16" fill="url(#paint0_linear_803_27)"/>
<path d="M21.1982 6.85715C20.1538 6.85634 19.1518 7.2711 18.412 8.0104C17.6723 8.7497 17.2553 9.75312 17.2526 10.8004V15.1725C16.8462 15.2 16.4307 15.2173 16 15.2173C15.5693 15.2173 15.1558 15.2346 14.7474 15.2591V10.8004C14.7308 9.7622 14.3079 8.77216 13.5698 8.04386C12.8318 7.31557 11.8378 6.90739 10.8023 6.90739C9.7668 6.90739 8.77282 7.31557 8.03477 8.04386C7.29672 8.77216 6.87376 9.7622 6.85715 10.8004V21.2499C6.87376 22.2881 7.29672 23.2781 8.03477 24.0064C8.77282 24.7347 9.7668 25.1429 10.8023 25.1429C11.8378 25.1429 12.8318 24.7347 13.5698 24.0064C14.3079 23.2781 14.7308 22.2881 14.7474 21.2499V16.8777C15.1538 16.8502 15.5693 16.8329 16 16.8329C16.4307 16.8329 16.8442 16.8156 17.2526 16.7912V21.2499C17.2692 22.2881 17.6921 23.2781 18.4302 24.0064C19.1682 24.7347 20.1622 25.1429 21.1977 25.1429C22.2332 25.1429 23.2272 24.7347 23.9652 24.0064C24.7033 23.2781 25.1262 22.2881 25.1429 21.2499V10.8004C25.1402 9.75329 24.7233 8.75003 23.9838 8.01076C23.2443 7.27149 22.2425 6.85661 21.1982 6.85715ZM10.8018 8.47275C11.4182 8.47248 12.0095 8.7174 12.446 9.15377C12.8825 9.59014 13.1285 10.1823 13.1302 10.8004V15.4302C11.9759 15.5979 10.8487 15.9175 9.77778 16.3806C9.31377 16.5849 8.87696 16.8463 8.47746 17.1589V10.8004C8.47908 10.183 8.72457 9.59146 9.16021 9.15521C9.59584 8.71895 10.1861 8.47356 10.8018 8.47275ZM13.1302 21.2499C13.1302 21.8691 12.8849 22.4629 12.4482 22.9008C12.0115 23.3386 11.4193 23.5846 10.8018 23.5846C10.1843 23.5846 9.59202 23.3386 9.15537 22.9008C8.71871 22.4629 8.4734 21.8691 8.4734 21.2499V20.2016C8.4734 19.2757 9.20483 18.3986 10.431 17.8526C11.295 17.4788 12.2015 17.213 13.1302 17.0611V21.2499ZM21.1982 23.5775C20.5819 23.5778 19.9905 23.3329 19.554 22.8965C19.1175 22.4601 18.8715 21.8679 18.8698 21.2499V16.62C20.0241 16.4523 21.1513 16.1328 22.2222 15.6696C22.6862 15.4654 23.1231 15.204 23.5225 14.8914V21.2499C23.5209 21.8672 23.2754 22.4588 22.8398 22.895C22.4042 23.3313 21.8139 23.5767 21.1982 23.5775ZM21.569 14.1915C20.705 14.5653 19.7985 14.8311 18.8698 14.983V10.8004C18.8698 10.1812 19.1152 9.58732 19.5518 9.14946C19.9885 8.7116 20.5807 8.46562 21.1982 8.46562C21.8158 8.46562 22.408 8.7116 22.8446 9.14946C23.2813 9.58732 23.5266 10.1812 23.5266 10.8004V11.8486C23.5266 12.7705 22.7952 13.6476 21.569 14.1915Z" fill="white"/>
<defs>
<linearGradient id="paint0_linear_803_27" x1="2.02667" y1="29.6159" x2="29.8672" y2="1.7759" gradientUnits="userSpaceOnUse">
<stop stop-color="#00AEE9"/>
<stop offset="1" stop-color="#69FABD"/>
</linearGradient>
</defs>
</svg>
