<svg width="32" height="32" viewBox="0 0 32 32" fill="none" xmlns="http://www.w3.org/2000/svg">
<rect width="32" height="32" rx="16" fill="#1B1F34"/>
<path d="M20.7388 7.63811C21.4691 7.63811 22.0612 7.04754 22.0612 6.31905C22.0612 5.59056 21.4691 5 20.7388 5C20.0084 5 19.4163 5.59056 19.4163 6.31905C19.4163 7.04754 20.0084 7.63811 20.7388 7.63811Z" fill="white"/>
<path d="M22.2265 26.2699C22.9569 26.2699 23.549 25.6794 23.549 24.9509C23.549 24.2224 22.9569 23.6318 22.2265 23.6318C21.4962 23.6318 20.9041 24.2224 20.9041 24.9509C20.9041 25.6794 21.4962 26.2699 22.2265 26.2699Z" fill="white"/>
<path d="M21.117 10.9358C21.73 10.9358 22.2269 10.4402 22.2269 9.82877C22.2269 9.21735 21.73 8.72168 21.117 8.72168C20.504 8.72168 20.0071 9.21735 20.0071 9.82877C20.0071 10.4402 20.504 10.9358 21.117 10.9358Z" fill="white"/>
<path d="M24.0692 11.3596C24.6821 11.3596 25.1791 10.864 25.1791 10.2525C25.1791 9.64118 24.6821 9.14551 24.0692 9.14551C23.4562 9.14551 22.9592 9.64118 22.9592 10.2525C22.9592 10.864 23.4562 11.3596 24.0692 11.3596Z" fill="white"/>
<path d="M20.7393 13.7389C21.261 13.7389 21.6839 13.317 21.6839 12.7967C21.6839 12.2763 21.261 11.8545 20.7393 11.8545C20.2176 11.8545 19.7947 12.2763 19.7947 12.7967C19.7947 13.317 20.2176 13.7389 20.7393 13.7389Z" fill="white"/>
<path d="M23.6909 14.1392C24.2126 14.1392 24.6355 13.7174 24.6355 13.197C24.6355 12.6767 24.2126 12.2549 23.6909 12.2549C23.1692 12.2549 22.7463 12.6767 22.7463 13.197C22.7463 13.7174 23.1692 14.1392 23.6909 14.1392Z" fill="white"/>
<path d="M26.0528 15.0579C26.5745 15.0579 26.9974 14.6361 26.9974 14.1157C26.9974 13.5954 26.5745 13.1736 26.0528 13.1736C25.5311 13.1736 25.1082 13.5954 25.1082 14.1157C25.1082 14.6361 25.5311 15.0579 26.0528 15.0579Z" fill="white"/>
<path d="M22.8176 16.4004C23.274 16.4004 23.6441 16.0313 23.6441 15.576C23.6441 15.1207 23.274 14.7516 22.8176 14.7516C22.3611 14.7516 21.991 15.1207 21.991 15.576C21.991 16.0313 22.3611 16.4004 22.8176 16.4004Z" fill="white"/>
<path d="M19.8653 15.9999C20.3218 15.9999 20.6919 15.6307 20.6919 15.1755C20.6919 14.7201 20.3218 14.3511 19.8653 14.3511C19.4088 14.3511 19.0388 14.7201 19.0388 15.1755C19.0388 15.6307 19.4088 15.9999 19.8653 15.9999Z" fill="white"/>
<path d="M25.2023 17.319C25.6588 17.319 26.0288 16.9499 26.0288 16.4946C26.0288 16.0393 25.6588 15.6702 25.2023 15.6702C24.7458 15.6702 24.3757 16.0393 24.3757 16.4946C24.3757 16.9499 24.7458 17.319 25.2023 17.319Z" fill="white"/>
<path d="M21.6364 18.12C22.0277 18.12 22.3449 17.8036 22.3449 17.4134C22.3449 17.023 22.0277 16.7067 21.6364 16.7067C21.2451 16.7067 20.928 17.023 20.928 17.4134C20.928 17.8036 21.2451 18.12 21.6364 18.12Z" fill="white"/>
<path d="M24.0222 19.0151C24.4135 19.0151 24.7306 18.6987 24.7306 18.3084C24.7306 17.9182 24.4135 17.6018 24.0222 17.6018C23.6309 17.6018 23.3137 17.9182 23.3137 18.3084C23.3137 18.6987 23.6309 19.0151 24.0222 19.0151Z" fill="white"/>
<path d="M18.7082 17.6956C19.0995 17.6956 19.4167 17.3792 19.4167 16.989C19.4167 16.5987 19.0995 16.2823 18.7082 16.2823C18.3169 16.2823 17.9998 16.5987 17.9998 16.989C17.9998 17.3792 18.3169 17.6956 18.7082 17.6956Z" fill="white"/>
<path d="M20.3377 19.2742C20.6637 19.2742 20.928 19.0105 20.928 18.6853C20.928 18.3601 20.6637 18.0964 20.3377 18.0964C20.0116 18.0964 19.7473 18.3601 19.7473 18.6853C19.7473 19.0105 20.0116 19.2742 20.3377 19.2742Z" fill="white"/>
<path d="M21.3535 20.8994C21.6405 20.8994 21.8731 20.6674 21.8731 20.3813C21.8731 20.095 21.6405 19.863 21.3535 19.863C21.0666 19.863 20.834 20.095 20.834 20.3813C20.834 20.6674 21.0666 20.8994 21.3535 20.8994Z" fill="white"/>
<path d="M20.1016 21.2293C20.3364 21.2293 20.5267 21.0395 20.5267 20.8053C20.5267 20.5712 20.3364 20.3813 20.1016 20.3813C19.8669 20.3813 19.6765 20.5712 19.6765 20.8053C19.6765 21.0395 19.8669 21.2293 20.1016 21.2293Z" fill="white"/>
<path d="M18.9914 20.0043C19.2783 20.0043 19.511 19.7723 19.511 19.4861C19.511 19.1999 19.2783 18.9679 18.9914 18.9679C18.7045 18.9679 18.4719 19.1999 18.4719 19.4861C18.4719 19.7723 18.7045 20.0043 18.9914 20.0043Z" fill="white"/>
<path d="M17.3856 18.8738C17.7116 18.8738 17.9759 18.6101 17.9759 18.2849C17.9759 17.9597 17.7116 17.696 17.3856 17.696C17.0595 17.696 16.7952 17.9597 16.7952 18.2849C16.7952 18.6101 17.0595 18.8738 17.3856 18.8738Z" fill="white"/>
<path d="M17.3621 14.4451C17.6882 14.4451 17.9525 14.1814 17.9525 13.8562C17.9525 13.531 17.6882 13.2673 17.3621 13.2673C17.0361 13.2673 16.7717 13.531 16.7717 13.8562C16.7717 14.1814 17.0361 14.4451 17.3621 14.4451Z" fill="white"/>
<path d="M17.6219 12.3726C17.9088 12.3726 18.1414 12.1405 18.1414 11.8543C18.1414 11.5682 17.9088 11.3362 17.6219 11.3362C17.3349 11.3362 17.1023 11.5682 17.1023 11.8543C17.1023 12.1405 17.3349 12.3726 17.6219 12.3726Z" fill="white"/>
<path d="M18.189 10.6765C18.4238 10.6765 18.6141 10.4867 18.6141 10.2526C18.6141 10.0184 18.4238 9.82861 18.189 9.82861C17.9543 9.82861 17.7639 10.0184 17.7639 10.2526C17.7639 10.4867 17.9543 10.6765 18.189 10.6765Z" fill="white"/>
<path d="M17.1966 9.87574C17.4835 9.87574 17.7161 9.64376 17.7161 9.35758C17.7161 9.07139 17.4835 8.83936 17.1966 8.83936C16.9097 8.83936 16.677 9.07139 16.677 9.35758C16.677 9.64376 16.9097 9.87574 17.1966 9.87574Z" fill="white"/>
<path d="M22.699 20.1689C23.0251 20.1689 23.2894 19.9053 23.2894 19.5801C23.2894 19.2548 23.0251 18.9912 22.699 18.9912C22.373 18.9912 22.1086 19.2548 22.1086 19.5801C22.1086 19.9053 22.373 20.1689 22.699 20.1689Z" fill="white"/>
<path d="M15.8509 9.19263C16.1769 9.19263 16.4412 8.92899 16.4412 8.60376C16.4412 8.27853 16.1769 8.01489 15.8509 8.01489C15.5248 8.01489 15.2605 8.27853 15.2605 8.60376C15.2605 8.92899 15.5248 9.19263 15.8509 9.19263Z" fill="white"/>
<path d="M16.2523 11.6897C16.5783 11.6897 16.8427 11.4261 16.8427 11.1008C16.8427 10.7756 16.5783 10.512 16.2523 10.512C15.9262 10.512 15.6619 10.7756 15.6619 11.1008C15.6619 11.4261 15.9262 11.6897 16.2523 11.6897Z" fill="white"/>
<path d="M15.5913 14.0685C15.9826 14.0685 16.2997 13.7522 16.2997 13.3619C16.2997 12.9716 15.9826 12.6553 15.5913 12.6553C15.2 12.6553 14.8828 12.9716 14.8828 13.3619C14.8828 13.7522 15.2 14.0685 15.5913 14.0685Z" fill="white"/>
<path d="M13.4421 14.0685C13.8985 14.0685 14.2686 13.6994 14.2686 13.2441C14.2686 12.7888 13.8985 12.4197 13.4421 12.4197C12.9856 12.4197 12.6155 12.7888 12.6155 13.2441C12.6155 13.6994 12.9856 14.0685 13.4421 14.0685Z" fill="white"/>
<path d="M10.939 14.6338C11.4607 14.6338 11.8836 14.212 11.8836 13.6917C11.8836 13.1713 11.4607 12.7495 10.939 12.7495C10.4173 12.7495 9.99438 13.1713 9.99438 13.6917C9.99438 14.212 10.4173 14.6338 10.939 14.6338Z" fill="white"/>
<path d="M8.19953 15.9766C8.81254 15.9766 9.30943 15.4809 9.30943 14.8695C9.30943 14.2581 8.81254 13.7625 8.19953 13.7625C7.58653 13.7625 7.0896 14.2581 7.0896 14.8695C7.0896 15.4809 7.58653 15.9766 8.19953 15.9766Z" fill="white"/>
<path d="M5.36568 18.2377C6.09605 18.2377 6.68814 17.6472 6.68814 16.9187C6.68814 16.1902 6.09605 15.5996 5.36568 15.5996C4.6353 15.5996 4.04321 16.1902 4.04321 16.9187C4.04321 17.6472 4.6353 18.2377 5.36568 18.2377Z" fill="white"/>
<path d="M7.08966 13.2205C7.70267 13.2205 8.19957 12.7249 8.19957 12.1134C8.19957 11.502 7.70267 11.0063 7.08966 11.0063C6.47666 11.0063 5.97974 11.502 5.97974 12.1134C5.97974 12.7249 6.47666 13.2205 7.08966 13.2205Z" fill="white"/>
<path d="M9.82912 11.878C10.3508 11.878 10.7737 11.4562 10.7737 10.9358C10.7737 10.4155 10.3508 9.99365 9.82912 9.99365C9.30741 9.99365 8.88452 10.4155 8.88452 10.9358C8.88452 11.4562 9.30741 11.878 9.82912 11.878Z" fill="white"/>
<path d="M9.42732 9.38095C9.94903 9.38095 10.3719 8.95916 10.3719 8.43879C10.3719 7.91843 9.94903 7.49658 9.42732 7.49658C8.90562 7.49658 8.48267 7.91843 8.48267 8.43879C8.48267 8.95916 8.90562 9.38095 9.42732 9.38095Z" fill="white"/>
<path d="M11.9308 8.81583C12.3873 8.81583 12.7573 8.44672 12.7573 7.99138C12.7573 7.5361 12.3873 7.16699 11.9308 7.16699C11.4743 7.16699 11.1042 7.5361 11.1042 7.99138C11.1042 8.44672 11.4743 8.81583 11.9308 8.81583Z" fill="white"/>
<path d="M14.0793 8.81588C14.4705 8.81588 14.7878 8.49951 14.7878 8.10925C14.7878 7.71894 14.4705 7.40259 14.0793 7.40259C13.688 7.40259 13.3708 7.71894 13.3708 8.10925C13.3708 8.49951 13.688 8.81588 14.0793 8.81588Z" fill="white"/>
<path d="M14.4812 11.3122C14.8725 11.3122 15.1896 10.9958 15.1896 10.6056C15.1896 10.2153 14.8725 9.89893 14.4812 9.89893C14.0899 9.89893 13.7727 10.2153 13.7727 10.6056C13.7727 10.9958 14.0899 11.3122 14.4812 11.3122Z" fill="white"/>
<path d="M12.3322 11.3363C12.7886 11.3363 13.1587 10.9672 13.1587 10.5119C13.1587 10.0566 12.7886 9.6875 12.3322 9.6875C11.8757 9.6875 11.5056 10.0566 11.5056 10.5119C11.5056 10.9672 11.8757 11.3363 12.3322 11.3363Z" fill="white"/>
<path d="M9.99418 17.6016C10.2289 17.6016 10.4192 17.4118 10.4192 17.1777C10.4192 16.9435 10.2289 16.7537 9.99418 16.7537C9.75939 16.7537 9.56909 16.9435 9.56909 17.1777C9.56909 17.4118 9.75939 17.6016 9.99418 17.6016Z" fill="white"/>
<path d="M11.6946 17.3897C11.9815 17.3897 12.2141 17.1577 12.2141 16.8715C12.2141 16.5853 11.9815 16.3533 11.6946 16.3533C11.4076 16.3533 11.175 16.5853 11.175 16.8715C11.175 17.1577 11.4076 17.3897 11.6946 17.3897Z" fill="white"/>
<path d="M13.5599 16.6833C13.886 16.6833 14.1503 16.4197 14.1503 16.0945C14.1503 15.7692 13.886 15.5056 13.5599 15.5056C13.2338 15.5056 12.9695 15.7692 12.9695 16.0945C12.9695 16.4197 13.2338 16.6833 13.5599 16.6833Z" fill="white"/>
<path d="M14.009 18.5676C14.4003 18.5676 14.7175 18.2512 14.7175 17.8609C14.7175 17.4707 14.4003 17.1543 14.009 17.1543C13.6178 17.1543 13.3005 17.4707 13.3005 17.8609C13.3005 18.2512 13.6178 18.5676 14.009 18.5676Z" fill="white"/>
<path d="M11.742 19.0146C12.0681 19.0146 12.3324 18.751 12.3324 18.4258C12.3324 18.1005 12.0681 17.8369 11.742 17.8369C11.416 17.8369 11.1516 18.1005 11.1516 18.4258C11.1516 18.751 11.416 19.0146 11.742 19.0146Z" fill="white"/>
<path d="M9.73459 18.9913C10.0216 18.9913 10.2542 18.7592 10.2542 18.4731C10.2542 18.1869 10.0216 17.9548 9.73459 17.9548C9.44768 17.9548 9.21509 18.1869 9.21509 18.4731C9.21509 18.7592 9.44768 18.9913 9.73459 18.9913Z" fill="white"/>
<path d="M9.75757 20.6167C10.0837 20.6167 10.348 20.3531 10.348 20.0278C10.348 19.7027 10.0837 19.439 9.75757 19.439C9.43154 19.439 9.16724 19.7027 9.16724 20.0278C9.16724 20.3531 9.43154 20.6167 9.75757 20.6167Z" fill="white"/>
<path d="M12.1667 20.9228C12.558 20.9228 12.8752 20.6064 12.8752 20.2161C12.8752 19.8259 12.558 19.5095 12.1667 19.5095C11.7754 19.5095 11.4583 19.8259 11.4583 20.2161C11.4583 20.6064 11.7754 20.9228 12.1667 20.9228Z" fill="white"/>
<path d="M14.9777 20.6167C15.4342 20.6167 15.8042 20.2476 15.8042 19.7923C15.8042 19.337 15.4342 18.9679 14.9777 18.9679C14.5212 18.9679 14.1511 19.337 14.1511 19.7923C14.1511 20.2476 14.5212 20.6167 14.9777 20.6167Z" fill="white"/>
<path d="M16.6299 22.6659C17.1516 22.6659 17.5745 22.2441 17.5745 21.7237C17.5745 21.2033 17.1516 20.7815 16.6299 20.7815C16.1082 20.7815 15.6853 21.2033 15.6853 21.7237C15.6853 22.2441 16.1082 22.6659 16.6299 22.6659Z" fill="white"/>
<path d="M13.1583 22.9486C13.6148 22.9486 13.9848 22.5795 13.9848 22.1242C13.9848 21.6689 13.6148 21.2998 13.1583 21.2998C12.7018 21.2998 12.3318 21.6689 12.3318 22.1242C12.3318 22.5795 12.7018 22.9486 13.1583 22.9486Z" fill="white"/>
<path d="M11.1989 24.5501C11.6553 24.5501 12.0254 24.181 12.0254 23.7258C12.0254 23.2704 11.6553 22.9014 11.1989 22.9014C10.7424 22.9014 10.3723 23.2704 10.3723 23.7258C10.3723 24.181 10.7424 24.5501 11.1989 24.5501Z" fill="white"/>
<path d="M12.8277 26.6231C13.3494 26.6231 13.7723 26.2013 13.7723 25.681C13.7723 25.1606 13.3494 24.7388 12.8277 24.7388C12.3059 24.7388 11.8831 25.1606 11.8831 25.681C11.8831 26.2013 12.3059 26.6231 12.8277 26.6231Z" fill="white"/>
<path d="M17.1732 27C17.7862 27 18.2831 26.5043 18.2831 25.8929C18.2831 25.2815 17.7862 24.7859 17.1732 24.7859C16.5602 24.7859 16.0632 25.2815 16.0632 25.8929C16.0632 26.5043 16.5602 27 17.1732 27Z" fill="white"/>
<path d="M14.7881 25.0211C15.3098 25.0211 15.7328 24.5992 15.7328 24.0789C15.7328 23.5586 15.3098 23.1367 14.7881 23.1367C14.2665 23.1367 13.8435 23.5586 13.8435 24.0789C13.8435 24.5992 14.2665 25.0211 14.7881 25.0211Z" fill="white"/>
<path d="M18.992 24.6445C19.605 24.6445 20.1019 24.1489 20.1019 23.5374C20.1019 22.926 19.605 22.4304 18.992 22.4304C18.379 22.4304 17.8821 22.926 17.8821 23.5374C17.8821 24.1489 18.379 24.6445 18.992 24.6445Z" fill="white"/>
<path d="M10.2068 22.5248C10.598 22.5248 10.9152 22.2085 10.9152 21.8182C10.9152 21.4279 10.598 21.1116 10.2068 21.1116C9.81546 21.1116 9.49829 21.4279 9.49829 21.8182C9.49829 22.2085 9.81546 22.5248 10.2068 22.5248Z" fill="white"/>
</svg>
