<svg width="28" height="28" viewBox="0 0 28 28" fill="none" xmlns="http://www.w3.org/2000/svg">
<path d="M14 28C21.732 28 28 21.732 28 14C28 6.26801 21.732 0 14 0C6.26801 0 0 6.26801 0 14C0 21.732 6.26801 28 14 28Z" fill="#12192C"/>
<path d="M23.814 12.628L23.254 11.69L20.188 6.538H20.174L20.076 6.356H18.956L14.602 14.014L19.026 21.63H20.146L20.174 21.588L23.828 15.33H21.574L19.628 18.788L16.856 14L19.572 9.212L21.546 12.614L23.814 12.628Z" fill="#41E6AF"/>
<path d="M6.776 11.382L8.82 7.896L8.134 6.79L7.658 6.006L4.158 12.18L4.06 12.348L4.62 13.328H13.426L17.864 5.726L17.248 4.662L11.088 4.676H10.99L10.01 4.662L10.528 5.642L11.046 6.622L15.078 6.608L12.306 11.382H6.776Z" fill="#41E6AF"/>
<path d="M11.13 7.35C10.976 7.35 10.808 7.378 10.64 7.434C10.458 7.49 10.276 7.574 10.108 7.672C9.632 7.966 9.296 8.386 9.24 8.778C9.212 8.96 9.254 9.114 9.352 9.226C9.366 9.254 9.394 9.268 9.408 9.296C9.422 9.31 9.436 9.31 9.45 9.324C9.464 9.338 9.464 9.338 9.478 9.352C9.506 9.366 9.52 9.38 9.548 9.394C9.842 9.534 10.304 9.506 10.752 9.296L10.766 9.282C10.808 9.268 10.85 9.24 10.892 9.226C10.934 9.212 10.962 9.184 11.004 9.156C11.046 9.128 11.088 9.1 11.13 9.072C11.172 9.044 11.2 9.016 11.242 8.988L11.27 8.974C11.298 8.946 11.326 8.932 11.354 8.904C11.368 8.89 11.368 8.89 11.382 8.876C11.41 8.862 11.424 8.834 11.438 8.82C11.452 8.806 11.466 8.792 11.48 8.764C11.494 8.736 11.522 8.722 11.536 8.694C11.55 8.68 11.55 8.68 11.564 8.666C11.578 8.638 11.606 8.624 11.62 8.596L11.648 8.568C11.662 8.54 11.676 8.526 11.69 8.498C11.69 8.498 11.69 8.498 11.69 8.484L11.704 8.456C11.732 8.428 11.746 8.386 11.76 8.358C11.774 8.33 11.788 8.288 11.802 8.26L11.816 8.246C11.816 8.232 11.83 8.218 11.83 8.218C11.83 8.204 11.83 8.204 11.844 8.19C11.844 8.162 11.858 8.148 11.858 8.12C11.858 8.092 11.872 8.092 11.872 8.078C11.872 8.064 11.872 8.05 11.872 8.05C11.872 8.022 11.872 8.008 11.872 7.994V7.966C11.872 7.938 11.872 7.924 11.872 7.896C11.872 7.882 11.872 7.882 11.872 7.868C11.872 7.854 11.872 7.84 11.872 7.84C11.872 7.826 11.872 7.826 11.872 7.812V7.798C11.872 7.77 11.858 7.756 11.844 7.728C11.83 7.7 11.816 7.686 11.802 7.658C11.704 7.448 11.438 7.35 11.13 7.35Z" fill="#41E6AF"/>
<path d="M12.152 8.372C12.152 8.4 12.138 8.414 12.124 8.442C12.124 8.456 12.124 8.456 12.11 8.47C12.096 8.512 12.082 8.54 12.054 8.582C11.9 8.876 11.648 9.156 11.34 9.38C11.298 9.408 11.256 9.436 11.214 9.464C11.172 9.492 11.13 9.52 11.088 9.534H11.074C11.06 9.548 11.046 9.548 11.032 9.562C11.004 9.576 10.99 9.59 10.962 9.604H10.948C10.934 9.604 10.92 9.618 10.906 9.618C10.878 9.632 10.85 9.646 10.822 9.646L10.794 9.66C10.794 9.66 10.794 9.66 10.78 9.66C10.766 9.66 10.752 9.674 10.738 9.674C10.71 9.688 10.682 9.688 10.654 9.702L10.626 9.716H10.612C10.584 9.73 10.556 9.73 10.528 9.744C10.514 9.744 10.5 9.758 10.472 9.758H10.458C10.43 9.758 10.402 9.772 10.388 9.772C10.374 9.772 10.346 9.772 10.332 9.786H10.318C10.304 9.786 10.29 9.786 10.276 9.8C10.262 9.8 10.248 9.8 10.234 9.8C10.192 9.8 10.136 9.814 10.094 9.814H10.08C10.038 9.814 9.996 9.814 9.954 9.814C9.94 9.814 9.926 9.814 9.926 9.814H9.912C9.884 9.814 9.856 9.814 9.828 9.8C9.814 9.8 9.8 9.8 9.786 9.786C9.758 9.786 9.73 9.772 9.702 9.772C9.688 9.772 9.674 9.758 9.66 9.758L10.43 11.004L12.082 10.99L12.936 9.478L12.166 8.218C12.166 8.232 12.166 8.246 12.152 8.26C12.152 8.274 12.152 8.274 12.152 8.288C12.152 8.302 12.138 8.316 12.138 8.344C12.152 8.358 12.152 8.372 12.152 8.372Z" fill="#41E6AF"/>
<path d="M20.93 12.922C21.014 13.048 21.07 13.202 21.112 13.384C21.154 13.566 21.182 13.762 21.182 13.958C21.182 14.518 21 15.022 20.692 15.274C20.552 15.386 20.398 15.442 20.244 15.414C20.216 15.414 20.188 15.4 20.16 15.4C20.146 15.4 20.132 15.386 20.118 15.386C20.104 15.386 20.09 15.372 20.076 15.372C20.048 15.358 20.02 15.344 20.006 15.33C19.726 15.148 19.516 14.742 19.46 14.252V14.238C19.46 14.196 19.446 14.154 19.446 14.098C19.446 14.056 19.446 14.014 19.446 13.972C19.446 13.916 19.446 13.874 19.446 13.818C19.446 13.776 19.446 13.734 19.46 13.692V13.664C19.46 13.636 19.474 13.594 19.474 13.566C19.474 13.552 19.474 13.538 19.474 13.524C19.474 13.496 19.488 13.468 19.488 13.44C19.488 13.412 19.502 13.398 19.502 13.37C19.516 13.342 19.516 13.314 19.53 13.286C19.53 13.272 19.544 13.258 19.544 13.244C19.558 13.216 19.558 13.188 19.572 13.16L19.586 13.118C19.6 13.09 19.614 13.076 19.614 13.048C19.614 13.048 19.614 13.048 19.614 13.034L19.628 13.006C19.642 12.964 19.67 12.936 19.684 12.908C19.698 12.88 19.726 12.852 19.74 12.824L19.754 12.81C19.768 12.796 19.768 12.796 19.782 12.782C19.796 12.768 19.796 12.768 19.796 12.754C19.81 12.74 19.824 12.726 19.838 12.712C19.852 12.698 19.866 12.684 19.866 12.684C19.88 12.67 19.88 12.67 19.894 12.656C19.908 12.642 19.922 12.628 19.936 12.614L19.964 12.6C19.978 12.586 20.006 12.572 20.02 12.558C20.034 12.558 20.034 12.558 20.048 12.544C20.062 12.544 20.076 12.53 20.076 12.53C20.076 12.53 20.09 12.53 20.09 12.516H20.104C20.132 12.516 20.146 12.502 20.174 12.502C20.202 12.502 20.23 12.502 20.258 12.502C20.552 12.488 20.762 12.656 20.93 12.922Z" fill="#41E6AF"/>
<path d="M19.516 12.586C19.502 12.6 19.488 12.628 19.474 12.642C19.474 12.656 19.46 12.656 19.46 12.67C19.432 12.698 19.418 12.74 19.39 12.768C19.208 13.048 19.11 13.412 19.082 13.79C19.082 13.846 19.082 13.888 19.082 13.944C19.082 13.986 19.082 14.042 19.082 14.084V14.098C19.082 14.112 19.082 14.14 19.082 14.154C19.082 14.182 19.082 14.21 19.096 14.238V14.252C19.096 14.266 19.096 14.28 19.096 14.294C19.096 14.322 19.11 14.35 19.11 14.378V14.406C19.11 14.406 19.11 14.406 19.11 14.42C19.11 14.434 19.11 14.448 19.124 14.462C19.124 14.49 19.138 14.518 19.138 14.546L19.152 14.574V14.588C19.152 14.616 19.166 14.644 19.18 14.672C19.18 14.686 19.194 14.7 19.194 14.714V14.728C19.208 14.756 19.208 14.77 19.222 14.798C19.222 14.812 19.236 14.826 19.25 14.854V14.868C19.25 14.882 19.264 14.896 19.264 14.91C19.278 14.924 19.278 14.938 19.278 14.938C19.292 14.98 19.32 15.022 19.348 15.064L19.362 15.078C19.39 15.12 19.404 15.148 19.432 15.176C19.432 15.19 19.446 15.19 19.446 15.204L19.46 15.218C19.474 15.246 19.502 15.26 19.516 15.288C19.53 15.302 19.53 15.316 19.544 15.316C19.572 15.344 19.586 15.358 19.6 15.386C19.614 15.4 19.628 15.4 19.628 15.414H18.158L17.304 14L18.144 12.488H19.614C19.6 12.502 19.6 12.502 19.586 12.516L19.572 12.53C19.558 12.544 19.544 12.558 19.516 12.586C19.53 12.586 19.516 12.586 19.516 12.586Z" fill="#41E6AF"/>
<path d="M11.13 20.636C10.976 20.636 10.808 20.608 10.64 20.552C10.458 20.496 10.276 20.412 10.108 20.314C9.632 20.02 9.296 19.6 9.24 19.208C9.212 19.026 9.254 18.872 9.352 18.76C9.366 18.732 9.394 18.718 9.408 18.69C9.422 18.676 9.436 18.676 9.45 18.662C9.464 18.648 9.464 18.648 9.478 18.634C9.506 18.62 9.52 18.606 9.548 18.592C9.842 18.452 10.304 18.48 10.752 18.69L10.766 18.704C10.808 18.718 10.85 18.746 10.892 18.76C10.934 18.774 10.962 18.802 11.004 18.83C11.046 18.858 11.088 18.886 11.13 18.914C11.172 18.942 11.2 18.97 11.242 18.998L11.27 19.012C11.298 19.04 11.326 19.054 11.354 19.082C11.368 19.096 11.368 19.096 11.382 19.11C11.41 19.124 11.424 19.152 11.438 19.166C11.452 19.18 11.466 19.194 11.48 19.222C11.494 19.25 11.522 19.264 11.536 19.292C11.55 19.306 11.55 19.306 11.564 19.32C11.578 19.348 11.606 19.362 11.62 19.39L11.648 19.418C11.662 19.446 11.676 19.46 11.69 19.488V19.502L11.704 19.53C11.732 19.558 11.746 19.6 11.76 19.628C11.774 19.656 11.788 19.698 11.802 19.726L11.816 19.74C11.816 19.754 11.83 19.768 11.83 19.768C11.83 19.782 11.83 19.782 11.844 19.796C11.844 19.824 11.858 19.838 11.858 19.866C11.858 19.894 11.872 19.894 11.872 19.908C11.872 19.922 11.872 19.936 11.872 19.936C11.872 19.964 11.872 19.978 11.872 19.992V20.02C11.872 20.048 11.872 20.062 11.872 20.09C11.872 20.104 11.872 20.104 11.872 20.118C11.872 20.132 11.872 20.146 11.872 20.146C11.872 20.16 11.872 20.16 11.872 20.174V20.188C11.872 20.216 11.858 20.23 11.844 20.258C11.83 20.286 11.816 20.3 11.802 20.328C11.704 20.538 11.438 20.65 11.13 20.636Z" fill="#41E6AF"/>
<path d="M12.152 19.614C12.152 19.586 12.138 19.572 12.124 19.544C12.124 19.53 12.124 19.53 12.11 19.516C12.096 19.474 12.082 19.446 12.054 19.404C11.9 19.11 11.648 18.83 11.34 18.606C11.298 18.578 11.256 18.55 11.214 18.522C11.172 18.494 11.13 18.466 11.088 18.452H11.074C11.06 18.438 11.046 18.438 11.032 18.424C11.004 18.41 10.99 18.396 10.962 18.382H10.948C10.934 18.382 10.92 18.368 10.906 18.368C10.878 18.354 10.85 18.34 10.822 18.34L10.794 18.326C10.794 18.326 10.794 18.326 10.78 18.326C10.766 18.326 10.752 18.312 10.738 18.312C10.71 18.298 10.682 18.298 10.654 18.284L10.626 18.27H10.612C10.584 18.256 10.556 18.256 10.528 18.242C10.514 18.242 10.5 18.228 10.472 18.228H10.458C10.43 18.228 10.402 18.214 10.388 18.214C10.374 18.214 10.346 18.214 10.332 18.2H10.318C10.304 18.2 10.29 18.2 10.276 18.186C10.262 18.186 10.248 18.186 10.234 18.186C10.192 18.186 10.136 18.172 10.094 18.172H10.08C10.038 18.172 9.996 18.172 9.954 18.172C9.94 18.172 9.926 18.172 9.926 18.172H9.912C9.884 18.172 9.856 18.172 9.828 18.186C9.814 18.186 9.8 18.186 9.786 18.2C9.758 18.2 9.73 18.214 9.702 18.214C9.688 18.214 9.674 18.228 9.66 18.228L10.43 16.982L12.082 16.996L12.936 18.508L12.166 19.768C12.166 19.754 12.166 19.74 12.152 19.726C12.152 19.712 12.152 19.712 12.152 19.698C12.152 19.684 12.138 19.67 12.138 19.642C12.152 19.628 12.152 19.614 12.152 19.614Z" fill="#41E6AF"/>
<path d="M15.078 21.378L11.046 21.364L10.43 22.526L10.01 23.324L11.088 23.31V23.324L17.248 23.338L17.864 22.274L13.426 14.672L4.62 14.658L4.06 15.638L4.172 15.82H4.158L7.658 21.98L8.82 20.09L6.776 16.618H12.306L15.078 21.378Z" fill="#41E6AF"/>
</svg>
